<?xml version="1.0" encoding="UTF-8"?>
<svg id="Layer_1" data-name="Layer 1" xmlns="http://www.w3.org/2000/svg" viewBox="0 0 50 50">
  <defs>
    <style>
      .cls-1 {
        stroke-linecap: round;
      }

      .cls-1, .cls-2 {
        fill: #353b3c;
        stroke: #353b3c;
        stroke-linejoin: round;
        stroke-width: .99px;
      }

      .cls-3 {
        fill: #fff;
      }
    </style>
  </defs>
  <g id="Layer_2" data-name="Layer 2">
    <path class="cls-3" d="m24.99,25.04c.14,0,.24.04.33.11l-.1-.29-.53.19h.3Z"/>
    <path class="cls-2" d="m15.02,17.8v21.52H.67v-21.52c0-3.96,3.21-7.17,7.17-7.17s7.17,3.21,7.17,7.17Z"/>
    <path class="cls-2" d="m31.6,17.8v21.52h-14.35v-21.52c0-3.96,3.21-7.17,7.17-7.17s7.17,3.21,7.17,7.17Z"/>
    <polygon class="cls-1" points="35.22 11.05 38.63 16.95 42.28 23.27 45.93 16.95 49.33 11.05 35.22 11.05"/>
    <path class="cls-1" d="m49.33,15.54c-4.63,7.95-9.27,15.89-13.9,23.84h13.9V15.54Z"/>
  </g>
</svg>