<?xml version="1.0" encoding="UTF-8"?>
<svg id="Layer_1" data-name="Layer 1" xmlns="http://www.w3.org/2000/svg" xmlns:xlink="http://www.w3.org/1999/xlink" viewBox="0 0 3000 8000">
  <defs>
    <style>
      .cls-1 {
        fill: none;
      }

      .cls-2 {
        clip-path: url(#clippath);
      }

      .cls-3 {
        opacity: .05;
      }

      .cls-4 {
        fill: #9a552c;
      }

      .cls-5 {
        fill: #a96a3d;
      }

      .cls-6 {
        fill: #2d1a10;
      }
    </style>
    <clipPath id="clippath">
      <rect class="cls-1" x="31.21" y="-15.8" width="2980.79" height="7847.8"/>
    </clipPath>
  </defs>
  <g id="Group_740" data-name="Group 740" class="cls-3">
    <rect id="Rectangle_805" data-name="Rectangle 805" class="cls-5" x="109.87" y="-15.8" width="2794.85" height="7845.42"/>
    <g id="Group_736" data-name="Group 736">
      <g class="cls-2">
        <g id="Group_735" data-name="Group 735">
          <path id="Path_895" data-name="Path 895" class="cls-6" d="M311-15.8V7826.42H165.27c-68.28-297.04-144.01-740.87-133.01-1281.91,6.5-320.35,38.8-446.52,76.4-851.97,63.13-680.62,53.39-1201.11,45.03-1648.2-19.72-1055.08-117.8-1076.66-60.62-1722.71,38.4-433.99,94.74-560.6,75.99-945.2-15.59-319.96-69.16-531.88-15.19-868.96C186.15,305.74,275.3-15.8,275.3-15.8h35.69"/>
          <path id="Path_896" data-name="Path 896" class="cls-6" d="M2776.13-15.8c42.01,114.47,97.13,289.48,128.94,508.03,50.95,350.21,8.67,583.25-15.22,929.93-20.69,300.55-13.8,525.6,0,975.68,24.87,810.39,113.17,826.34,121.6,1478.77,5.61,434.37-33.98,392.09-60.8,1189.12-21.23,631.52-.04,764.54-15.19,1204.38-12.82,372.6-49.57,905.48-159.32,1556.31h-145.72V-15.8h145.72Z"/>
          <path id="Path_897" data-name="Path 897" class="cls-6" d="M731.46,7826.42s30.41-290.97,0-778.79c-30.41-487.83-251.69-762.27-217.04-1051.92s-43.34-1615.99-43.34-1615.99c0,0,54.28-152.43,43.34-564.05s152.56-731.76,93.6-1280.6c-58.96-548.83,28.57-1265.33,0-1448.29-28.57-182.96-113.06-579.33-93.6-792.75s0-309.82,0-309.82h129.29s0,530.16,35.93,719.33c35.93,189.17,0,729.61,0,855.72s67.78,936.79,65.32,1062.91c-2.46,126.12-29.41,792.68-56.35,945.8-26.93,153.11-35.93,693.59-35.93,954.81s-89.27,1225.05-44.64,1414.21c44.63,189.17,62.62,225.2,71.6,396.35,8.98,171.14,125.72,41.4,143.69,353.97,17.97,312.57,17.97,440.91,0,790.01l-17.97,349.1h-73.91Z"/>
          <path id="Path_898" data-name="Path 898" class="cls-6" d="M471.08,7826.42s-12.53-347.43,0-434.3c12.53-86.88,19.63-260.58-5.57-499.45-25.2-238.87-46.84-1009.76-46.84-1140.04s21.65-803.47,0-879.46c-21.65-76,0-426.52,0-967.85s10.87-345.92,27.08-791.08c16.21-445.16,56.1-477.75,25.33-901.18-30.77-423.42,19.94-553.74,0-760.04-19.94-206.3,109.4-325.74-25.33-814.32C311.02,150.11,409.04-15.81,409.04-15.81"/>
          <path id="Path_899" data-name="Path 899" class="cls-6" d="M1520.33,7826.42s-12.53-347.43,0-434.3c12.53-86.88,19.63-260.58-5.57-499.44-25.2-238.86-46.84-1009.76-46.84-1140.04s21.65-803.47,0-879.46c-21.65-76,0-426.52,0-967.85s10.87-345.92,27.08-791.08c16.21-445.16,56.1-477.75,25.33-901.18-30.77-423.42,19.94-553.74,0-760.04-19.94-206.3,109.4-325.74-25.33-814.32S1458.29-15.8,1458.29-15.8"/>
          <path id="Path_900" data-name="Path 900" class="cls-6" d="M836.82-15.8s-14.86,752.23,0,1012.81c14.86,260.58-136.7,825.18-71.73,1140.04,64.97,314.86,37.29,705.74,72.78,1009.76,35.49,304.03-35.49,217.15,0,716.59,35.49,499.44-49.33,466.87-39.42,955.46,9.92,488.59,129.01,597.17,129.01,879.46s75.79,488.61,64.97,792.61c-10.82,304-155.96,249.72-121.29,553.74,34.67,304.02-51.92,586.28,45.49,781.74"/>
          <path id="Path_901" data-name="Path 901" class="cls-6" d="M1833.65-10.22s-30.41,290.97,0,778.79c30.41,487.83,251.69,762.27,217.04,1051.92-34.65,289.65,43.34,1615.99,43.34,1615.99,0,0-54.28,152.43-43.34,564.05,10.94,411.61-152.56,731.76-93.6,1280.6,58.96,548.83-28.57,1265.34,0,1448.29,28.57,182.96,113.06,579.33,93.6,792.75-19.45,213.42,0,309.82,0,309.82h-129.29s0-530.16-35.93-719.33c-35.93-189.17,0-729.61,0-855.73s-67.78-936.79-65.32-1062.91c2.46-126.12,29.41-792.68,56.34-945.8,26.93-153.13,35.93-693.59,35.93-954.81s89.28-1225.04,44.65-1414.21c-44.63-189.17-62.62-225.2-71.6-396.35-8.98-171.14-125.72-41.4-143.69-353.97-17.97-312.57-17.97-440.91,0-790.01l17.97-349.09h73.91Z"/>
          <path id="Path_902" data-name="Path 902" class="cls-6" d="M1728.32,7832s14.86-752.23,0-1012.81c-14.86-260.58,136.7-825.19,71.73-1140.04-64.97-314.85-37.29-705.74-72.78-1009.76-35.49-304.03,35.49-217.15,0-716.59-35.49-499.44,49.33-466.87,39.42-955.46-9.92-488.59-129.01-597.17-129.01-879.46s-75.79-488.6-64.97-792.61c10.82-304.01,155.95-249.72,121.29-553.74-34.67-304.03,51.93-586.28-45.49-781.73"/>
          <path id="Path_903" data-name="Path 903" class="cls-6" d="M1252.23,7826.42s-151.56-390.85-151.56-532.01,43.3-617.62,43.3-629.1,0-315.51,32.5-467.52c32.5-152.01-21.65-86.85,0-412.59,21.65-325.74,21.65-184.58,0-510.3-21.65-325.72-54.14-1368.07-75.79-1444.06-21.65-75.99,54.14-749.16,75.79-966.32,21.65-217.15-25.51-662.33-1.93-879.49,23.58-217.15-5.77-97.71-77.7-499.44-71.93-401.73-134.77-532.01-103.34-738.31,31.43-206.29,74.71-456.02,74.71-553.75s50.51-209.34,50.51-209.34l68.58,209.34s-93.84,152.02-68.58,358.31c25.26,206.29,111.88,597.17,133.53,977.17,21.65,380,227.32,608.03,151.55,1172.63-75.77,564.6-119.09,705.73-119.09,1085.76s32.47,314.86,0,770.88c-32.47,456.02,64.95,705.76-21.65,966.34-86.6,260.58-10.82,521.16-10.82,521.16,0,0,43.3,380.02,0,705.76-43.3,325.74-98.82,412.57-49.4,608.01,49.42,195.44,49.4,466.86,49.4,466.86"/>
          <path id="Path_904" data-name="Path 904" class="cls-6" d="M1470.71,5120.02c103.3,7.23,177.85,104.49,222.39,162.62,79.32,103.51,96.42,207.45,99.97,231.75,6.45,44.05,39.22,268.27-103.23,364.67-92.54,62.65-203.8,33.93-219.13,29.71-84.51-23.17-131.27-80.8-190.31-153.57-70.45-86.79-123.13-151.72-132.04-240.82-18.52-184.7,157.86-405.86,322.36-394.36"/>
          <path id="Path_905" data-name="Path 905" class="cls-4" d="M1470.71,5177.93c20.03,4.72,28.44,14.8,82.65,78.64,177.62,209.23,190.45,222.6,192.4,257.84,3.97,71.88-43.23,127.34-117.65,214.75-64.19,75.4-102.01,119.82-157.4,121.73-90.34,3.14-160.19-109.84-206.57-180.4-33.2-50.55-62.82-95.6-68.47-156.08-16.19-172.97,167.67-361.8,275.04-336.47"/>
          <path id="Path_906" data-name="Path 906" class="cls-6" d="M1470.66,5205.74c3.12,.73,6.21,1.77,9.25,3.09,13.29,6.21,25.84,21.07,66.54,69.03,138.81,163.51,167.87,196.58,174.52,222.78,.98,4.43,1.62,9.01,1.91,13.66,2.55,28.54-.89,87.39-107.88,196.95-71.87,73.57-107.78,110.37-144.33,111.63-77.7,2.69-137.81-87.76-189.43-165.46-39.26-59.09-61.77-92.97-62.79-143.14-1.22-59.11,32.83-103.58,100.95-192.55,31.16-40.73,99.68-128.61,151.27-116.02"/>
          <path id="Path_907" data-name="Path 907" class="cls-4" d="M1471.02,5247.67c2.78,.48,5.51,1.4,8.16,2.74,11.73,5.47,22.82,18.6,58.78,60.95,122.57,144.41,148.24,173.61,154.14,196.77,1.05,3.82,1.62,7.91,1.68,12.05,1.77,54.53-74.06,71.88-133.93,140.51-59.36,68.05-47.27,122.6-88.83,132.01-32.27,7.3-63.39-20.18-96.62-50.3-48.87-44.32-135.28-122.67-126.14-222.23,5.9-64.31,43.45-47.65,142.62-201.71,14.82-23,48.07-76.33,80.14-70.81"/>
          <path id="Path_908" data-name="Path 908" class="cls-6" d="M2189.04-10.22s-14.86,752.23,0,1012.81c14.86,260.58-136.7,825.19-71.73,1140.04,64.97,314.85,37.29,705.74,72.78,1009.76s-35.49,217.15,0,716.59c35.49,499.44-49.33,466.87-39.42,955.46,9.92,488.58,129.01,597.17,129.01,879.49s75.79,488.57,64.97,792.59c-10.82,304.01-155.95,249.72-121.29,553.75,34.67,304.03-51.92,586.27,45.49,781.73"/>
          <path id="Path_909" data-name="Path 909" class="cls-6" d="M2490.41,8714.76s-151.56-390.85-151.56-532.01,43.32-617.62,43.32-629.1,0-315.51,32.47-467.52c32.47-152.01-21.65-86.85,0-412.59s21.65-184.58,0-510.3c-21.65-325.72-54.14-1368.07-75.79-1444.06s54.14-749.16,75.79-966.32-25.51-662.33-1.93-879.49c23.58-217.15-5.77-97.71-77.7-499.44-71.93-401.73-134.77-532.01-103.35-738.31,31.42-206.3,74.7-456.02,74.7-553.75s50.51-209.34,50.51-209.34l68.58,209.34s-93.84,152.02-68.58,358.31c25.26,206.29,111.88,597.17,133.53,977.17,21.65,380,227.34,608.03,151.57,1172.63-75.77,564.6-119.09,705.74-119.09,1085.76s32.47,314.86,0,770.88c-32.47,456.02,64.95,705.76-21.65,966.34-86.59,260.58-10.82,521.16-10.82,521.16,0,0,43.3,380.02,0,705.76-43.3,325.74-98.82,412.56-49.4,608,49.42,195.44,49.39,466.87,49.39,466.87"/>
          <path id="Path_910" data-name="Path 910" class="cls-6" d="M1057.07,7826.42s14.86-752.23,0-1012.81c-14.86-260.58,136.7-825.19,71.73-1140.04-64.97-314.85-37.29-705.74-72.78-1009.76-35.49-304.03,35.49-217.15,0-716.59-35.49-499.44,49.33-466.87,39.42-955.46-9.92-488.58-129.01-597.17-129.01-879.46s-75.79-488.6-64.97-792.61c10.82-304.01,155.96-249.72,121.29-553.75-34.67-304.03,51.93-586.27-45.49-781.73"/>
        </g>
      </g>
    </g>
  </g>
</svg>