<?xml version="1.0" encoding="UTF-8"?>
<svg id="Layer_1" data-name="Layer 1" xmlns="http://www.w3.org/2000/svg" viewBox="0 0 50 50">
  <defs>
    <style>
      .cls-1 {
        fill: #c8b48a;
      }
    </style>
  </defs>
  <path class="cls-1" d="M1.5,17.53s-.34,2.32,.79,4.26c1.13,1.94,1.58,1.94,2.48,2.84s.45-.39,1.35,1.94c.9,2.32,8.35,5.55,8.35,5.55,0,0,1.47,4.91,5.08,5.04,3.61,.13,6.55-1.29,6.55-1.29,0,0,4.85-1.55,5.98-.26s2.94,2.34,3.61,1.56-.34-1.04,1.69-1.04,1.81,.52,2.82-.26,2.26-1.03,4.06-1.81,2.25,.39,2.87-1.16,1.64-3.36,.51-4.52-4.18-5.55-4.63-5.68-2.57-2.71-3.94-2.07-2.84-5.55-4.19-6.46-2.26-2.58-3.61-1.81c-1.35,.77-6.27-1.68-7.59-1.68s-5.44,1.55-5.44,1.55c0,0-3.33-.9-4.58-.65s-3.05,2.32-3.05,2.32c0,0-2.03-1.29-3.16,.26s-.68,1.42-2.48,2.2c-1.81,.77-3.5,1.16-3.5,1.16Z"/>
  <rect class="cls-1" x="4.32" y="24.8" width="5.65" height=".66"/>
  <rect class="cls-1" x="6.16" y="24.7" width="1" height="3.21" transform="translate(33.25 20.9) rotate(92.71)"/>
  <rect class="cls-1" x="1" y="17.53" width="5.65" height=".66"/>
  <rect class="cls-1" x="2.83" y="17.43" width="1" height="3.21" transform="translate(22.51 16.61) rotate(92.71)"/>
  <polygon class="cls-1" points="35 20.98 39.45 19.98 39.86 20.13 35.4 21.13 35 20.98"/>
  <polygon class="cls-1" points="38.11 19.82 38.69 20.05 36.07 20.59 35.49 20.35 38.11 19.82"/>
  <rect class="cls-1" x="14.49" y="34.49" width="5.65" height=".66" transform="translate(42.42 64.51) rotate(166.23)"/>
  <rect class="cls-1" x="17.02" y="31.95" width="1" height="3.21" transform="translate(-12.05 57.19) rotate(-101.06)"/>
  <rect class="cls-1" x="43.35" y="27.52" width="5.65" height=".66"/>
  <rect class="cls-1" x="46.2" y="27.09" width="1" height="3.21" transform="translate(77.57 -16.6) rotate(92.71)"/>
</svg>