<?xml version="1.0" encoding="UTF-8"?>
<svg id="Layer_1" data-name="Layer 1" xmlns="http://www.w3.org/2000/svg" viewBox="0 0 200 200">
  <defs>
    <style>
      .cls-1 {
        fill: #c8b48a;
      }
    </style>
  </defs>
  <g>
    <rect class="cls-1" x="1.68" y="52.27" width="36.45" height="108.52"/>
    <path class="cls-1" d="M38.08,52.29c.27-2.43-.4-4.94-2.27-6.8l-10-10c-2.1,0-4.21,0-6.32,0-1.83,0-3.66,0-5.48,0l-10,10c-1.86,1.86-2.54,4.37-2.27,6.8H38.08Z"/>
  </g>
  <g>
    <rect class="cls-1" x="55.62" y="52.27" width="36.45" height="108.52"/>
    <path class="cls-1" d="M92.02,52.29c.27-2.43-.4-4.94-2.27-6.8l-10-10c-2.1,0-4.21,0-6.32,0-1.83,0-3.66,0-5.48,0l-10,10c-1.86,1.86-2.54,4.37-2.27,6.8h36.34Z"/>
  </g>
  <g>
    <rect class="cls-1" x="107.75" y="52.27" width="36.45" height="108.52"/>
    <path class="cls-1" d="M144.14,52.29c.27-2.43-.4-4.94-2.27-6.8l-10-10c-2.1,0-4.21,0-6.32,0-1.83,0-3.66,0-5.48,0l-10,10c-1.86,1.86-2.54,4.37-2.27,6.8h36.34Z"/>
  </g>
  <g>
    <rect class="cls-1" x="161.55" y="50.54" width="36.45" height="108.52"/>
    <path class="cls-1" d="M197.94,52.29c.27-2.43-.4-4.94-2.27-6.8l-10-10c-2.1,0-4.21,0-6.32,0-1.83,0-3.66,0-5.48,0l-10,10c-1.86,1.86-2.54,4.37-2.27,6.8h36.34Z"/>
  </g>
</svg>