<?xml version="1.0" encoding="UTF-8"?>
<svg id="Layer_1" data-name="Layer 1" xmlns="http://www.w3.org/2000/svg" viewBox="0 0 50 50">
  <defs>
    <style>
      .cls-1 {
        fill: #c8b48a;
      }
    </style>
  </defs>
  <g>
    <rect class="cls-1" x="1" y="11.87" width="8.91" height="26.53"/>
    <path class="cls-1" d="M9.9,11.88c.07-.59-.1-1.21-.55-1.66l-2.45-2.45c-.51,0-1.03,0-1.54,0-.45,0-.89,0-1.34,0l-2.45,2.45c-.46,.46-.62,1.07-.55,1.66H9.9Z"/>
  </g>
  <g>
    <rect class="cls-1" x="14.19" y="11.87" width="8.91" height="26.53"/>
    <path class="cls-1" d="M23.09,11.88c.07-.59-.1-1.21-.55-1.66l-2.45-2.45c-.51,0-1.03,0-1.54,0-.45,0-.89,0-1.34,0l-2.45,2.45c-.46,.46-.62,1.07-.55,1.66h8.88Z"/>
  </g>
  <g>
    <rect class="cls-1" x="26.93" y="11.87" width="8.91" height="26.53"/>
    <path class="cls-1" d="M35.83,11.88c.07-.59-.1-1.21-.55-1.66l-2.45-2.45c-.51,0-1.03,0-1.54,0-.45,0-.89,0-1.34,0l-2.45,2.45c-.46,.46-.62,1.07-.55,1.66h8.88Z"/>
  </g>
  <g>
    <rect class="cls-1" x="40.09" y="11.45" width="8.91" height="26.53"/>
    <path class="cls-1" d="M48.99,11.88c.07-.59-.1-1.21-.55-1.66l-2.45-2.45c-.51,0-1.03,0-1.54,0-.45,0-.89,0-1.34,0l-2.45,2.45c-.46,.46-.62,1.07-.55,1.66h8.88Z"/>
  </g>
</svg>