<?xml version="1.0" encoding="UTF-8"?>
<svg id="Layer_1" data-name="Layer 1" xmlns="http://www.w3.org/2000/svg" viewBox="0 0 50 50">
  <defs>
    <style>
      .cls-1 {
        fill: #c8b48a;
      }
    </style>
  </defs>
  <path class="cls-1" d="M29.38,7.2c-.47-.83-1.46-.46-4.45-.53-2.45-.06-3.9-.35-4.29,.53-.11,.25-.1,.48-.09,.57,.31,2.98-.36,6.04,.14,9,.42,2.53,.65,8.53-.05,23.22h8.74c-.32-4.27-.36-7.76-.33-10.21,.04-3.83,.24-4.48,.31-10.05,.04-3.32-.04-4.94,.09-7.21,.04-.73,.02-1.31,.05-3.1,.03-1.77,.03-1.97-.12-2.23Z"/>
  <path class="cls-1" d="M48.86,6.79c-1.33-.14-2.82-.22-4.44-.2-1.56,.02-3,.13-4.29,.28-.43,5.66-.5,10.29-.49,13.57,0,1.11,.02,2.27,.17,8.01,.13,4.8,.23,8.75,.31,11.47h8.74c-.32-4.27-.36-7.76-.33-10.21,.04-3.83,.24-4.48,.31-10.05,.04-3.32-.04-4.94,.09-7.21,.02-.43,.08-1.57,.05-3.1-.02-1.08-.08-1.97-.13-2.57Z"/>
  <path class="cls-1" d="M10.22,6.79c-1.33-.14-2.82-.22-4.44-.2-1.56,.02-3,.13-4.29,.28-.43,5.66-.5,10.29-.49,13.57,0,1.11,.02,2.27,.17,8.01,.13,4.8,.23,8.75,.31,11.47H10.23c-.32-4.27-.36-7.76-.33-10.21,.04-3.83,.24-4.48,.31-10.05,.04-3.32-.04-4.94,.09-7.21,.02-.43,.08-1.57,.05-3.1-.02-1.08-.08-1.97-.13-2.57Z"/>
  <polygon class="cls-1" points="5.68 12.2 44.32 12.2 44.32 16.15 32.4 16.15 27.05 16.15 16.02 15.71 5.68 16.15 5.68 12.2"/>
  <polygon class="cls-1" points="3.96 31.6 42.61 31.6 42.61 35.55 30.68 35.55 25.34 35.55 14.31 35.11 3.96 35.55 3.96 31.6"/>
  <polygon class="cls-1" points="44.32 26.3 5.68 26.3 5.68 22.35 17.6 22.35 22.95 22.35 33.98 22.79 44.32 22.35 44.32 26.3"/>
</svg>