<?xml version="1.0" encoding="UTF-8"?>
<svg id="Layer_1" data-name="Layer 1" xmlns="http://www.w3.org/2000/svg" xmlns:xlink="http://www.w3.org/1999/xlink" viewBox="0 0 3000 2000">
  <defs>
    <style>
      .cls-1 {
        fill: url(#linear-gradient-2);
      }

      .cls-1, .cls-2, .cls-3 {
        isolation: isolate;
        opacity: .4;
      }

      .cls-2 {
        fill: url(#linear-gradient);
      }

      .cls-3 {
        fill: #914e26;
      }
    </style>
    <linearGradient id="linear-gradient" x1="-1.03" y1="2002.48" x2="-1.03" y2="2001.3" gradientTransform="translate(865.49 1431706.35) rotate(-180) scale(2059.16 714.98)" gradientUnits="userSpaceOnUse">
      <stop offset="0" stop-color="#653317"/>
      <stop offset="1" stop-color="#914e26"/>
    </linearGradient>
    <linearGradient id="linear-gradient-2" x1="-1.29" y1="2001.36" x2="-1.29" y2="2000.17" gradientTransform="translate(2633.64 1431706.35) scale(2059.16 -714.98)" xlink:href="#linear-gradient"/>
  </defs>
  <g id="Group_727" data-name="Group 727">
    <path id="Path_832" data-name="Path 832" class="cls-3" d="M2749.54,602.83c10.85-2.53,22.33-3.09,33.34-5.22,40-7.73,59.8-21.07,72.81-63.91,10.15-33.44,20.79-66.56,16.38-101.58-.86-6.88-.88-13.85-1.27-20.61-.96-.09-1.92-.08-2.87,.02-24.9,48.56-72.95,77.46-124.47,103.39-7.28,3.67-14.22,8.11-22.02,10.69-13.61,4.5-19,12.65-20.26,24.39-2.12,19.73-5.41,39.37-7.76,59.1-.35,3.01,1.76,6.24,2.74,9.36-2.13,5.14-4.61,10.18-6.31,15.4-7.62,23.29-14.82,46.68-22.66,69.91-1.77,5.28-5.28,10.17-8.31,15.1-2.75,4.48-5.92,8.76-8.89,13.13,37.68-60.51,33.12-127.6,45.67-193.82-34.36,15.98-58.37,37.01-70.86,66.34-6.67,15.68-10.84,32.11-17.6,47.76-8.71,20.19-18.89,39.94-28.44,59.86,10.33-31,23.07-61.04,33.45-91.66,12.69-37.43,37.64-66.27,77.53-86.03,3.15-1.56,7.34-3.36,8.45-5.85,5.73-12.92,10.63-26.09,17.13-42.53-24.34,17.45-46.89,31.5-66.42,48.07-34.79,29.55-63.3,63.69-68.38,105.94-5.82,48.38-24.36,91.93-57.1,131.22-15.66,18.79-21.79,39.16-23.85,61.25-1.29,13.74-3.55,27.41-5.38,41.11l-2.96-.3c2.98-24.16,5.97-48.33,8.09-65.39-11.93,8.54-29.08,20.35-45.55,32.78-27.73,20.92-58.45,39.64-74.5,69.55,8.29-24.02,28.07-40.76,49.22-56.72,82.65-62.42,141.99-135.04,143.03-234.37-21.57,19.41-47.74,31.44-77.54,37.8-16.48,3.52-33.42,5.83-49.47,10.36-8.7,2.46-18.03,7.09-23.51,13.06-14.29,15.55-26.62,32.37-39.74,48.68l-2.47-1.22c12.65-17.61,25.31-35.21,40-55.66-18.9,7.62-34.66,13.97-50.44,20.33l-1.49-2.61c16.67-7.03,33.33-14.06,50-21.08,3.75-1.57,8.75-2.35,11.07-4.86,27.03-29.07,35.3-61.94,27.56-101.3l-65.59,37.16c-.14-1.85-.58-2.82-.18-3.3,1.39-1.64,2.91-3.16,4.55-4.54,22.85-19.56,39.16-42.7,52.11-67.63,2.01-3.85,3.75-8.32,3.5-12.41-2.11-36.11-3.2-72.07,11.89-105.87-21.82,7.34-42.85,16.91-65.32,21.24-20.52,3.95-37.92,11.04-51.12,23.48-14.33,13.5-26.7,28.7-37.91,44.2-12,16.58-21,34.67-32.46,51.56-14.59,21.53-33.77,38.73-50.2,46.43,25.69-19.53,43.64-43.64,58.64-69.46,19.63-33.81,37.38-68.69,79.99-92.29-39.73-2.26-73.23,4.32-104.99,17.15-48.58,19.63-91.84,45.59-128.91,78.69-11.97,10.69-23.45,22.04-36.96,31.21-12.76,8.66-27.91,14.86-42,22.16l-2.61-3.49c31.59-9.64,52.02-30.57,74.72-49.63,23.98-20.16,50.14-38.5,75.51-57.47,1.88-1.41,5.08-1.55,7.67-2.28-18.59-3.82-33.59-5.29-48.17-8.27-18.79-3.83-37.17-9.07-55.86-13.33-11.38-2.59-21.83-2.11-31.23,5.77-6.04,5.07-14.3,8.28-21.57,12.31,2.72-4.08,6.74-6.51,10.6-9.09,4.18-2.78,8.23-5.7,14.64-10.18l-17.34-.95q24.11-3,39.22-17.73c33-32.18,55.25-72.47,102.28-93.59-21.55-8.47-40.3-6.01-60.51,1.96-18.66,7.36-39.85,10.23-59.92,15.08l-.45-1.74c25.44-7.32,50.89-14.64,76.33-21.96-19.91-10.26-39.24-16.6-57.09-25.14-29.29-13.98-58.59-13.47-88.51-3.05-15.26,5.32-29.76,12.2-45.12,17.28-12.74,4.22-26.24,6.83-39.4,10.16l-1.12-3.21c47.99-6.16,84.99-39.16,136.4-37.42-13.21-7.75-26.82-14.8-40.77-21.12-30.93-13.95-63.45-17.62-97.4-9.17-16.75,4.17-33.32,8.88-50.06,13.1-32.93,8.31-56.93,9.52-82.43,3.99,37.44,3.45,72.57-4.67,106.59-15.89,53.82-17.75,102.79-10.77,151.24,14.47,30.34,15.81,63.76,27.45,95.91,40.79,16.81,6.97,32.3,6.05,49.22-2.34,33.77-16.73,70.22-25.31,110.1-18.45,4.5,.56,9.05-.44,12.9-2.85,46.63-33.83,92.94-67.97,139.86-102.42-16.76-6.12-28.88-2.9-39.57,6.88-4.74,4.35-10.78,7.72-16.36,11.39-37.88,24.86-79.92,36.48-128.44,30.31-48.34-6.15-96.72-16.03-146.05-3.94,12.56-3.75,25.4-8.23,38.06-7.92,34.79,.86,69.82,1.96,104.18,6.21,62.41,7.73,110.82-12.3,152.76-48.1-17.88-6.82-35.02-13.42-52.23-19.88-15.94-5.98-32.01-11.72-47.95-17.69-21.24-7.95-42.06-5.45-61.28,3.7-15.53,7.39-29.52,17.06-44.2,25.71-4.09,2.41-8.22,4.8-12.32,7.2l-2.54-3.37c24.57-13.9,49.14-27.81,73.37-41.52-1.15-.12-3.37-.48-5.6-.56-67.2-2.31-131.77,6.54-192.8,31.37-15.32,6.43-31.03,11.88-47.04,16.3-25.99,6.87-60.19,4.19-77.61-4.51,45,7.39,63.84,5.54,104.33-10.44,10.69-4.22,21.03-9.07,31.84-13.04,101.76-37.23,203.4-42.86,304.95,.77,8.35,3.58,17.77,5.36,26.38,8.56,19.74,7.34,33.87,.7,46.86-12.79-8.78-1.43-16.81-2.13-24.39-4.06-32.97-8.42-65.68-17.57-98.78-25.62-12.24-2.96-24.76-4.63-37.35-4.97-20.72-.54-41.51,.74-62.28,.77-9.43,.02-19.82,.88-28.16-1.97-32-10.95-62.45-25.49-95.13-34.45-40.09-10.98-81.82-21.51-123.07-1.22-.18,.09-.76-.41-1.8-.99l17.68-10.64c-9.67,.38-15.74,.67-21.83,.85-45.73,1.36-89.76,10.03-133.34,21.13-25,6.37-50.55,9.2-76.5,2.18,36.7,4.2,70.36-6.34,105.04-13.37,36.58-7.43,73.93-13.88,111.33-16.4,56.56-3.8,113.05,.4,164.32,23.24,49.98,22.26,102.5,24.92,155.73,15.8,35.41-6.06,69.64-17.31,104.09-27,37.55-10.58,75.46-14.65,114.37-6.89,29.85,5.95,59.68,12,89.19,18.97,9.87,2.34,17.16,2.11,26.19-2.61,78.75-41.2,163.96-55.64,255.42-41.3,29.37,4.61,41.92-.84,47.38-25.65,3.58-17.14,5.58-34.57,5.97-52.07,3.39-102.88,4.22-241.84,6.47-344.74,.28-13.08-3.56-38.83,9.35-41.95,34.88-8.45,92.2,1.16,127.08,9.63,18.75,4.54,13.87,16.01,13.85,32.32-.08,121.21-.94,281.83-1.3,403.04-.02,8.38,3.13,13.96,10.64,19.25,29.31,20.67,62.92,33.62,100.16,39.81,42.15,7.01,84.44,13.38,126.73,19.81,8.19,1.25,16.6,1.7,24.93,2.15,28.67,1.54,57.71,1.08,85.97,4.78,44.65,5.84,86.83,2.99,125.42-17.69,75.79-40.64,157.7-46.03,242.74-29.23,21.28,4.2,40.46,3.44,61.03-.59,22.25-4.35,45.04-6.67,67.59-9.88l.2,1.41c-30.5,5.26-61.02,10.52-91.53,15.77,50.6,19.7,97.22,50.52,157.38,30.36-2.62,1.98-5.59,3.46-8.76,4.34-36.61,11.12-71.61,6.79-105.42-7.98-55.03-24.05-113.99-33.03-175.43-32.04-32.99,.54-64.74,6.14-94.31,18.97-2.37,1.13-4.67,2.41-6.87,3.85,17.75,3.6,36.27,5.5,53.04,11.09,42.13,14.04,80.54,36.55,128.14,37.88-28.84,1.94-55.51-3.89-81.17-13.88-18.85-7.33-37.49-15.2-56.87-21.42-22.58-7.24-47.22-10.77-68.98-.99-27.79,12.48-54.64,25.96-86.72,29.45,37.59,29.5,73.67,58.53,110.81,86.6,13.97,10.55,29.97,19.34,45.71,28.09,55.99,31.15,114.23,33.85,172.76,6.23,31.22-14.73,61.31-31.42,90.47-48.91,41.34-24.8,84.84-33.22,133.82-19.27,35.4,10.07,71.11,19.54,109.55,17.09-14.83,2-29.89,3.59-44.25,1.63-21.81-2.85-43.4-7.22-64.6-13.1-48.63-13.83-91.24-5.95-132.08,19.33-31.87,19.73-66.21,36.64-99.42,54.86-1.28,.7-2.11,1.97-4.01,3.83,33.13,3.58,57.43,18.29,79.75,36.01,28.4,22.53,56.26,45.69,94.5,56.93-1.86,.32-3.77,.23-5.6-.25-30.4-7.39-54.38-23.22-77.26-40.8-14.27-10.97-28.47-22.33-44.47-31.33-25.17-14.15-52.15-20.55-83.13-11.15-15.12,4.59-32.48,5.68-48.77,5.44-36.84-.53-69.09-13.85-97.42-32.15-30.26-19.54-57.71-42.14-87.07-62.71-22.77-15.95-45.46-32.33-70.28-45.78-24.43-13.24-53.24-16.1-85.44-16.16l41.35,24.11c-32.34-15.13-63.27-33.58-101.09-16.72,16.99,8.42,36.54,15.49,52.21,26.47,25.68,17.98,49.72,37.82,72.81,58.18,20.51,18.09,38.58,38.12,58.12,57.01,30.69,29.63,69.55,44.12,116.38,43.75,19.37-.16,38.79-.31,58.12,.61,25.13,1.2,49.1,6.51,70.79,17.83-8.57-1.6-16.74-5.35-25.25-6.01-35.61-2.78-71.31-6.03-107.03-6.49-45.29-.59-82.92-14.04-113.55-41.49-14.22-12.74-27.25-26.4-40.84-39.63-30.02-29.24-60.97-57.7-100.4-78.37-42.87-22.47-87.73-29.5-136.94-10.47,33.93,15.95,58.43,39.26,80.74,64.5,2.07,2.32,5.8,4.1,9.18,5.05,31.61,8.84,55.95,26.12,77.22,46.85,17.6,17.15,34.4,34.89,52.28,51.83,24.73,23.42,51.95,43.93,89.99,51.12,7.25,1.37,13.71,5.48,20.92,7.18,11.95,2.83,24.27,6.83,36.34,6.62,32.19-.54,63.04,3.14,92.81,13.59,61.03,21.43,111.38,54.83,154.47,96.54,21.43,20.75,44.22,40.09,76.35,49.12-42.51-6.12-66.47-34.02-94.94-59.08l24.76,72.1c-8.77-15.47-12.91-32.2-20.34-47.82-6.88-14.48-14.04-30.53-26.76-41.02-31.84-26.28-69.9-45.94-111.2-60.59-29.59-10.72-61.16-14.9-92.53-12.24,14.09,13.18,31.2,24.74,41.39,39.65,23.79,34.82,44.25,71.26,66.06,107.04-7-6.49-14.03-13.28-18.9-21.03-12.14-19.29-22.26-39.52-35.13-58.43-10.93-16.08-22.92-32.1-37.61-45.73-10-9.29-24.7-18.77-38.64-20.5-30.96-3.83-57.97-13.56-83.72-27.34-2.83-1.48-5.84-2.6-8.95-3.34-21.45-5.19-42.97-10.26-64.23-15.32,9.18,19.74,18.9,40.69,28.72,61.6,.81,1.51,1.96,2.81,3.36,3.8,25.84,19.25,41.29,44.38,54.35,70.39,6.95,13.85,17.78,22.88,33.33,28.92,21.43,8.31,43.06,16.32,64.21,25.14,21.41,8.92,40.4,20.71,55.22,36.92-37.88-30.9-88.63-41.13-135.28-59.13l34.16,45.28-3.75,1.98c-12.05-15.88-24.1-31.74-36.17-47.6-3.27-4.31-5.67-9.56-10.13-12.7-27.7-19.51-45.56-44.62-57.3-72.64-5.7-13.58-15.6-22.28-30.2-27.96-11.96-4.66-24.16-9-36.58-12.7-26.7-7.96-53.6-15.43-80.45-23.05-2.77-.78-5.66-1.3-9.92-2.25,1.34,3.4,2.01,5.25,2.79,7.06,16.37,38.22,42.55,70.43,80.24,96.36,51.09,35.16,92.86,76.87,108.64,131.93,10.98,38.32,36,65.6,74.75,85.6,16.51,8.52,33.91,16.07,49.23,25.89,16.51,10.61,31.05,23.38,46.45,35.21-20.9-11.65-39.29-25.76-59.99-36.82-37.69-20.14-79.12-36.05-101.67-71.91-.77,4.44-.74,8.98,.07,13.41,5.32,35.19,19.92,67.66,40.64,98.38,27.25,40.4,60.26,76.87,101.55,107.96,21.95,16.52,40.28,35.32,48.2,60.05-19.7-40.27-63.76-62.35-95.93-93.22,4.27,29.5,8.44,58.35,12.61,87.21l-3.54,.36c-1.78-13.71-4.1-27.36-5.26-41.1-2.35-27.87-11.29-52.92-31.87-76.08-40.32-45.35-71.55-95.03-77.22-152.65-4.2-42.7-24.81-79.19-55.37-111.53-20.66-21.87-46.68-40.17-70.31-60.06l-3.63,2.58c28.52,51.84,13.39,110.73,38.62,163.19-5.69-9.32-11.12-18.8-13.13-28.77-5.44-26.98-9.54-54.16-13.92-81.29-4.34-26.82-11.77-53.42-35.15-72.72-31.1-25.66-50.14-56.4-63.4-90.33-3.14-8.06-7.86-13.43-17.01-17.51-33.59-14.94-62.79-34.8-81-63.16-12.47-19.4-20.61-40.74-30.98-61.12-1.87-3.7-4.18-8.64-7.87-10-12.28-4.51-25.27-7.65-39.74-11.81,3.76,6.77,6.57,12.13,9.66,17.38,29.93,50.96,60.81,101.91,75,157.74,6.56,25.81,20.46,43.25,44.7,59.15,50.46,33.12,88.45,74.78,108,127.02,13.03,34.79,18.21,70.63,19.14,106.88,.92,36.52,16.17,68.49,43.45,96.06,17.47,17.66,37.56,33.51,57.06,49.69,25.09,20.85,46.6,43.8,62.09,70.54,1.36,2.36,2.1,4.96,3.66,8.74-13.77-16.36-24.92-32.25-39.16-45.85-19.63-18.75-41.39-35.94-62.62-53.48-25.21-20.85-46.38-43.94-58.94-72.07-1.14-2.25-2.39-4.45-3.76-6.57-4.2,31.63-7.03,62.83-7.09,94.04-.08,46.95,19.41,88.57,53.57,125.49,14.79,16,29.69,31.94,44.15,48.15,22.02,24.68,38.85,51.69,49.51,81.25,4.15,11.5,7.07,23.31,10.54,34.99-17.78-50.97-71.56-129.56-102.54-146.14,13.8,46.11-9.8,91.08-5.73,136.68-.46-26.84,.94-53.68,4.19-80.33,3.73-32.49,.89-62.88-24.53-90.23-20.61-22.18-31.82-48.54-37.26-76.45-.66-3.38-1.69-6.72-2.55-10.07-2.93,14.18-5.69,28.45-2.31,41.63,5.44,21.21,15.31,41.59,22.54,62.5,5.13,14.84,8.98,29.99,13.42,45-10.49-23.2-19.07-46.65-29-69.67-9.81-22.72-15.78-45.65-13.06-69.97,3.04-27.19,6.25-54.4,8.03-81.66,1.94-29.74,4.03-59.58,3.04-89.31-1.84-55.58-15.24-108.81-53.54-155.77-25.63-31.42-58.59-56.51-94.21-79.35-6.3,23.83-11.94,46.68-18.55,69.32-2.14,7.34-.99,12.23,5.44,17.91,39.62,35.01,60.31,77.07,65.32,125.11,4.92,47.09-1.51,93.61-7.59,140.23-.78,6.04-.51,12.88,2.07,18.42,20.5,44.17,29.19,90.25,33.46,137.21,.6,6.73,3.85,13.59,7.4,19.78,14.31,24.93,29.33,49.59,43.82,74.46,1.79,3.06,2.01,6.76,2.96,10.16-13.06-28.44-30.08-54.89-50.55-78.57-7.22,37.45-14,74.97-21.83,112.36-5.56,26.62-6.62,52.88,3.33,78.93,2.12,5.51,4.11,11.06,6.16,16.58-18.6-28.53-24.48-59.11-17.76-90.76,8.96-42.27,18.91-84.39,15.59-127.66-.4-5.33-1.63-11.28-4.92-15.65-28.51-38.02-36.07-79.67-31.44-123.56,1.4-13.18-10.02-36-20.27-43.28,0,26.27,2.14,54.44-.49,82.29-4.12,43.86-16.15,87.28-8.66,131.68,1.03,6.09,1.83,12.21,2.74,18.32-10.24-27.83-12.74-56.23-9.46-84.88,3.18-27.67,8.2-55.2,10.97-82.9,3.95-39.58-2.75-76.97-28.9-111.84-13.33-17.77-22.41-38.62-28.81-59.1-15.41-49.37-13.09-99.22,1.84-148.57,10.18-33.63,21.37-67.59,13.48-102.23-7.33-32.21-19.69-63.61-29.99-95.33-.85-2.61-2.85-4.97-4.85-8.36-2.92,17.16-4.64,32.98-8.43,48.44-11.53,47.13-36.6,89.96-60.52,133.19-7.55,13.84-13.74,28.38-18.49,43.42-26.81,83.43-12.86,162.65,35.3,238.45,15.78,24.85,30.86,50.1,44.23,75.92,26.5,51.16,40.16,120.96,33.18,163.62,4.57-99.42-51.75-181.6-105.61-266.39l-3.63,31.38c6.77-36.38-14.16-68.3-23.7-105.45-17.25,59.22-50.13,111.42-56.78,170.12-.65-6.84-1.22-13.73,.74-20.08,10.05-32.61,19.96-65.27,31.44-97.52,10.81-30.42,25.07-60.11,20.99-92.86-1.14-9.08-2.09-18.18-2.8-27.28-2.26-28.82,9.83-55.3,17.76-82.68,18.57-64.13,32.02-129.11,35.05-195.29,3.16-69.21-10.27-135.37-52.78-195.92-2.72-3.88-6.3-7.31-10.17-11.73-35.01,24.33-65.08,50.24-91.19,79.83-27.41,31.07-35.26,65.19-23.98,101.45,9.14,29.42,21.78,58.25,35.5,86.44,22.73,46.75,36.39,94.36,27.94,145.31,4.67-52.24-13.06-100.32-37.36-147.28-17.66-34.14-35.44-68.33-38.91-106.45-2.09,4.9-3.88,9.83-3.71,14.71,1.17,33.33,2.04,66.68,4.36,99.96,3.13,45.18,1.58,90-15.83,133.16-10.46,25.92-10.31,51.37-3.32,77.37,10.82,39.34,12.41,80.66,4.65,120.71-11.56,59.83-37.28,114.64-79.37,164-18.03,21.14-33.38,43.54-36.9,70.04-1.69,12.65-1.78,25.44-2.53,37.08-7.66-40.39,4.47-77.54,33.63-111.39,10.34-12.09,19.64-25.04,27.8-38.71,9.83-16.4,17.82-33.57,26.59-50.4l-2.25-.63c-23.94,17.33-47.88,34.66-71.82,52l-2.48-2.37c15.14-11.01,29.96-22.33,45.47-32.96,22.22-15.23,36.93-33.38,45.01-57.37,20.53-60.89,5.6-119.55-10.53-177.5-34.97,30.59-71.45,61.05-105.76,93.15-16.9,15.83-30.98,34.09-44.16,52.36-21.68,30.06-30,63.09-26.15,98.3,4.42,40.5,19.37,78.66,38.85,115.29,25.68,48.3,27.4,95.57,1.57,144.01-16.19,30.37-26.96,62.17-26.6,96-6-37.47,8.03-71.7,24.76-105.15,21.28-42.48,19.28-83.62-1.95-125.93-15.72-31.36-27.08-64.28-40.05-96.6-2.53-6.31-3.55-13.04-4.89-18.17-12.77,16.66-23.9,34.27-38.47,49.57-28.95,30.39-63.57,57.18-81.76,94.34-.31-1.99,0-4.02,.91-5.82,11.51-26.64,31.51-48.62,53.39-69.7,13.03-12.57,26.15-25.19,37.55-38.78,14.29-17.03,25.65-35.98,25.11-57.26-.93-35.91,11.39-68.05,33.57-98.13,23.59-32.01,53.85-59.26,85.79-85.36,11.69-9.57,22.74-19.69,34.09-29.57-38.11,7.03-75.27,13.9-112.43,20.75,15-4.21,29.84-8.93,45.05-12.48Zm-658.53-163.06c25.86,5.96,52.01,12.53,78.49,17.91,23.1,4.7,45.31,3.38,66.87-7.28,39.35-19.45,81.77-30.28,128.12-29.39,9.34,.19,19.03-3.32,28.16-6.06,11.07-3.31,21.89-7.35,32.51-11.61,13.51-5.41,28.78-9.4,39.63-17.49,25.24-18.79,48.27-39.65,71.03-61.39-42.27,10.92-83.73,9.69-124.82,.5-26.84-6-53.27-13.52-79.43-21.46-9.49-2.87-16.14-2.32-24.58,2.21-25.3,13.59-52.95,21.4-82.9,25.84-16.23,2.4-32.06,11.3-45.78,19.85-12.66,7.9-23,18.75-33.04,29.2-18.62,19.41-36.28,39.47-54.25,59.18h0Zm710.77-156.79c-1.41,1.91-2.69,3.9-3.85,5.97-16.83,34.82-45.38,61.19-83.84,79.64-20.84,9.99-42.82,18.39-64.77,26.61-9.2,3.45-15.75,7.42-19.23,15.76-5.79,13.83-13.32,27.14-19.3,40.93-20.2,46.64-55.63,81.33-112.59,96.96-26.81,7.35-40.92,17.34-35.54,43.2,2.38,11.44-2.27,24.49-6.43,36.13-4.12,11.56-11.67,22.25-18.21,34.24,49.63-8.99,99.38-16.03,133.65-51.64,3.22-3.34,6.43-6.94,8.36-10.86,19.01-38.66,46.93-72.67,87-96.79,67.34-40.54,100.33-97.44,119.84-162.11,5.78-19.13,11.22-38.32,16.82-57.49l-1.9-.54h0Zm-474.87,13.02c58.31,17.72,114.73,35.09,176.5,23.32,27.48-5.25,52.29-14.66,73.39-31.52,12.07-9.64,27.36-16.94,42.46-23.17,10.15-4.1,19.44-10.05,27.4-17.57,20.72-19.22,43.1-37.16,64.7-55.52-27.9-4.45-58.55-11.62-89.63-13.35-16.19-.9-33.19,7.68-49.75,12.16-4.72,1.27-9.19,3.19-15.04,2.27l41.26-16.52c-2.13-.95-3.42-2-4.79-2.09-58.89-3.85-112.94,6.18-158.06,40.19-22.51,16.97-43.92,34.94-66.28,52.04-12.88,9.86-26.68,18.87-42.17,29.75h0Zm468.02-45.25c-24.8,3.58-49.92,6.08-74.34,11-29.75,5.99-59.1,13.53-88.2,21.47-6.83,1.86-13.44,7.18-17.68,12.33-10.71,13.04-19.83,26.98-29.93,40.4-22.88,30.41-53.59,51.85-96.37,59.95-5.07,.95-10.96,4.99-13.31,8.92-18.33,30.59-20.78,63.51-17.09,97.67,2.26-3.58,4.76-7.05,6.75-10.73,21.86-40.38,58.93-66.07,108.5-79.88,15.67-4.37,31.51-8.52,46.62-14.05,6.19-2.49,11.55-6.69,15.42-12.12,16.6-23.47,30.66-48.35,48.86-70.86,24.18-29.91,59.08-48.53,100.77-57.9,3.58-.81,7.07-1.93,10.59-2.91l-.59-3.29h0Zm89.53-30.43c-28.04,6.98-42.27,24.65-49.57,47.18-9.54,29.46-18.18,59.13-28.31,88.45-14.24,41.25-30.39,81.55-66.88,114.06-16.05,14.31-24.89,33.16-31.44,55.64,74.03-35.89,141.31-72.54,155.87-148.33,1.37-7.8,1.61-15.76,.72-23.63-4.43-44.81-2.53-88.86,19.54-130.85,.26-.81,.29-1.69,.07-2.51h0Zm580.46,179.4c-14-24.8-21.13-53.31-45.35-75.43-12.03-10.99-23.35-23.32-31.24-36.61-19.78-33.26-54.01-48.4-94.04-57.44-4.08-.92-8.29-1.48-12.47-2.08-.79-.11-1.71,.42-5.13,1.34,12.42,39.18,24.68,78.52,37.62,117.7,1.15,3.47,6.09,7.05,10.31,8.64,14.18,5.37,28.72,10.12,43.34,14.62,32.08,9.86,64.29,19.42,96.96,29.26h0Zm-277.38,131.59c-29.41,94.78-6.89,177.93,64.23,253.19,1.49-11.01,3.34-22.03,4.41-33.09,4.95-51.27,7.02-102.35-15.4-151.66-11.44-25.15-28.86-47.01-53.24-68.43h0Zm-564.33-127.38c-23.66,7.08-46.96,13.47-69.73,21.01-50.16,16.6-77.1,51.33-94.7,91.32-4.91,11.15,.52,25.49,1.17,37.7,97.9-17.01,140.84-75.13,163.26-150.03h0Zm299.23-332.36c-76.28-39.79-169.26-29.19-270.36,19.58,94.54,37.24,183.13,18.61,270.36-19.58h0Zm-466.13,95.89c15.2-.82,31.06,.44,45.46-2.85,50.37-11.52,100.6-10.83,151.74-4.52,44.53,5.5,86.06-5.98,126.68-20.7-52.39-.29-99.6-16.75-147.96-29.59-8.18-2.17-20.17-.57-27.75,3.13-37.52,18.34-75.72,33.66-120.05,36.77-10.24,.72-19.72,8.97-29.54,13.76l1.43,4h0Zm-122.7-54.53c45.48,9.88,89.41,19.66,133.54,28.65,5.02,1.02,12.18-1.13,16.83-3.73,29.93-16.71,60.61-31.98,97.47-39.89-85.31-27.45-165.89-15.43-247.85,14.96h0Zm847.04,102.63c16.11,52.17,46.48,93.86,101.8,121.63,.51-1.34,1.37-2.36,1.14-3.16-10.03-33.4-20.35-66.75-30.12-100.22-2.38-8.1-7.29-11.77-17.21-12.54-18.14-1.4-36.2-3.67-55.6-5.71h0Zm-390.79,54.7c-77.52,16.48-116.24,63.58-148.6,120.48,69.97-24.06,124.63-57.31,148.6-120.48h0Zm283.23,215.2c1.83-2.34,3.52-4.77,5.07-7.3,23.08-42.29,44.16-85.11,50.21-131.99,5.64-43.66-4.15-84.25-35.03-123.22,16.37,90.23-2.34,176.09-20.25,262.51Zm-219.56-298.85c-33.96,10.01-68.46,12.18-103.65,10.12-5.38-.31-11.19,1.35-16.43,2.96-33.32,10.25-58.83,29.1-82.72,53.47,55.66-10.61,108.66-21.02,161.84-30.74,23.38-4.27,28.7-22.42,40.96-35.82h0Zm-153.33-19.94c97.23,23.36,172.91-5.85,240.01-65.71-6.5,2.13-10.19,3.19-13.72,4.5-37.24,13.89-75.26,25.68-115.96,30.25-3.25,.22-6.44,1.03-9.41,2.37-28.56,15.16-60.21,22.51-93.2,26.66-2.61,.51-5.18,1.16-7.72,1.94h0Zm415.1-115.89c7.51,6.33,14.61,13.03,22.56,18.91,25.15,18.52,50.42,36.92,75.83,55.19,2.95,2.13,7.4,5.13,10.33,4.58,37-6.9,73.85-14.37,110.74-21.7l-.27-3.1c-37.83-5.29-75.8-10.06-113.5-16.03-38.13-6.04-72.78-19.15-102.81-40.34l-2.88,2.5h0Zm-27.41,85.55c6.35,7.82,9.73,14.27,15.39,18.63,36.57,28.14,81.48,38.44,134.14,42.22-12.49-14.37-22.9-26.68-33.89-38.6-1.52-1.64-5.97-2.02-9.01-1.93-34.83,1.04-67.35-5.96-98.14-19.32-1.07-.47-2.53-.33-8.49-.99h0Zm-482.03,157.38c-52.46,22.52-76.57,66.74-121.28,94.85,40.82,1.92,92.17-38.56,121.27-94.85h0Zm789.3-27.24c14.63,21.9,27.32,44.97,44.55,65.31,12.87,15.2,35.63,19.47,59.72,24.02-35.43-31.7-68.75-61.53-102.08-91.36l-2.19,2.02h0Zm-1099.09,30.4c-25.58-11.52-81.12,2.18-114.55,21.79,43.15,5.89,79.26-4.41,114.55-21.79Zm1031.16-84.45c-23.65-24.02-47.76-42.72-82.03-54.22,7.91,14.87,14.69,27.99,22,40.92,.93,1.65,4.41,2.73,6.94,3.24,16.43,3.25,32.92,6.27,53.1,10.06h0Zm-73.65,611.59c-5.25,40.05,2.52,75.34,26.37,110.23,2.22-27.25-11.93-86.74-26.36-110.23h0Zm-158.07-718.92c21.61,10.53,43.45,19.88,68.08,23.69l2.12-2.96-80.46-47.8c-3.91,13-2.54,20.84,10.27,27.07Zm-507.86,5.09c-31.84,3.24-60.18,13.64-86.11,28.96,32.12-2.47,59.99-13.89,86.11-28.96h0Zm-172.05,468.39c12.06-6.09,23.13-11.19,33.45-17.2,3.14-2.09,5.15-5.52,5.45-9.28,.09-6.63-1.58-13.26-2.8-21.76-12.54,16.75-23.9,31.94-36.1,48.24h0Zm1067.71-148.04c13.72,19.49,27.45,38.98,41.17,58.47l6.17-3.05-40.73-58.63-6.61,3.21h0Z"/>
    <path id="Path_833" data-name="Path 833" class="cls-2" d="M1775.47,269.17c25.88,5.67,50.24,4.42,83.66-4.1,16.99-4.34,33.82-9.18,50.83-13.45,34.47-8.68,67.48-4.92,98.87,9.41,14.17,6.5,27.99,13.74,41.4,21.69-52.2-1.79-89.77,32.1-138.49,38.44l1.14,3.29c13.37-3.42,27.06-6.1,40-10.43,15.6-5.22,30.32-12.29,45.82-17.74,30.37-10.71,60.12-11.23,89.84,3.13,18.13,8.75,37.75,15.27,57.96,25.83-25.83,7.52-51.66,15.03-77.5,22.54l.46,1.79c20.38-4.98,41.88-7.92,60.84-15.48,20.51-8.19,39.55-10.71,61.42-2.02-47.75,21.69-70.32,63.07-103.82,96.12q-15.35,15.14-39.82,18.21c5.67,.32,9.86,.55,17.6,.98-6.52,4.6-10.63,7.6-14.87,10.46-3.94,2.64-8.02,5.14-10.76,9.34,7.37-4.15,15.76-7.44,21.89-12.64,9.54-8.09,20.16-8.6,31.72-5.93,18.96,4.38,37.62,9.75,56.7,13.69,14.8,3.05,30.02,4.55,48.91,8.49-2.63,.74-5.89,.9-7.8,2.34-25.75,19.49-52.3,38.33-76.66,59.02-23.03,19.58-43.79,41.08-75.85,50.97l2.65,3.59c14.32-7.49,29.68-13.87,42.64-22.77,13.72-9.42,25.37-21.06,37.54-32.05,37.62-33.99,81.55-60.65,130.87-80.8,32.23-13.17,66.25-19.93,106.57-17.62-43.26,24.23-61.27,60.07-81.2,94.78-15.23,26.52-33.46,51.28-59.52,71.35,16.67-7.9,36.15-25.57,50.95-47.68,11.63-17.35,20.78-35.93,32.95-52.97,11.38-15.91,23.95-31.53,38.49-45.39,13.4-12.78,31.07-20.07,51.9-24.13,22.81-4.44,44.17-14.27,66.31-21.81-15.32,34.72-14.21,71.65-12.06,108.72,.24,4.2-1.52,8.79-3.55,12.76-13.15,25.59-29.72,49.36-52.92,69.45-1.67,1.43-3.21,2.99-4.63,4.66-.41,.49,.04,1.49,.18,3.4,21.72-12.45,43-24.64,66.59-38.17,7.86,40.43-.54,74.18-27.97,104.05-2.38,2.58-7.44,3.37-11.26,5l-50.76,21.64,1.51,2.68c16.01-6.52,32.02-13.05,51.21-20.87-14.92,20.99-27.76,39.07-40.61,57.16l2.52,1.25c13.31-16.75,25.83-34.02,40.33-49.99,5.58-6.12,15.05-10.89,23.87-13.4,16.31-4.66,33.5-7.04,50.22-10.65,30.25-6.53,56.82-18.88,78.72-38.82-.79,77.3-35.62,138.84-88.93,192.01h21.04c3.89-13.1,10.38-25.27,19.08-35.81,33.25-40.36,52.07-85.08,57.97-134.76,5.16-43.4,34.12-78.46,69.43-108.8,19.81-17.03,42.72-31.46,67.43-49.38-6.61,16.89-11.57,30.43-17.39,43.68-1.13,2.57-5.39,4.41-8.59,6.02-40.5,20.29-65.82,49.92-78.7,88.36-10.55,31.44-23.48,62.3-33.97,94.14,9.7-20.48,20.03-40.75,28.88-61.48,6.86-16.07,11.09-32.95,17.87-49.06,12.67-30.11,37.04-51.71,71.93-68.12-12.75,68-8.12,136.89-46.37,199.06,3.02-4.49,6.24-8.9,9.02-13.49,3.07-5.07,6.64-10.09,8.45-15.51,7.94-23.87,15.25-47.88,22.99-71.79,1.74-5.37,4.26-10.55,6.42-15.82-1-3.22-3.15-6.52-2.8-9.62,2.38-20.25,5.72-40.43,7.88-60.69,1.27-12.05,6.74-20.41,20.57-25.04,7.92-2.65,14.96-7.22,22.36-10.99,52.3-26.63,101.06-56.29,126.36-106.18,.97-.1,1.94-.1,2.9-.01,.41,6.94,.41,14.09,1.28,21.16,4.49,35.96-6.31,69.97-16.63,104.31-13.2,44-33.31,57.7-73.91,65.64-11.18,2.18-22.85,2.77-33.86,5.37-15.46,3.64-30.52,8.49-45.74,12.82,37.73-7.05,75.46-14.09,114.15-21.33-11.52,10.14-22.73,20.54-34.61,30.36-32.41,26.82-63.13,54.8-87.1,87.68-22.19,30.46-34.6,63-34.04,99.27h10.98c.65-28.62,9.43-55.71,27.29-80.75,13.37-18.76,27.66-37.52,44.83-53.77,34.81-32.98,71.86-64.25,107.35-95.68,16.38,59.52,31.55,119.76,10.7,182.3-6.38,19.12-35.46,34.6-50.36,47.91h28.09c4.47-.03,2.32,0,5.35,0h1.01c10.92-25.01,27.84-50.98,33.02-78.02,7.88-41.14,6.26-83.54-4.72-123.97-7.1-26.71-7.26-52.83,3.36-79.46,17.69-44.33,19.25-90.37,16.07-136.76-2.34-34.17-3.24-68.43-4.43-102.65-.17-5.01,1.64-10.08,3.77-15.1,3.54,39.15,21.59,74.26,39.52,109.31,24.67,48.24,42.66,97.61,37.92,151.26,8.58-52.34-5.29-101.22-28.37-149.23-13.91-28.96-26.75-58.57-36.04-88.78-11.44-37.23-3.47-72.28,24.35-104.18,26.51-30.4,57.04-57.01,92.59-82,3.91,4.54,7.56,8.08,10.32,12.05,43.14,62.19,56.77,130.13,53.57,201.22-3.06,67.96-16.71,134.7-35.57,200.55-8.05,28.12-20.34,55.33-18.05,84.92,.74,9.36,1.69,18.7,2.85,28.03,4.15,33.63-10.32,64.12-21.31,95.37-9.01,25.64-26.09,51.2-34.01,77.11h1.76c13.03-43.66,44.01-85.13,57.22-131.04,9.68,38.17,30.94,70.95,24.06,108.31,1.16-10.13,2.32-20.27,3.68-32.23,11.62,18.49,23.42,36.5,34.64,54.94h10.92c-5.52-9.27-11.16-18.2-16.92-27.36-48.89-77.85-63.05-159.22-35.83-244.91,4.81-15.43,11.1-30.36,18.78-44.58,24.28-44.4,49.73-88.4,61.43-136.79,3.84-15.88,5.59-32.12,8.56-49.74,2.03,3.47,4.05,5.89,4.92,8.58,10.45,32.57,23,64.82,30.46,97.9,8,35.58-3.35,70.47-13.68,105.01-15.17,50.67-17.52,101.89-1.87,152.59,6.48,21.02,15.7,42.43,29.23,60.68,18.6,25.09,19.16,51.09,21.45,78.61h4.76c-.24-10.3,8.11-20.11,8.11-29.99,7.3,5.24,7.84,17.96,11.41,29.99h18.88c-2.43-5.62,1.41-12.05,2.19-18.1,6.17-47.88,12.68-95.66,7.69-144.03-5.09-49.33-26.09-92.52-66.31-128.48-6.53-5.85-7.69-10.87-5.51-18.4,6.71-23.25,12.43-46.71,18.83-71.2,36.14,23.47,69.62,49.25,95.64,81.51,38.88,48.21,52.49,102.88,54.36,159.97,1,30.53-1.13,61.18-3.1,91.72-1.02,15.81-14.75,31.2-16.41,46.98h16.88c.22-31.12,13.78-61.85,17.92-93.41,1.39,2.19,2.67,4.44,3.83,6.76,12.73,28.89,34.24,52.6,59.83,74.02,5.21,4.36,11.93,7.97,17.17,12.32l11.94,.05c-16.87-14.05-35.42-27.43-50.46-42.81-27.69-28.32-43.17-61.14-44.12-98.66-.94-37.23-6.19-74.03-19.42-109.77-19.85-53.64-58.43-96.44-109.66-130.45-24.6-16.34-38.71-34.24-45.37-60.74-14.41-57.36-45.76-109.68-76.15-162.01-3.13-5.4-5.99-10.9-9.79-17.86,14.69,4.28,27.88,7.5,40.33,12.13,3.75,1.39,6.1,6.48,8,10.27,10.51,20.93,18.79,42.86,31.44,62.77,18.5,29.12,48.13,49.53,82.25,64.87,9.29,4.18,14.07,9.7,17.27,17.98,13.46,34.85,32.8,66.41,64.37,92.77,23.72,19.8,31.28,47.13,35.69,74.68,4.44,27.86,8.62,55.77,14.13,83.49,2.04,10.24,7.56,19.98,13.34,29.54-25.62-53.87-10.25-114.36-39.21-167.59l3.68-2.66c23.98,20.44,50.39,39.22,71.37,61.69,31.01,33.21,51.96,70.69,56.22,114.54,5.75,59.18,74.17,153.52,80.25,167.66h13.78c-16.75-18.27-28.18-36.88-41.79-57.29-21.04-31.55-35.84-64.9-41.24-101.04-.84-4.55-.87-9.22-.08-13.78,22.88,36.84,64.96,53.17,103.21,73.87,21.01,11.36,39.68,25.85,60.91,37.81-15.65-12.14-30.41-25.27-47.17-36.15-15.54-10.11-33.22-17.85-49.97-26.59-39.35-20.54-64.74-48.57-75.89-87.93-16.02-56.55-58.44-99.39-110.31-135.5-38.24-26.63-64.84-59.7-81.46-98.96-.79-1.87-1.48-3.76-2.83-7.25,4.33,.98,7.26,1.49,10.07,2.3,27.25,7.84,54.58,15.51,81.67,23.67,12.62,3.8,25.01,8.26,37.15,13.05,14.82,5.84,24.86,14.77,30.65,28.71,11.94,28.77,30.06,54.56,58.18,74.6,4.54,3.22,6.96,8.6,10.28,13.03,12.25,16.3,24.49,32.6,36.72,48.9l3.8-2.04-34.67-46.5c47.35,18.49,98.88,28.99,137.33,60.72-15.05-16.64-34.33-28.74-56.07-37.92-21.47-9.05-43.42-17.28-65.18-25.83-15.79-6.21-26.77-15.48-33.83-29.69-13.27-26.72-28.95-52.53-55.18-72.3-1.43-1.01-2.6-2.35-3.41-3.9-9.98-21.47-19.84-42.97-29.16-63.25,21.59,5.18,43.42,10.39,65.2,15.73,3.16,.75,6.22,1.9,9.1,3.42,26.14,14.16,53.56,24.14,84.99,28.09,14.16,1.76,29.09,11.51,39.24,21.04,14.91,13.99,27.09,30.47,38.19,46.97,13.07,19.43,23.34,40.2,35.65,60.01,4.94,7.97,12.1,14.94,19.19,21.61-22.14-36.75-42.91-74.17-67.07-109.94-10.33-15.31-27.72-27.18-42.01-40.72,31.94-2.88,63.56,1.68,93.93,12.58,41.94,15.04,80.57,35.23,112.91,62.22,12.92,10.77,20.17,27.26,27.16,42.12,7.55,16.05,11.76,33.23,20.66,49.12-8.15-24-16.3-48-25.14-74.05,28.9,25.73,53.22,54.39,96.39,60.66-32.63-9.28-55.75-29.13-77.51-50.44-43.74-42.84-94.86-77.15-156.83-99.16-30.22-10.73-61.54-14.51-94.22-13.95-12.25,.2-24.74-3.9-36.88-6.8-7.32-1.75-13.9-5.98-21.25-7.38-38.62-7.38-66.25-28.46-91.36-52.51-18.16-17.39-35.21-35.61-53.08-53.21-21.6-21.3-46.31-39.04-78.38-48.13-3.44-.97-7.24-2.79-9.32-5.18-22.66-25.93-47.53-49.87-81.97-66.24,49.94-19.54,95.48-12.33,139.01,10.75,40.03,21.23,71.46,50.46,101.94,80.5,13.79,13.59,27.02,27.62,41.45,40.7,31.1,28.19,69.3,42.01,115.3,42.6,36.25,.48,72.49,3.82,108.66,6.67,8.64,.69,16.92,4.52,25.63,6.17-22.03-11.63-46.37-17.08-71.87-18.31-19.62-.95-39.35-.8-59.02-.63-47.55,.4-87-14.48-118.15-44.93-19.84-19.4-38.18-39.97-59-58.54-23.45-20.92-47.85-41.29-73.92-59.76-15.9-11.28-35.75-18.53-52.99-27.18,38.38-17.31,69.78,1.64,102.61,17.17-13.04-7.69-26.09-15.38-41.97-24.75,32.68,.05,61.92,2.98,86.73,16.58,25.21,13.82,48.24,30.64,71.36,47.03,29.81,21.12,57.68,44.33,88.39,64.41,28.77,18.8,61.5,32.48,98.89,33.02,16.54,.23,34.18-.88,49.51-5.59,31.45-9.66,58.86-3.09,84.41,11.45,16.22,9.23,30.65,20.9,45.14,32.17,23.21,18.05,47.56,34.32,78.42,41.9,1.86,.49,3.8,.58,5.7,.27-38.83-11.55-67.13-35.33-95.95-58.47-22.67-18.19-47.33-33.3-80.98-36.99,1.94-1.91,2.78-3.22,4.07-3.93,33.71-18.71,68.58-36.08,100.94-56.35,41.46-25.96,84.72-34.06,134.09-19.86,21.51,6.03,43.42,10.53,65.57,13.45,14.59,2.02,29.87,.38,44.93-1.66-39.02,2.52-75.28-7.2-111.21-17.56-49.72-14.32-93.9-5.67-135.86,19.81-29.76,18.26-60.42,35.02-91.86,50.21-59.41,28.36-118.55,25.59-175.38-6.39-15.98-8.99-32.23-18.01-46.42-28.86-37.69-28.81-74.34-58.64-112.5-88.94,32.58-3.57,59.83-17.42,88.04-30.24,22.09-10.04,47.11-6.41,70.04,1.03,19.67,6.38,38.58,14.46,57.72,21.99,26.05,10.26,53.14,16.26,82.42,14.26-48.33-1.37-87.32-24.49-130.1-38.9-17.03-5.73-35.81-7.7-53.84-11.39,2.24-1.47,4.57-2.79,6.97-3.96,30.03-13.17,62.26-18.93,95.75-19.48,62.38-1.02,122.25,8.2,178.12,32.91,34.32,15.18,69.86,19.62,107.03,8.2,3.21-.92,6.22-2.44,8.88-4.47-61.08,20.7-108.4-10.94-159.77-31.17,30.97-5.4,61.94-10.81,92.93-16.21l-.22-1.45c-22.9,3.3-46.03,5.68-68.6,10.14-20.88,4.13-40.36,4.92-61.97,.6-86.31-17.25-169.48-11.7-246.42,30.03-39.18,21.25-82.01,24.17-127.35,18.16-28.69-3.8-58.16-3.32-87.26-4.91-8.47-.46-16.99-.92-25.32-2.19-42.92-6.6-85.87-13.15-128.67-20.35-37.32-6.28-71.03-19.36-100.51-40.1,0,0-10.79-13.26-15.55-28.36-4.77-15.1-3.35-34.05-3.35-34.05l-157.28,13.41s.97,33.19-10.7,44.44c-4.56,4.4-25.88,.19-27.97,0-65.45-5.95-55.68-3.96-55.68-3.96,0,0-24.24-2-74.12,6.37-49.88,8.37-98.38,22.69-138.6,43.97-9.17,4.86-16.57,5.08-26.58,2.69-29.98-7.16-60.26-13.37-90.56-19.48-39.49-7.98-77.98-3.79-116.11,7.07-34.97,9.97-69.71,21.51-105.66,27.74-54.05,9.36-107.36,6.64-158.11-16.22-52.06-23.47-109.39-27.78-166.81-23.87-37.99,2.59-75.89,9.22-113.02,16.84-35.21,7.23-69.4,18.06-106.65,13.74,26.34,7.2,52.27,4.31,77.65-2.25,44.24-11.4,88.96-20.3,135.37-21.7,6.18-.18,12.35-.48,22.16-.88-7.73,4.71-12.73,7.76-17.94,10.94,1.04,.6,1.63,1.1,1.81,1.02,41.89-20.84,84.24-10.03,124.95,1.25,33.18,9.19,64.11,24.14,96.58,35.38,8.47,2.93,19.01,2.05,28.6,2.03,21.07-.05,42.18-1.35,63.23-.8,12.79,.35,25.5,2.06,37.92,5.1,33.59,8.27,66.8,17.66,100.29,26.29,7.69,1.99,15.83,2.71,24.76,4.18-13.19,13.85-27.53,20.67-47.58,13.12-8.74-3.29-18.3-5.11-26.77-8.8-103.09-44.8-206.29-39.03-309.59-.79-10.98,4.06-21.49,9.05-32.34,13.39-41.09,16.41-60.23,18.31-105.9,10.72,17.68,8.93,52.4,11.68,78.78,4.63,16.27-4.55,32.22-10.14,47.76-16.75,61.96-25.5,127.51-34.58,195.75-32.2,2.27,.07,4.51,.45,5.68,.56-24.59,14.09-49.54,28.37-74.47,42.65l2.57,3.45c4.18-2.45,8.35-4.92,12.52-7.4,14.89-8.89,29.1-18.81,44.86-26.4,19.5-9.4,40.65-11.97,62.21-3.81,16.19,6.13,32.51,12.04,48.68,18.18,17.48,6.62,34.87,13.41,53.03,20.41-42.56,36.76-91.72,57.34-155.08,49.41-34.88-4.36-70.45-5.49-105.77-6.38-12.85-.33-25.87,4.28-38.64,8.13,50.09-12.42,99.19-2.27,148.27,4.04,49.27,6.34,91.95-5.6,130.39-31.12,5.67-3.76,11.8-7.23,16.62-11.69,10.85-10.05,23.15-13.36,40.18-7.07-47.64,35.39-94.66,70.43-141.99,105.18-3.89,2.47-8.53,3.51-13.1,2.93-40.49-7.04-77.5,1.77-111.78,18.95-17.17,8.6-32.9,9.55-49.97,2.39-32.63-13.69-66.56-25.65-97.37-41.89-49.18-25.92-98.89-33.08-153.53-14.85-34.55,11.52-70.22,19.87-108.21,16.3Zm1720.71,163.62c2.23-1.1,4.48-2.19,6.72-3.3,13.78,20.08,27.56,40.15,41.34,60.22l-6.26,3.13-41.8-60.06Zm-235.07,363.49c-72.22-77.29-95.07-162.68-65.21-260.02,24.74,21.99,42.43,44.45,54.05,70.28,22.76,50.64,20.66,103.11,15.64,155.75-1.09,11.37-2.96,22.68-4.48,33.99h0Zm84.25-695c-37.45,7.53-74.87,15.21-112.43,22.3-2.98,.56-7.49-2.51-10.49-4.69-25.86-18.71-51.52-37.6-76.98-56.68-8.06-6.05-15.29-12.93-22.9-19.42l2.93-2.58c30.48,21.77,65.65,35.23,104.37,41.44,38.27,6.13,76.81,11.02,115.24,16.46l.26,3.18h0Zm-90.91,51.83c34.79,11.81,59.26,31.02,83.27,55.68-20.47-3.89-37.22-6.99-53.9-10.34-2.57-.51-6.1-1.62-7.04-3.32-7.42-13.27-14.3-26.75-22.32-42.02h0Zm197.46,178.28c-17.5-20.9-30.37-44.59-45.23-67.08l2.22-2.08c33.84,30.63,67.68,61.26,103.64,93.82-24.47-4.67-47.57-9.05-60.64-24.66Zm-127.32,15.77c-13.13-40.23-25.58-80.62-38.19-120.86,3.47-.95,4.4-1.5,5.21-1.38,4.24,.6,8.51,1.17,12.65,2.12,40.64,9.3,75.4,24.83,95.47,58.99,8.03,13.65,19.5,26.32,31.73,37.61,24.59,22.72,31.84,52.01,46.04,77.47-33.18-10.1-65.88-19.92-98.45-30.05-14.84-4.61-29.6-9.5-44-15.01-4.27-1.64-9.29-5.32-10.46-8.89h0Zm-32.34-10.25c-56.17-28.53-86.99-71.33-103.36-124.92,19.7,2.1,38.03,4.43,56.46,5.88,10.06,.78,15.06,4.55,17.46,12.88,9.92,34.37,20.41,68.61,30.6,102.93,.24,.82-.65,1.87-1.16,3.24h0Zm-45.72-143.77c-53.45-3.88-99.05-14.47-136.16-43.36-5.75-4.48-9.19-11.09-15.64-19.13,6.06,.69,7.52,.56,8.62,1.03,31.26,13.71,64.29,20.91,99.64,19.85,3.1-.09,7.6,.29,9.14,1.98,11.16,12.25,21.73,24.88,34.4,39.64h0Zm-166.81,296.05c18.18-88.76,37.16-176.94,20.54-269.61,31.37,40.02,41.29,81.73,35.58,126.56-6.15,48.15-27.55,92.12-50.98,135.56-1.58,2.59-3.3,5.09-5.15,7.5h0Zm22.76-390.63c-13-6.42-14.39-14.47-10.42-27.8,28.15,16.92,54.91,33,81.68,49.09l-2.16,3.03c-24.99-3.89-47.16-13.5-69.11-24.31h0Zm-653.62,436.72c1.24,8.73,2.94,15.54,2.86,22.35-.3,3.85-2.34,7.36-5.53,9.54-10.49,6.17-21.73,11.41-33.97,17.65,12.38-16.73,23.91-32.33,36.65-49.54h0Zm-16.61-324.72c45.81-34.93,100.69-45.22,160.46-41.27,1.4,.09,2.7,1.16,4.86,2.13-14.8,6-28.34,11.48-41.89,16.97,5.95,.94,10.49-1.03,15.26-2.34,16.83-4.6,34.07-13.43,50.52-12.5,31.55,1.79,62.68,9.15,90.98,13.71-21.93,18.86-44.65,37.3-65.69,57.03-8.06,7.7-17.49,13.82-27.82,18.04-15.31,6.39-30.85,13.9-43.09,23.78-21.43,17.33-46.62,26.99-74.51,32.37-62.72,12.1-119.99-5.74-179.19-23.94,15.73-11.17,29.72-20.43,42.8-30.54,22.7-17.56,44.44-36.03,67.28-53.45h0Zm173.12,81.7c-29.54,57.81-81.7,99.4-123.13,97.42,45.38-28.88,69.87-74.28,123.13-97.42Zm129.53-96.57c5.32-1.65,11.21-3.37,16.68-3.04,35.73,2.12,70.74-.11,105.23-10.39-12.44,13.76-17.86,32.4-41.58,36.78-54,9.98-107.81,20.66-164.32,31.57,24.25-25.05,50.15-44.4,83.99-54.93Zm-154.32-104.48c-37.43,8.12-68.58,23.8-98.97,40.96-4.72,2.67-11.99,4.89-17.09,3.84-44.81-9.26-89.39-19.3-135.57-29.43,83.19-31.22,165.02-43.57,251.62-15.37Zm-81.12,42.31c26.33-15.75,55.1-26.42,87.43-29.74-26.52,15.48-54.82,27.2-87.43,29.74h0Zm132.65-30.16c49.1,13.17,97.03,30.08,150.21,30.39-41.23,15.1-83.39,26.9-128.59,21.25-51.93-6.49-102.93-7.19-154.06,4.64-14.61,3.38-30.72,2.08-46.13,2.93l-1.45-4.12c9.97-4.91,19.6-13.39,29.98-14.12,45-3.2,83.8-18.93,121.87-37.75,7.69-3.81,19.87-5.45,28.18-3.21h0Zm20.16-19.15c102.65-50.09,197.05-60.98,274.48-20.11-88.56,39.22-178.5,58.36-274.48,20.11h0Zm292.54,10.08c-68.12,61.48-144.96,91.48-243.66,67.5,2.57-.81,5.19-1.47,7.83-1.99,33.48-4.28,65.63-11.82,94.62-27.39,3.01-1.38,6.25-2.2,9.55-2.43,41.32-4.71,79.9-16.81,117.71-31.07,3.6-1.36,7.33-2.45,13.94-4.63h0Zm-235.5,436.11c6.66-23.08,15.62-42.45,31.92-57.13,37.04-33.39,53.45-74.78,67.91-117.15,10.27-30.1,19.04-60.57,28.74-90.82,7.4-23.13,21.85-41.29,50.32-48.46,.23,.85,.21,1.75-.06,2.59-22.4,43.12-24.34,88.36-19.84,134.37,.9,8.09,.65,16.26-.74,24.27-14.79,77.82-83.08,115.48-158.25,152.32h0Zm-255.86,105.28c4.22-11.95,8.93-25.35,6.52-37.09-5.45-26.57,8.87-36.82,36.08-44.38,57.84-16.04,93.8-51.68,114.31-99.57,6.06-14.16,13.7-27.84,19.58-42.05,3.54-8.56,10.19-12.63,19.54-16.17,22.27-8.44,44.61-17.06,65.75-27.33,39.05-18.95,68.03-46.04,85.13-81.8,1.17-2.12,2.47-4.16,3.89-6.11l1.93,.54c-5.68,19.68-11.21,39.4-17.07,59.04-19.82,66.42-53.32,124.85-121.68,166.5-40.67,24.77-69.01,59.7-88.31,99.4-1.97,4.03-5.22,7.72-8.48,11.15-34.81,36.59-85.31,43.82-135.7,53.05,6.64-12.33,14.3-23.31,18.5-35.17h0Zm338.72-367.53c-24.34,64.89-79.84,99.04-150.86,123.74,32.84-58.44,72.17-106.8,150.86-123.74h0Zm-336.14,252.65c17.87-41.08,45.23-76.74,96.16-93.79,23.1-7.74,46.75-14.3,70.78-21.59-22.76,76.94-66.36,136.63-165.75,154.1-.66-12.54-6.17-27.28-1.19-38.72Zm-.79-14.18c-3.73-35.09-1.26-68.89,17.36-100.3,2.4-4.05,8.38-8.19,13.51-9.17,43.42-8.31,74.6-30.34,97.84-61.57,10.25-13.76,19.5-28.09,30.38-41.48,4.3-5.31,11-10.77,17.94-12.67,29.55-8.15,59.35-15.91,89.54-22.05,24.81-5.05,50.29-7.62,75.48-11.29l.6,3.38c-3.59,1-7.13,2.15-10.77,2.98-42.32,9.62-77.75,28.75-102.3,59.47-18.48,23.13-32.74,48.67-49.6,72.77-3.92,5.57-9.36,9.89-15.67,12.46-15.33,5.67-31.41,9.94-47.32,14.43-50.33,14.18-87.96,40.57-110.16,82.04-2.02,3.78-4.56,7.35-6.85,11.01h0Zm-283.96-155.19c13.93-8.79,30-17.92,46.49-20.39,30.4-4.56,58.46-12.57,84.17-26.53,8.56-4.65,15.31-5.23,24.95-2.27,26.54,8.14,53.38,15.87,80.64,22.04,41.71,9.44,83.8,10.7,126.72-.51-23.11,22.32-46.5,43.75-72.12,63.05-11.02,8.29-26.52,12.4-40.24,17.96-10.77,4.38-21.76,8.51-32.99,11.93-9.28,2.82-19.11,6.41-28.6,6.22-47.05-.92-90.12,10.19-130.07,30.17-21.88,10.95-44.44,12.31-67.87,7.48-26.9-5.53-53.45-12.27-79.7-18.38,18.26-20.24,36.18-40.86,55.09-60.78,10.18-10.73,20.69-21.88,33.53-29.99h0Zm119.58-55.93c-35.83,17.85-72.48,28.43-116.31,22.39,33.94-20.14,90.32-34.21,116.31-22.39h0Z"/>
  </g>
  <g id="Group_727-2" data-name="Group 727">
    <path id="Path_832-2" data-name="Path 832" class="cls-3" d="M253.39,1419.42c-37.16-6.86-74.32-13.72-112.43-20.75,11.35,9.88,22.4,20,34.09,29.57,31.94,26.1,62.2,53.35,85.79,85.36,22.18,30.08,34.5,62.23,33.57,98.13-.54,21.28,10.82,40.23,25.11,57.26,11.41,13.59,24.53,26.21,37.55,38.78,21.88,21.07,41.88,43.06,53.39,69.7,.91,1.8,1.22,3.83,.91,5.82-18.19-37.16-52.81-63.94-81.76-94.34-14.57-15.3-25.71-32.91-38.47-49.57-1.35,5.14-2.36,11.86-4.89,18.17-12.97,32.32-24.33,65.24-40.05,96.6-21.23,42.31-23.23,83.45-1.95,125.93,16.74,33.44,30.77,67.68,24.76,105.15,.37-33.83-10.4-65.62-26.6-96-25.83-48.44-24.11-95.71,1.57-144.01,19.48-36.63,34.43-74.79,38.85-115.29,3.85-35.21-4.47-68.24-26.15-98.3-13.18-18.27-27.26-36.53-44.16-52.36-34.3-32.1-70.79-62.56-105.76-93.15-16.13,57.94-31.06,116.6-10.53,177.5,8.08,23.98,22.79,42.14,45.01,57.37,15.51,10.62,30.33,21.95,45.47,32.96l-2.48,2.37c-23.94-17.34-47.88-34.68-71.82-52l-2.25,.63c8.78,16.83,16.76,34.01,26.59,50.4,8.16,13.66,17.46,26.61,27.8,38.71,29.16,33.85,41.29,71,33.63,111.39-.74-11.63-.84-24.43-2.53-37.08-3.52-26.51-18.88-48.9-36.9-70.04-42.09-49.36-67.81-104.17-79.37-164-7.77-40.06-6.18-81.37,4.65-120.71,6.99-26,7.14-51.45-3.32-77.37-17.41-43.16-18.96-87.99-15.83-133.16,2.32-33.28,3.19-66.63,4.36-99.96,.17-4.88-1.62-9.81-3.71-14.71-3.48,38.12-21.25,72.31-38.91,106.45-24.3,46.97-42.03,95.04-37.36,147.28-8.45-50.96,5.21-98.57,27.94-145.31,13.71-28.19,26.36-57.02,35.5-86.44,11.28-36.26,3.43-70.38-23.98-101.45-26.11-29.59-56.18-55.5-91.19-79.83-3.87,4.42-7.45,7.86-10.17,11.73-42.5,60.55-55.93,126.71-52.78,195.92,3.03,66.18,16.48,131.16,35.05,195.29,7.93,27.38,20.02,53.86,17.76,82.68-.71,9.1-1.66,18.2-2.8,27.28-4.08,32.76,10.18,62.44,20.99,92.86,11.48,32.26,21.39,64.92,31.44,97.52,1.96,6.35,1.4,13.24,.74,20.08-6.65-58.71-39.54-110.9-56.78-170.12-9.54,37.16-30.47,69.07-23.7,105.45l-3.63-31.38c-53.86,84.79-110.19,166.96-105.61,266.39-6.99-42.66,6.68-112.47,33.18-163.62,13.37-25.82,28.45-51.07,44.23-75.92,48.15-75.8,62.1-155.02,35.3-238.45-4.74-15.04-10.93-29.58-18.49-43.42-23.92-43.23-48.99-86.06-60.52-133.19-3.78-15.47-5.51-31.29-8.43-48.44-2,3.39-4,5.74-4.85,8.36-10.29,31.72-22.66,63.12-29.99,95.33-7.9,34.65,3.3,68.6,13.48,102.23,14.93,49.35,17.26,99.21,1.84,148.57-6.39,20.48-15.47,41.32-28.81,59.1-26.15,34.87-32.85,72.26-28.9,111.84,2.77,27.7,7.79,55.23,10.97,82.9,3.29,28.64,.78,57.05-9.46,84.88,.91-6.11,1.71-12.23,2.74-18.32,7.48-44.4-4.54-87.82-8.66-131.68-2.62-27.85-.49-56.02-.49-82.29-10.25,7.28-21.67,30.1-20.27,43.28,4.63,43.88-2.93,85.53-31.44,123.56-3.29,4.37-4.52,10.32-4.92,15.65-3.32,43.27,6.63,85.39,15.59,127.66,6.71,31.65,.84,62.23-17.76,90.76,2.04-5.52,4.04-11.07,6.16-16.58,9.95-26.05,8.89-52.3,3.33-78.93-7.83-37.39-14.61-74.91-21.83-112.36-20.47,23.67-37.49,50.13-50.55,78.57,.95-3.41,1.17-7.1,2.96-10.16,14.49-24.87,29.5-49.53,43.82-74.46,3.55-6.19,6.8-13.06,7.4-19.78,4.27-46.95,12.97-93.03,33.46-137.21,2.58-5.54,2.85-12.38,2.07-18.42-6.08-46.62-12.51-93.13-7.59-140.23,5.01-48.03,25.7-90.09,65.32-125.11,6.43-5.68,7.58-10.57,5.44-17.91-6.61-22.64-12.25-45.48-18.55-69.32-35.61,22.84-68.58,47.94-94.21,79.35-38.31,46.95-51.7,100.19-53.54,155.77-.99,29.73,1.1,59.56,3.04,89.31,1.78,27.26,4.99,54.47,8.03,81.66,2.72,24.32-3.25,47.25-13.06,69.97-9.93,23.02-18.5,46.47-29,69.67,4.43-15.01,8.29-30.15,13.42-45,7.23-20.91,17.1-41.29,22.54-62.5,3.38-13.17,.63-27.45-2.31-41.63-.86,3.36-1.89,6.7-2.55,10.07-5.44,27.91-16.64,54.28-37.26,76.45-25.41,27.35-28.26,57.74-24.53,90.23,3.24,26.65,4.64,53.49,4.19,80.33,4.07-45.6-19.54-90.57-5.73-136.68-30.98,16.58-84.76,95.17-102.54,146.14,3.48-11.67,6.39-23.48,10.54-34.99,10.66-29.56,27.49-56.57,49.51-81.25,14.46-16.21,29.36-32.15,44.15-48.15,34.16-36.92,53.65-78.54,53.57-125.49-.06-31.21-2.9-62.4-7.09-94.04-1.37,2.12-2.62,4.31-3.76,6.57-12.55,28.14-33.72,51.22-58.94,72.07-21.23,17.55-42.99,34.73-62.62,53.48-14.24,13.6-25.39,29.49-39.16,45.85,1.56-3.79,2.3-6.39,3.66-8.74,15.5-26.75,37-49.69,62.09-70.54,19.49-16.17,39.58-32.03,57.06-49.69,27.28-27.56,42.53-59.54,43.45-96.06,.92-36.25,6.11-72.09,19.14-106.88,19.55-52.24,57.54-93.9,108-127.02,24.24-15.89,38.14-33.33,44.7-59.15,14.18-55.84,45.07-106.79,75-157.74,3.08-5.25,5.9-10.61,9.66-17.38-14.47,4.16-27.46,7.3-39.74,11.81-3.69,1.35-6,6.3-7.87,10-10.37,20.38-18.51,41.72-30.98,61.12-18.22,28.36-47.41,48.22-81,63.16-9.15,4.07-13.87,9.45-17.01,17.51-13.26,33.93-32.31,64.67-63.4,90.33-23.38,19.29-30.81,45.9-35.15,72.72-4.39,27.13-8.49,54.31-13.92,81.29-2.02,9.97-7.45,19.45-13.13,28.77,25.22-52.46,10.09-111.36,38.62-163.19l-3.63-2.58c-23.63,19.89-49.64,38.19-70.31,60.06-30.55,32.34-51.17,68.83-55.37,111.53-5.67,57.62-36.9,107.3-77.22,152.65-20.58,23.16-29.52,48.21-31.87,76.08-1.16,13.74-3.48,27.4-5.26,41.1l-3.54-.36c4.17-28.86,8.34-57.71,12.61-87.21-32.17,30.87-76.23,52.95-95.93,93.22,7.92-24.73,26.25-43.53,48.2-60.05,41.29-31.09,74.3-67.56,101.55-107.96,20.72-30.72,35.32-63.19,40.64-98.38,.81-4.43,.84-8.97,.07-13.41-22.54,35.87-63.97,51.77-101.67,71.91-20.7,11.06-39.09,25.18-59.99,36.82,15.4-11.83,29.94-24.6,46.45-35.21,15.32-9.83,32.72-17.37,49.23-25.89,38.75-20,63.77-47.28,74.75-85.6,15.78-55.06,57.55-96.78,108.64-131.93,37.68-25.93,63.86-58.14,80.24-96.36,.78-1.82,1.45-3.67,2.79-7.06-4.26,.95-7.15,1.46-9.92,2.25-26.84,7.62-53.75,15.09-80.45,23.05-12.42,3.7-24.62,8.04-36.58,12.7-14.6,5.68-24.5,14.38-30.2,27.96-11.75,28.02-29.61,53.13-57.3,72.64-4.46,3.14-6.86,8.39-10.13,12.7-12.07,15.86-24.13,31.72-36.17,47.6l-3.75-1.98,34.16-45.28c-46.65,17.99-97.4,28.23-135.28,59.13,14.82-16.21,33.82-28,55.22-36.92,21.14-8.82,42.78-16.83,64.21-25.14,15.56-6.04,26.38-15.07,33.33-28.92,13.06-26.01,28.51-51.15,54.35-70.39,1.4-.99,2.55-2.29,3.36-3.8,9.82-20.9,19.54-41.86,28.72-61.6-21.26,5.06-42.78,10.12-64.23,15.32-3.11,.74-6.11,1.86-8.95,3.34-25.76,13.78-52.76,23.51-83.72,27.34-13.94,1.73-28.64,11.21-38.64,20.5-14.69,13.63-26.68,29.66-37.61,45.73-12.87,18.91-22.99,39.14-35.13,58.43-4.87,7.75-11.9,14.55-18.9,21.03,21.81-35.79,42.27-72.22,66.06-107.04,10.19-14.91,27.3-26.47,41.39-39.65-31.37-2.66-62.93,1.52-92.53,12.24-41.3,14.64-79.36,34.31-111.2,60.59-12.72,10.49-19.88,26.55-26.76,41.02-7.43,15.62-11.57,32.35-20.34,47.82l24.76-72.1c-28.47,25.06-52.43,52.96-94.94,59.08,32.13-9.03,54.91-28.37,76.35-49.12,43.08-41.71,93.44-75.11,154.47-96.54,29.77-10.45,60.63-14.13,92.81-13.59,12.07,.21,24.39-3.79,36.34-6.62,7.21-1.7,13.68-5.81,20.92-7.18,38.04-7.18,65.26-27.7,89.99-51.12,17.88-16.94,34.68-34.67,52.28-51.83,21.28-20.73,45.61-38.01,77.22-46.85,3.38-.95,7.12-2.73,9.18-5.05,22.32-25.24,46.81-48.55,80.74-64.5-49.21-19.03-94.06-12-136.94,10.47-39.43,20.67-70.38,49.13-100.4,78.37-13.59,13.23-26.62,26.9-40.84,39.63-30.64,27.45-68.26,40.9-113.55,41.49-35.72,.46-71.42,3.71-107.03,6.49-8.51,.67-16.68,4.41-25.25,6.01,21.69-11.33,45.66-16.63,70.79-17.83,19.33-.91,38.75-.76,58.12-.61,46.83,.38,85.7-14.11,116.38-43.75,19.54-18.89,37.61-38.92,58.12-57.01,23.1-20.36,47.13-40.2,72.81-58.18,15.67-10.98,35.22-18.05,52.21-26.47-37.81-16.86-68.75,1.59-101.09,16.72l41.35-24.11c-32.2,.06-61,2.91-85.44,16.16-24.82,13.45-47.52,29.83-70.28,45.78-29.36,20.58-56.81,43.17-87.07,62.71-28.33,18.3-60.58,31.62-97.42,32.15-16.29,.24-33.65-.85-48.77-5.44-30.98-9.4-57.97-3-83.13,11.15-15.99,8.99-30.2,20.36-44.47,31.33-22.87,17.58-46.86,33.41-77.26,40.8-1.83,.48-3.74,.56-5.6,.25,38.24-11.24,66.1-34.39,94.5-56.93,22.32-17.72,46.62-32.43,79.75-36.01-1.9-1.86-2.73-3.13-4.01-3.83-33.21-18.22-67.55-35.13-99.42-54.86-40.84-25.29-83.45-33.16-132.08-19.33-21.2,5.87-42.78,10.25-64.6,13.1-14.36,1.96-29.42,.37-44.25-1.63,38.44,2.46,74.15-7.01,109.55-17.09,48.97-13.95,92.48-5.52,133.82,19.27,29.16,17.5,59.25,34.18,90.47,48.91,58.53,27.62,116.77,24.92,172.76-6.23,15.73-8.75,31.74-17.54,45.71-28.09,37.14-28.07,73.23-57.1,110.81-86.6-32.08-3.49-58.93-16.97-86.72-29.45-21.76-9.78-46.41-6.25-68.98,.99-19.37,6.22-38.01,14.09-56.87,21.42-25.66,9.99-52.33,15.82-81.17,13.88,47.6-1.33,86.01-23.84,128.14-37.88,16.77-5.58,35.28-7.49,53.04-11.09-2.2-1.43-4.5-2.72-6.87-3.85-29.57-12.83-61.32-18.43-94.31-18.97-61.44-.99-120.4,7.99-175.43,32.04-33.82,14.77-68.82,19.09-105.42,7.98-3.17-.89-6.14-2.36-8.76-4.34,60.16,20.16,106.78-10.66,157.38-30.36-30.52-5.26-61.03-10.51-91.53-15.77l.2-1.41c22.55,3.2,45.34,5.52,67.59,9.88,20.57,4.02,39.75,4.79,61.03,.59,85.04-16.8,166.95-11.41,242.74,29.23,38.59,20.69,80.78,23.54,125.42,17.69,28.26-3.7,57.29-3.24,85.97-4.78,8.33-.45,16.74-.89,24.93-2.15,42.29-6.43,84.58-12.8,126.73-19.81,37.24-6.19,70.85-19.15,100.16-39.81,7.5-5.3,10.66-10.87,10.64-19.25-.37-121.2-1.22-281.82-1.3-403.04-.01-16.31-4.89-27.78,13.85-32.32,34.88-8.46,92.2-18.07,127.08-9.63,12.91,3.12,9.06,28.87,9.35,41.95,2.25,102.9,3.08,241.86,6.47,344.74,.39,17.5,2.38,34.93,5.97,52.07,5.46,24.81,18,30.26,47.38,25.65,91.46-14.34,176.68,.1,255.42,41.3,9.03,4.72,16.32,4.95,26.19,2.61,29.51-6.97,59.35-13.02,89.19-18.97,38.91-7.76,76.82-3.69,114.37,6.89,34.44,9.7,68.67,20.94,104.09,27,53.23,9.12,105.75,6.47,155.73-15.8,51.27-22.84,107.76-27.04,164.32-23.24,37.41,2.52,74.75,8.97,111.33,16.4,34.68,7.03,68.34,17.58,105.04,13.37-25.94,7.02-51.5,4.19-76.5-2.18-43.58-11.11-87.61-19.77-133.34-21.13-6.09-.19-12.16-.47-21.83-.85l17.68,10.64c-1.04,.59-1.62,1.08-1.8,.99-41.25-20.29-82.98-9.76-123.07,1.22-32.68,8.95-63.13,23.5-95.13,34.45-8.33,2.85-18.72,1.99-28.16,1.97-20.77-.04-41.56-1.31-62.28-.77-12.59,.34-25.11,2.01-37.35,4.97-33.1,8.05-65.81,17.2-98.78,25.62-7.58,1.93-15.6,2.63-24.39,4.06,12.99,13.48,27.12,20.13,46.86,12.79,8.62-3.2,18.04-4.98,26.38-8.56,101.55-43.64,203.19-38,304.95-.77,10.81,3.96,21.16,8.81,31.84,13.04,40.48,15.98,59.33,17.82,104.33,10.44-17.42,8.69-51.62,11.38-77.61,4.51-16.01-4.43-31.73-9.87-47.04-16.3-61.03-24.83-125.6-33.67-192.8-31.37-2.23,.08-4.46,.44-5.6,.56,24.23,13.71,48.79,27.62,73.37,41.52l-2.54,3.37c-4.1-2.41-8.23-4.79-12.32-7.2-14.68-8.66-28.66-18.32-44.2-25.71-19.21-9.15-40.03-11.64-61.28-3.7-15.95,5.97-32.01,11.71-47.95,17.69-17.21,6.46-34.35,13.06-52.23,19.88,41.94,35.8,90.34,55.83,152.76,48.1,34.36-4.25,69.4-5.35,104.18-6.21,12.66-.31,25.5,4.17,38.06,7.92-49.33-12.08-97.71-2.21-146.05,3.94-48.52,6.17-90.57-5.46-128.44-30.31-5.57-3.67-11.62-7.04-16.36-11.39-10.7-9.79-22.81-13-39.57-6.88,46.91,34.46,93.23,68.59,139.86,102.42,3.84,2.4,8.4,3.41,12.9,2.85,39.88-6.86,76.33,1.72,110.1,18.45,16.91,8.39,32.41,9.31,49.22,2.34,32.15-13.33,65.57-24.98,95.91-40.79,48.45-25.24,97.42-32.22,151.24-14.47,34.03,11.23,69.16,19.34,106.59,15.89-25.5,5.52-49.49,4.31-82.43-3.99-16.74-4.21-33.31-8.92-50.06-13.1-33.95-8.45-66.47-4.78-97.4,9.17-13.95,6.32-27.56,13.37-40.77,21.12,51.42-1.75,88.41,31.26,136.4,37.42l-1.12,3.21c-13.16-3.33-26.66-5.94-39.4-10.16-15.36-5.08-29.86-11.96-45.12-17.28-29.92-10.42-59.22-10.93-88.51,3.05-17.85,8.54-37.19,14.88-57.09,25.14,25.45,7.32,50.89,14.64,76.33,21.96l-.45,1.74c-20.07-4.85-41.25-7.72-59.92-15.08-20.21-7.97-38.96-10.42-60.51-1.96,47.03,21.12,69.28,61.41,102.28,93.59q15.12,14.73,39.22,17.73l-17.34,.95c6.42,4.48,10.46,7.4,14.64,10.18,3.87,2.58,7.88,5.01,10.6,9.09-7.27-4.03-15.54-7.24-21.57-12.31-9.4-7.88-19.85-8.37-31.23-5.77-18.69,4.26-37.07,9.5-55.86,13.33-14.57,2.98-29.58,4.44-48.17,8.27,2.59,.74,5.79,.87,7.67,2.28,25.36,18.97,51.52,37.31,75.51,57.47,22.7,19.06,43.13,39.99,74.72,49.63l-2.61,3.49c-14.09-7.29-29.23-13.49-42-22.16-13.51-9.17-24.99-20.52-36.96-31.21-37.07-33.1-80.33-59.06-128.91-78.69-31.76-12.83-65.26-19.4-104.99-17.15,42.61,23.6,60.35,58.48,79.99,92.29,15,25.82,32.95,49.93,58.64,69.46-16.43-7.7-35.61-24.9-50.2-46.43-11.45-16.89-20.46-34.99-32.46-51.56-11.21-15.5-23.58-30.7-37.91-44.2-13.2-12.44-30.6-19.53-51.12-23.48-22.47-4.33-43.5-13.9-65.32-21.24,15.09,33.8,14.01,69.77,11.89,105.87-.25,4.09,1.49,8.55,3.5,12.41,12.95,24.93,29.27,48.07,52.11,67.63,1.64,1.38,3.16,2.9,4.55,4.54,.4,.47-.04,1.45-.18,3.3l-65.59-37.16c-7.73,39.36,.53,72.23,27.56,101.3,2.33,2.51,7.33,3.29,11.07,4.86,16.67,7.02,33.33,14.05,50,21.08l-1.49,2.61c-15.77-6.36-31.54-12.71-50.44-20.33,14.69,20.45,27.35,38.05,40,55.66l-2.47,1.22c-13.12-16.31-25.45-33.14-39.74-48.68-5.49-5.96-14.81-10.6-23.51-13.06-16.05-4.53-32.99-6.84-49.47-10.36-29.8-6.36-55.97-18.38-77.54-37.8,1.04,99.32,60.38,171.94,143.03,234.37,21.15,15.97,40.93,32.71,49.22,56.72-16.05-29.91-46.77-48.63-74.5-69.55-16.48-12.43-33.63-24.23-45.55-32.78,2.12,17.06,5.11,41.23,8.09,65.39l-2.96,.3c-1.83-13.7-4.09-27.37-5.38-41.11-2.07-22.09-8.19-42.46-23.85-61.25-32.74-39.28-51.29-82.84-57.1-131.22-5.08-42.25-33.59-76.39-68.38-105.94-19.53-16.57-42.08-30.62-66.42-48.07,6.5,16.44,11.4,29.62,17.13,42.53,1.11,2.49,5.3,4.29,8.45,5.85,39.89,19.76,64.83,48.6,77.53,86.03,10.38,30.62,23.12,60.66,33.45,91.66-9.55-19.92-19.73-39.67-28.44-59.86-6.76-15.65-10.93-32.08-17.6-47.76-12.49-29.33-36.5-50.36-70.86-66.34,12.55,66.22,7.99,133.31,45.67,193.82-2.98-4.37-6.15-8.66-8.89-13.13-3.03-4.93-6.54-9.83-8.31-15.1-7.84-23.23-15.04-46.62-22.66-69.91-1.7-5.22-4.18-10.26-6.31-15.4,.98-3.12,3.1-6.35,2.74-9.36-2.34-19.72-5.64-39.36-7.76-59.1-1.26-11.74-6.65-19.89-20.26-24.39-7.8-2.58-14.74-7.02-22.02-10.69-51.51-25.93-99.56-54.82-124.47-103.39-.95-.1-1.92-.11-2.87-.02-.39,6.76-.4,13.72-1.27,20.61-4.41,35.02,6.23,68.14,16.38,101.58,13.01,42.84,32.81,56.19,72.81,63.91,11.02,2.13,22.49,2.69,33.34,5.22,15.22,3.55,30.06,8.27,45.05,12.48Zm613.48-175.54c-17.98-19.71-35.64-39.77-54.25-59.18-10.04-10.45-20.38-21.3-33.04-29.2-13.72-8.55-29.55-17.45-45.78-19.85-29.95-4.44-57.6-12.25-82.9-25.84-8.44-4.52-15.08-5.08-24.58-2.21-26.16,7.94-52.59,15.46-79.43,21.46-41.09,9.19-82.55,10.42-124.82-.5,22.75,21.74,45.79,42.6,71.03,61.39,10.85,8.09,26.12,12.07,39.63,17.49,10.62,4.26,21.43,8.3,32.51,11.61,9.13,2.74,18.82,6.25,28.16,6.06,46.35-.89,88.77,9.94,128.12,29.39,21.56,10.66,43.77,11.98,66.87,7.28,26.49-5.38,52.63-11.95,78.49-17.91h0Zm-710.76-156.79l-1.9,.54c5.6,19.17,11.04,38.36,16.82,57.49,19.52,64.67,52.5,121.57,119.84,162.11,40.07,24.12,67.99,58.13,87,96.79,1.92,3.92,5.14,7.52,8.36,10.86,34.27,35.62,84.02,42.65,133.65,51.64-6.55-11.99-14.09-22.68-18.21-34.24-4.16-11.63-8.81-24.69-6.43-36.13,5.38-25.86-8.73-35.85-35.54-43.2-56.96-15.63-92.39-50.32-112.59-96.96-5.98-13.79-13.51-27.1-19.3-40.93-3.49-8.34-10.04-12.31-19.23-15.76-21.95-8.22-43.94-16.61-64.77-26.61-38.46-18.45-67.01-44.82-83.84-79.64-1.16-2.07-2.44-4.06-3.85-5.97h0Zm474.87,13.03c-15.5-10.88-29.29-19.89-42.17-29.75-22.35-17.1-43.77-35.07-66.28-52.04-45.12-34.01-99.17-44.03-158.06-40.19-1.37,.09-2.66,1.13-4.79,2.09l41.26,16.52c-5.85,.91-10.32-1-15.04-2.27-16.56-4.48-33.56-13.06-49.75-12.16-31.09,1.74-61.74,8.9-89.63,13.35,21.61,18.36,43.98,36.3,64.7,55.52,7.96,7.51,17.25,13.47,27.4,17.57,15.1,6.23,30.39,13.53,42.46,23.17,21.1,16.86,45.91,26.27,73.39,31.52,61.77,11.78,118.19-5.6,176.5-23.32h0Zm-468.02-45.24l-.59,3.29c3.52,.98,7.01,2.11,10.59,2.91,41.69,9.37,76.58,28,100.77,57.9,18.2,22.51,32.26,47.39,48.86,70.86,3.88,5.43,9.23,9.64,15.42,12.12,15.11,5.53,30.95,9.68,46.62,14.05,49.56,13.81,86.64,39.5,108.5,79.88,1.99,3.68,4.49,7.15,6.75,10.73,3.69-34.17,1.24-67.08-17.09-97.67-2.35-3.93-8.24-7.97-13.31-8.92-42.78-8.1-73.49-29.54-96.37-59.95-10.1-13.41-19.22-27.36-29.93-40.4-4.24-5.16-10.85-10.47-17.68-12.33-29.1-7.94-58.45-15.48-88.2-21.47-24.42-4.92-49.54-7.43-74.34-11h0Zm-89.54-30.42c-.22,.83-.19,1.7,.07,2.51,22.07,41.98,23.97,86.04,19.54,130.85-.89,7.87-.65,15.83,.72,23.63,14.56,75.78,81.84,112.44,155.87,148.33-6.55-22.47-15.39-41.33-31.44-55.64-36.49-32.51-52.64-72.81-66.88-114.06-10.13-29.32-18.77-58.99-28.31-88.45-7.3-22.53-21.53-40.19-49.57-47.18h0Zm-580.46,179.41c32.67-9.84,64.88-19.4,96.96-29.26,14.62-4.51,29.16-9.26,43.34-14.62,4.22-1.59,9.16-5.18,10.31-8.64,12.94-39.18,25.2-78.51,37.62-117.7-3.42-.92-4.34-1.45-5.13-1.34-4.18,.59-8.39,1.15-12.47,2.08-40.03,9.04-74.27,24.17-94.04,57.44-7.9,13.29-19.21,25.62-31.24,36.61-24.22,22.12-31.36,50.64-45.35,75.43h0Zm277.38,131.6c-24.37,21.42-41.8,43.28-53.24,68.43-22.42,49.31-20.35,100.4-15.4,151.66,1.07,11.06,2.92,22.08,4.41,33.09,71.12-75.26,93.64-158.41,64.23-253.19h0Zm564.33-127.37c22.42,74.9,65.36,133.02,163.26,150.03,.65-12.22,6.08-26.56,1.17-37.7-17.6-39.99-44.54-74.72-94.7-91.32-22.76-7.54-46.06-13.92-69.73-21.01h0ZM35.44,875.71c87.23,38.19,175.83,56.82,270.36,19.58-101.1-48.77-194.09-59.37-270.36-19.58h0Zm466.13,95.89l1.43-4c-9.82-4.79-19.3-13.04-29.54-13.76-44.33-3.11-82.53-18.43-120.05-36.77-7.58-3.7-19.57-5.3-27.75-3.13-48.37,12.84-95.58,29.29-147.96,29.59,40.61,14.71,82.15,26.2,126.68,20.7,51.13-6.31,101.37-7,151.74,4.52,14.39,3.29,30.26,2.03,45.46,2.85h0Zm122.7-54.52c-81.95-30.39-162.54-42.41-247.85-14.96,36.86,7.91,67.54,23.18,97.47,39.89,4.66,2.59,11.81,4.74,16.83,3.73,44.14-9,88.06-18.78,133.54-28.65h0Zm-847.04,102.63c-19.4,2.05-37.46,4.31-55.6,5.71-9.92,.76-14.83,4.44-17.21,12.54-9.78,33.46-20.09,66.82-30.12,100.22-.24,.79,.63,1.82,1.14,3.16,55.32-27.77,85.69-69.46,101.8-121.63h0Zm390.78,54.71c23.97,63.17,78.64,96.42,148.6,120.48-32.36-56.9-71.09-103.99-148.6-120.48h0Zm-303.48-47.31c-30.89,38.97-40.67,79.56-35.03,123.22,6.05,46.89,27.13,89.71,50.21,131.99,1.55,2.53,3.24,4.97,5.07,7.3-17.91-86.42-36.62-172.28-20.25-262.51Zm239.81-36.33c12.26,13.4,17.58,31.55,40.96,35.82,53.18,9.72,106.18,20.13,161.84,30.74-23.89-24.37-49.4-43.22-82.72-53.47-5.24-1.62-11.05-3.28-16.43-2.96-35.2,2.06-69.69-.12-103.65-10.12h0Zm153.33-19.93c-2.54-.78-5.11-1.43-7.72-1.94-32.99-4.15-64.64-11.49-93.2-26.66-2.97-1.34-6.16-2.15-9.41-2.37-40.7-4.57-78.71-16.37-115.96-30.25-3.53-1.31-7.22-2.37-13.72-4.5,67.1,59.86,142.78,89.07,240.01,65.71h0Zm-415.1-115.88l-2.88-2.5c-30.04,21.19-64.68,34.3-102.81,40.34-37.69,5.97-75.67,10.74-113.5,16.03l-.27,3.1c36.89,7.33,73.75,14.8,110.74,21.7,2.93,.55,7.38-2.46,10.33-4.58,25.4-18.27,50.68-36.67,75.83-55.19,7.95-5.88,15.06-12.58,22.56-18.91h0Zm27.41,85.56c-5.96,.67-7.41,.53-8.49,.99-30.79,13.36-63.31,20.37-98.14,19.32-3.04-.09-7.48,.29-9.01,1.93-10.99,11.92-21.39,24.23-33.89,38.6,52.66-3.78,97.56-14.08,134.14-42.22,5.66-4.36,9.04-10.81,15.39-18.63h0Zm482.03,157.39c29.1,56.29,80.46,96.77,121.27,94.85-44.71-28.12-68.82-72.33-121.28-94.85h0Zm-789.3-27.24l-2.19-2.02c-33.33,29.83-66.65,59.66-102.08,91.36,24.09-4.55,46.85-8.82,59.72-24.02,17.23-20.35,29.91-43.42,44.55-65.31h0Zm1213.64,52.19c-33.43-19.61-88.97-33.3-114.55-21.79,35.29,17.38,71.4,27.68,114.55,21.79Zm-1145.71-106.24c20.18-3.8,36.67-6.82,53.1-10.06,2.53-.51,6-1.59,6.94-3.24,7.3-12.93,14.09-26.05,22-40.92-34.26,11.5-58.37,30.2-82.03,54.22h0Zm73.65,611.59c-14.43,23.5-28.58,82.98-26.36,110.23,23.85-34.89,31.61-70.18,26.37-110.23h0ZM-127.38,882.19l-80.46,47.8,2.12,2.96c24.62-3.81,46.46-13.15,68.08-23.69,12.8-6.24,14.18-14.08,10.27-27.07Zm497.59,32.16c26.12,15.07,53.99,26.49,86.11,28.96-25.93-15.32-54.28-25.72-86.11-28.96h0Zm172.05,468.39c-12.2-16.29-23.56-31.49-36.1-48.24-1.22,8.5-2.89,15.13-2.8,21.76,.3,3.77,2.31,7.19,5.45,9.28,10.32,6.01,21.39,11.11,33.45,17.2h0Zm-1067.71-148.04l-6.61-3.21-40.73,58.63,6.17,3.05c13.72-19.49,27.45-38.98,41.17-58.47h0Z"/>
    <path id="Path_833-2" data-name="Path 833" class="cls-1" d="M1074.19,1056.97c-54.64-18.23-104.35-11.07-153.53,14.85-30.81,16.23-64.74,28.19-97.37,41.89-17.06,7.16-32.8,6.21-49.97-2.39-34.28-17.18-71.29-25.99-111.78-18.95-4.58,.58-9.21-.46-13.1-2.93-47.33-34.75-94.35-69.79-141.99-105.18,17.03-6.29,29.33-2.98,40.18,7.07,4.82,4.46,10.95,7.93,16.62,11.69,38.45,25.52,81.12,37.46,130.39,31.12,49.08-6.31,98.19-16.46,148.27-4.04-12.77-3.86-25.79-8.46-38.64-8.13-35.32,.89-70.89,2.02-105.77,6.38-63.36,7.93-112.51-12.64-155.08-49.41,18.16-7,35.54-13.79,53.03-20.41,16.18-6.14,32.5-12.05,48.68-18.18,21.56-8.16,42.71-5.59,62.21,3.81,15.76,7.59,29.96,17.51,44.86,26.4,4.16,2.48,8.34,4.95,12.52,7.4l2.57-3.45c-24.94-14.29-49.88-28.56-74.47-42.65,1.16-.11,3.41-.49,5.68-.56,68.23-2.37,133.79,6.7,195.75,32.2,15.54,6.61,31.5,12.21,47.76,16.75,26.38,7.05,61.1,4.3,78.78-4.63-45.67,7.58-64.81,5.68-105.9-10.72-10.85-4.34-21.36-9.33-32.34-13.39-103.3-38.24-206.5-44.02-309.59,.79-8.47,3.68-18.03,5.51-26.77,8.8-20.05,7.55-34.39,.72-47.58-13.12,8.93-1.47,17.07-2.19,24.76-4.18,33.48-8.63,66.7-18.03,100.29-26.29,12.42-3.04,25.14-4.75,37.92-5.1,21.05-.55,42.16,.74,63.23,.8,9.59,.02,20.12,.9,28.6-2.03,32.47-11.23,63.4-26.18,96.58-35.38,40.7-11.28,83.05-22.08,124.95-1.25,.18,.08,.77-.42,1.81-1.02-5.21-3.17-10.21-6.22-17.94-10.94,9.82,.4,15.98,.69,22.16,.88,46.42,1.41,91.13,10.31,135.37,21.7,25.38,6.55,51.31,9.45,77.65,2.25-37.25,4.32-71.44-6.51-106.65-13.74-37.14-7.62-75.04-14.26-113.02-16.84-57.42-3.91-114.76,.4-166.81,23.87-50.75,22.87-104.06,25.58-158.11,16.22-35.95-6.23-70.69-17.78-105.66-27.74-38.14-10.86-76.62-15.05-116.11-7.07-30.3,6.11-60.59,12.32-90.56,19.48-10.01,2.39-17.41,2.16-26.58-2.69-40.22-21.28-88.72-35.6-138.6-43.97-49.88-8.37-74.12-6.37-74.12-6.37,0,0,9.77-1.99-55.68,3.96-2.1,.19-23.41,4.4-27.97,0-11.67-11.25-10.7-44.44-10.7-44.44l-157.28-13.41s1.41,18.95-3.35,34.05c-4.77,15.1-15.55,28.36-15.55,28.36-29.48,20.74-63.19,33.83-100.51,40.1-42.79,7.19-85.74,13.74-128.67,20.35-8.33,1.28-16.85,1.74-25.32,2.19-29.1,1.59-58.57,1.11-87.26,4.91-45.34,6.01-88.17,3.08-127.35-18.16-76.94-41.73-160.11-47.28-246.42-30.03-21.61,4.32-41.09,3.53-61.97-.6-22.57-4.46-45.71-6.85-68.6-10.14l-.22,1.45c30.99,5.41,61.96,10.81,92.93,16.21-51.37,20.23-98.69,51.88-159.77,31.17,2.66,2.03,5.67,3.55,8.88,4.47,37.16,11.42,72.71,6.98,107.03-8.2,55.87-24.7,115.74-33.93,178.12-32.91,33.49,.55,65.72,6.31,95.75,19.48,2.41,1.17,4.74,2.49,6.97,3.96-18.04,3.68-36.82,5.65-53.84,11.39-42.78,14.41-81.77,37.53-130.1,38.9,29.28,2,56.37-4,82.42-14.26,19.14-7.53,38.05-15.61,57.72-21.99,22.93-7.44,47.95-11.07,70.04-1.03,28.21,12.83,55.46,26.67,88.04,30.24-38.16,30.29-74.81,60.12-112.5,88.94-14.18,10.85-30.43,19.87-46.42,28.86-56.83,31.98-115.97,34.75-175.38,6.39-31.44-15.19-62.1-31.95-91.86-50.21-41.96-25.48-86.15-34.12-135.86-19.81-35.93,10.36-72.18,20.08-111.21,17.56,15.06,2.04,30.34,3.68,44.93,1.66,22.15-2.92,44.06-7.42,65.57-13.45,49.37-14.2,92.63-6.1,134.09,19.86,32.36,20.26,67.24,37.63,100.94,56.35,1.28,.71,2.12,2.02,4.07,3.93-33.65,3.68-58.31,18.8-80.98,36.99-28.82,23.14-57.12,46.92-95.95,58.47,1.9,.32,3.84,.22,5.7-.27,30.86-7.58,55.21-23.85,78.42-41.9,14.5-11.28,28.92-22.94,45.14-32.17,25.55-14.54,52.96-21.11,84.41-11.45,15.33,4.71,32.97,5.83,49.51,5.59,37.39-.54,70.13-14.22,98.89-33.02,30.72-20.08,58.59-43.29,88.39-64.41,23.13-16.39,46.15-33.21,71.36-47.03,24.8-13.6,54.05-16.53,86.73-16.58-15.88,9.37-28.92,17.06-41.97,24.75,32.83-15.54,64.24-34.48,102.61-17.17-17.24,8.66-37.09,15.91-52.99,27.18-26.08,18.48-50.47,38.85-73.92,59.76-20.82,18.57-39.17,39.14-59,58.54-31.15,30.45-70.61,45.33-118.15,44.93-19.67-.16-39.4-.32-59.02,.63-25.5,1.22-49.84,6.67-71.87,18.31,8.71-1.64,16.99-5.48,25.63-6.17,36.17-2.86,72.41-6.19,108.66-6.67,46-.59,84.19-14.41,115.3-42.6,14.42-13.08,27.66-27.11,41.45-40.7,30.48-30.04,61.91-59.26,101.94-80.5,43.53-23.08,89.07-30.29,139.01-10.75-34.44,16.38-59.32,40.32-81.97,66.24-2.09,2.4-5.88,4.21-9.32,5.18-32.08,9.09-56.79,26.84-78.38,48.13-17.87,17.6-34.92,35.83-53.08,53.21-25.1,24.05-52.74,45.13-91.36,52.51-7.35,1.4-13.93,5.62-21.25,7.38-12.13,2.9-24.62,7-36.88,6.8-32.69-.56-64.01,3.21-94.22,13.95-61.97,22.01-113.09,56.32-156.83,99.16-21.76,21.31-44.88,41.16-77.51,50.44,43.17-6.28,67.48-34.93,96.39-60.66-8.84,26.05-16.99,50.05-25.14,74.05,8.9-15.89,13.12-33.07,20.66-49.12,6.98-14.86,14.24-31.35,27.16-42.12,32.34-26.99,70.97-47.18,112.91-62.22,30.37-10.9,61.99-15.46,93.93-12.58-14.29,13.54-31.68,25.42-42.01,40.72-24.16,35.77-44.93,73.19-67.07,109.94,7.09-6.67,14.24-13.64,19.19-21.61,12.31-19.82,22.58-40.58,35.65-60.01,11.1-16.5,23.28-32.97,38.19-46.97,10.15-9.53,25.08-19.28,39.24-21.04,31.43-3.95,58.85-13.93,84.99-28.09,2.88-1.52,5.93-2.66,9.1-3.42,21.78-5.35,43.61-10.56,65.2-15.73-9.32,20.28-19.18,41.78-29.16,63.25-.81,1.55-1.98,2.89-3.41,3.9-26.22,19.78-41.9,45.58-55.18,72.3-7.06,14.21-18.04,23.49-33.83,29.69-21.77,8.55-43.72,16.77-65.18,25.83-21.73,9.17-41.02,21.28-56.07,37.92,38.45-31.73,89.98-42.23,137.33-60.72l-34.67,46.5,3.8,2.04c12.23-16.3,24.47-32.59,36.72-48.9,3.32-4.43,5.75-9.81,10.28-13.03,28.12-20.04,46.24-45.83,58.18-74.6,5.78-13.95,15.83-22.88,30.65-28.71,12.14-4.79,24.53-9.24,37.15-13.05,27.1-8.16,54.42-15.84,81.67-23.67,2.81-.81,5.74-1.32,10.07-2.3-1.36,3.49-2.04,5.39-2.83,7.25-16.62,39.26-43.21,72.33-81.46,98.96-51.86,36.11-94.29,78.95-110.31,135.5-11.15,39.36-36.54,67.39-75.89,87.93-16.75,8.74-34.43,16.49-49.97,26.59-16.76,10.89-31.52,24.01-47.17,36.15,21.23-11.96,39.9-26.45,60.91-37.81,38.26-20.69,80.33-37.03,103.21-73.87,.78,4.56,.75,9.23-.08,13.78-5.4,36.14-20.21,69.49-41.24,101.04-13.61,20.41-25.04,39.02-41.79,57.29h13.78c6.07-14.15,74.5-108.48,80.25-167.66,4.26-43.85,25.2-81.32,56.22-114.54,20.98-22.47,47.39-41.25,71.37-61.69l3.68,2.66c-28.96,53.22-13.59,113.72-39.21,167.59,5.78-9.56,11.3-19.31,13.34-29.54,5.51-27.71,9.68-55.62,14.13-83.49,4.4-27.55,11.96-54.88,35.69-74.68,31.57-26.37,50.91-57.93,64.37-92.77,3.2-8.28,7.98-13.8,17.27-17.98,34.12-15.35,63.74-35.75,82.25-64.87,12.65-19.92,20.93-41.85,31.44-62.77,1.91-3.79,4.26-8.88,8-10.27,12.45-4.63,25.64-7.85,40.33-12.13-3.8,6.96-6.66,12.46-9.79,17.86-30.4,52.33-61.74,104.65-76.15,162.01-6.66,26.5-20.77,44.41-45.37,60.74-51.23,34.01-89.81,76.8-109.66,130.45-13.22,35.74-18.48,72.54-19.42,109.77-.95,37.52-16.43,70.34-44.12,98.66-15.04,15.38-33.58,28.76-50.46,42.81l11.94-.05c5.24-4.35,11.96-7.96,17.17-12.32,25.6-21.42,47.1-45.13,59.83-74.02,1.16-2.32,2.44-4.57,3.83-6.76,4.14,31.56,17.71,62.29,17.92,93.41h16.88c-1.66-15.79-15.39-31.17-16.41-46.98-1.97-30.54-4.09-61.2-3.1-91.72,1.87-57.08,15.48-111.75,54.36-159.97,26.02-32.26,59.5-58.04,95.64-81.51,6.4,24.49,12.12,47.95,18.83,71.2,2.18,7.53,1.02,12.55-5.51,18.4-40.23,35.96-61.22,79.14-66.31,128.48-4.99,48.37,1.52,96.15,7.69,144.03,.78,6.05,4.63,12.48,2.19,18.1h18.88c3.56-12.03,4.11-24.74,11.41-29.99,0,9.88,8.35,19.69,8.11,29.99h4.76c2.29-27.51,2.85-53.52,21.45-78.61,13.54-18.25,22.75-39.66,29.23-60.68,15.65-50.7,13.3-101.92-1.87-152.59-10.33-34.54-21.68-69.43-13.68-105.01,7.45-33.07,20-65.33,30.46-97.9,.86-2.69,2.89-5.11,4.92-8.58,2.96,17.62,4.72,33.87,8.56,49.74,11.7,48.4,37.15,92.4,61.43,136.79,7.68,14.22,13.97,29.15,18.78,44.58,27.22,85.68,13.06,167.06-35.83,244.91-5.76,9.16-11.4,18.09-16.92,27.36h10.92c11.22-18.44,23.02-36.45,34.64-54.94,1.37,11.97,2.52,22.1,3.68,32.23-6.88-37.37,14.38-70.14,24.06-108.31,13.21,45.92,44.19,87.38,57.22,131.04h1.76c-7.92-25.91-25-51.46-34.01-77.11-10.99-31.24-25.46-61.73-21.31-95.37,1.15-9.33,2.1-18.67,2.85-28.03,2.29-29.59-10-56.79-18.05-84.92-18.86-65.86-32.51-132.59-35.57-200.55-3.2-71.09,10.43-139.03,53.57-201.22,2.76-3.97,6.4-7.51,10.32-12.05,35.56,24.99,66.08,51.6,92.59,82,27.82,31.9,35.78,66.95,24.35,104.18-9.29,30.21-22.13,59.82-36.04,88.78-23.08,48.01-36.95,96.9-28.37,149.23-4.74-53.65,13.25-103.02,37.92-151.26,17.93-35.05,35.98-70.16,39.52-109.31,2.12,5.02,3.94,10.09,3.77,15.1-1.19,34.22-2.09,68.48-4.43,102.65-3.18,46.4-1.62,92.44,16.07,136.76,10.62,26.63,10.47,52.75,3.36,79.46-10.98,40.43-12.59,82.82-4.72,123.97,5.17,27.04,22.09,53.01,33.02,78.02h1.01c3.03,0,.88-.03,5.35,0h28.09c-14.9-13.31-43.98-28.79-50.36-47.91-20.84-62.54-5.68-122.78,10.7-182.3,35.5,31.43,72.54,62.7,107.35,95.68,17.17,16.25,31.46,35.01,44.83,53.77,17.86,25.04,26.64,52.13,27.29,80.75h10.98c.56-36.26-11.84-68.8-34.04-99.27-23.97-32.89-54.68-60.87-87.1-87.68-11.88-9.82-23.09-20.22-34.61-30.36,38.69,7.23,76.42,14.28,114.15,21.33-15.23-4.33-30.29-9.17-45.74-12.82-11.02-2.6-22.68-3.18-33.86-5.37-40.6-7.94-60.71-21.64-73.91-65.64-10.32-34.35-21.12-68.35-16.63-104.31,.88-7.07,.88-14.22,1.28-21.16,.97-.09,1.94-.09,2.9,.01,25.3,49.89,74.06,79.55,126.36,106.18,7.39,3.77,14.44,8.34,22.36,10.99,13.82,4.63,19.3,12.99,20.57,25.04,2.16,20.26,5.51,40.44,7.88,60.69,.36,3.1-1.8,6.4-2.8,9.62,2.16,5.27,4.68,10.45,6.42,15.82,7.74,23.92,15.05,47.93,22.99,71.79,1.81,5.42,5.38,10.44,8.45,15.51,2.78,4.59,6,9,9.02,13.49-38.26-62.16-33.62-131.06-46.37-199.06,34.88,16.41,59.26,38.01,71.93,68.12,6.78,16.11,11,32.99,17.87,49.06,8.86,20.72,19.19,41,28.88,61.48-10.49-31.84-23.42-62.7-33.97-94.14-12.88-38.44-38.2-68.07-78.7-88.36-3.2-1.61-7.46-3.45-8.59-6.02-5.82-13.25-10.78-26.8-17.39-43.68,24.71,17.92,47.62,32.35,67.43,49.38,35.32,30.35,64.27,65.41,69.43,108.8,5.9,49.68,24.72,94.4,57.97,134.76,8.7,10.53,15.19,22.71,19.08,35.81h21.04c-53.32-53.17-88.14-114.71-88.93-192.01,21.9,19.94,48.47,32.28,78.72,38.82,16.72,3.61,33.91,5.99,50.22,10.65,8.82,2.51,18.29,7.29,23.87,13.4,14.51,15.97,27.02,33.23,40.33,49.99l2.52-1.25c-12.85-18.09-25.69-36.17-40.61-57.16,19.19,7.82,35.2,14.35,51.21,20.87l1.51-2.68-50.76-21.64c-3.82-1.63-8.88-2.42-11.26-5-27.43-29.87-35.83-63.62-27.97-104.05,23.59,13.53,44.87,25.72,66.59,38.17,.14-1.91,.59-2.91,.18-3.4-1.41-1.68-2.96-3.24-4.63-4.66-23.2-20.09-39.77-43.86-52.92-69.45-2.03-3.97-3.8-8.55-3.55-12.76,2.15-37.07,3.26-74.01-12.06-108.72,22.14,7.53,43.5,17.37,66.31,21.81,20.83,4.06,38.5,11.35,51.9,24.13,14.53,13.86,27.11,29.48,38.49,45.39,12.17,17.04,21.32,35.62,32.95,52.97,14.81,22.1,34.29,39.77,50.95,47.68-26.06-20.07-44.29-44.83-59.52-71.35-19.93-34.71-37.94-70.55-81.2-94.78,40.32-2.31,74.34,4.45,106.57,17.62,49.32,20.15,93.25,46.81,130.87,80.8,12.17,10.99,23.82,22.63,37.54,32.05,12.96,8.89,28.32,15.28,42.64,22.77l2.65-3.59c-32.07-9.89-52.83-31.39-75.85-50.97-24.36-20.69-50.9-39.53-76.66-59.02-1.91-1.44-5.17-1.59-7.8-2.34,18.89-3.94,34.12-5.44,48.91-8.49,19.08-3.94,37.74-9.32,56.7-13.69,11.56-2.67,22.18-2.16,31.72,5.93,6.13,5.2,14.52,8.49,21.89,12.64-2.75-4.19-6.83-6.69-10.76-9.34-4.24-2.86-8.35-5.86-14.87-10.46,7.74-.43,11.94-.66,17.6-.98q-24.47-3.07-39.82-18.21c-33.51-33.05-56.08-74.43-103.82-96.12,21.86-8.69,40.91-6.17,61.42,2.02,18.96,7.56,40.46,10.5,60.84,15.48l.46-1.79c-25.84-7.51-51.67-15.02-77.5-22.54,20.21-10.56,39.83-17.07,57.96-25.83,29.72-14.37,59.47-13.85,89.84-3.13,15.49,5.46,30.22,12.52,45.82,17.74,12.94,4.33,26.63,7.01,40,10.43l1.14-3.29c-48.72-6.34-86.29-40.22-138.49-38.44,13.41-7.95,27.23-15.19,41.4-21.69,31.39-14.33,64.4-18.09,98.87-9.41,17.02,4.27,33.84,9.11,50.83,13.45,33.42,8.52,57.78,9.77,83.66,4.1-37.99,3.57-73.66-4.78-108.21-16.3Zm-1654.29,239.98l-6.26-3.13c13.78-20.07,27.56-40.15,41.34-60.22,2.24,1.1,4.49,2.19,6.72,3.3l-41.8,60.06Zm276.87,303.43c-1.51-11.31-3.38-22.62-4.48-33.99-5.03-52.64-7.13-105.11,15.64-155.75,11.62-25.84,29.3-48.29,54.05-70.28,29.86,97.34,7.01,182.73-65.21,260.02h0Zm-84.25-695l.26-3.18c38.43-5.44,76.97-10.33,115.24-16.46,38.71-6.2,73.89-19.66,104.37-41.44l2.93,2.58c-7.61,6.49-14.83,13.37-22.9,19.42-25.46,19.08-51.12,37.97-76.98,56.68-3,2.18-7.51,5.26-10.49,4.69-37.56-7.08-74.98-14.77-112.43-22.3h0Zm90.91,51.83c-8.02,15.26-14.9,28.75-22.32,42.02-.95,1.7-4.48,2.82-7.04,3.32-16.68,3.35-33.43,6.45-53.9,10.34,24.01-24.66,48.48-43.87,83.27-55.68h0Zm-258.1,202.94c35.96-32.56,69.8-63.19,103.64-93.82l2.22,2.08c-14.86,22.49-27.73,46.18-45.23,67.08-13.07,15.61-36.17,19.99-60.64,24.66Zm187.96-8.89c-1.18,3.57-6.19,7.24-10.46,8.89-14.4,5.51-29.16,10.4-44,15.01-32.57,10.13-65.27,19.95-98.45,30.05,14.21-25.46,21.46-54.74,46.04-77.47,12.23-11.3,23.7-23.96,31.73-37.61,20.08-34.16,54.83-49.69,95.47-58.99,4.14-.95,8.41-1.52,12.65-2.12,.8-.12,1.74,.43,5.21,1.38-12.6,40.24-25.06,80.63-38.19,120.86h0Zm32.34-10.24c-.52-1.38-1.4-2.43-1.16-3.24,10.19-34.32,20.68-68.56,30.6-102.93,2.4-8.33,7.4-12.1,17.46-12.88,18.43-1.45,36.77-3.78,56.46-5.88-16.37,53.59-47.18,96.39-103.36,124.92h0Zm45.72-143.77c12.67-14.76,23.25-27.4,34.4-39.64,1.54-1.69,6.05-2.07,9.14-1.98,35.35,1.06,68.38-6.13,99.64-19.85,1.09-.47,2.56-.34,8.62-1.03-6.44,8.04-9.89,14.65-15.64,19.13-37.12,28.89-82.72,39.49-136.16,43.36h0Zm166.81,296.06c-1.85-2.41-3.57-4.91-5.15-7.5-23.42-43.44-44.83-87.41-50.98-135.56-5.71-44.83,4.21-86.54,35.58-126.56-16.62,92.67,2.36,180.85,20.54,269.61h0Zm-22.76-390.62c-21.95,10.82-44.12,20.42-69.11,24.31l-2.16-3.03c26.77-16.09,53.53-32.17,81.68-49.09,3.97,13.34,2.58,21.39-10.42,27.8h0Zm653.62,436.73c12.73,17.21,24.26,32.81,36.65,49.54-12.24-6.24-23.48-11.48-33.97-17.65-3.2-2.18-5.23-5.69-5.53-9.54-.08-6.81,1.62-13.63,2.86-22.35h0Zm16.6-324.71c22.85,17.42,44.58,35.89,67.28,53.45,13.08,10.11,27.07,19.37,42.8,30.54-59.2,18.19-116.46,36.04-179.19,23.94-27.89-5.38-53.08-15.04-74.51-32.37-12.24-9.89-27.78-17.4-43.09-23.78-10.32-4.22-19.76-10.34-27.82-18.04-21.04-19.73-43.76-38.17-65.69-57.03,28.31-4.56,59.44-11.93,90.98-13.71,16.45-.93,33.7,7.9,50.52,12.5,4.78,1.3,9.31,3.28,15.26,2.34-13.55-5.49-27.1-10.97-41.89-16.97,2.16-.98,3.47-2.04,4.86-2.13,59.77-3.94,114.66,6.35,160.46,41.27h0Zm-49.99,179.12c-41.44,1.98-93.59-39.6-123.13-97.42,53.27,23.13,77.75,68.54,123.13,97.42Zm-168.67-139.06c-56.51-10.91-110.32-21.59-164.32-31.57-23.72-4.39-29.14-23.02-41.58-36.78,34.49,10.28,69.5,12.51,105.23,10.39,5.47-.33,11.36,1.39,16.68,3.04,33.84,10.52,59.74,29.88,83.99,54.93Zm321.95-144.04c-46.18,10.13-90.76,20.17-135.57,29.43-5.1,1.05-12.37-1.16-17.09-3.84-30.38-17.16-61.54-32.84-98.97-40.96,86.6-28.2,168.43-15.86,251.62,15.37Zm-170.5,26.95c-32.61-2.54-60.91-14.27-87.43-29.74,32.33,3.33,61.11,14,87.43,29.74h0Zm-132.65-30.16c8.3-2.23,20.48-.59,28.18,3.21,38.08,18.83,76.87,34.55,121.87,37.75,10.38,.74,20,9.21,29.98,14.12l-1.45,4.12c-15.42-.85-31.52,.45-46.13-2.93-51.13-11.84-102.13-11.13-154.06-4.64-45.21,5.64-87.36-6.15-128.59-21.25,53.18-.31,101.11-17.21,150.21-30.39h0Zm-20.16-19.15c-95.98,38.24-185.92,19.11-274.48-20.11,77.43-40.87,171.83-29.98,274.48,20.11h0Zm-292.54,10.08c6.61,2.17,10.34,3.27,13.94,4.63,37.81,14.27,76.39,26.37,117.71,31.07,3.3,.23,6.54,1.05,9.55,2.43,28.99,15.57,61.14,23.11,94.62,27.39,2.65,.52,5.26,1.18,7.83,1.99-98.7,23.97-175.54-6.03-243.66-67.5h0Zm235.5,436.11c-75.17-36.85-143.46-74.5-158.25-152.32-1.39-8.02-1.64-16.19-.74-24.27,4.5-46.01,2.57-91.25-19.84-134.37-.27-.84-.29-1.74-.06-2.59,28.46,7.17,42.91,25.33,50.32,48.46,9.7,30.25,18.47,60.72,28.74,90.82,14.46,42.37,30.86,83.76,67.91,117.15,16.3,14.68,25.26,34.05,31.92,57.13h0Zm255.86,105.28c4.2,11.87,11.86,22.85,18.5,35.17-50.39-9.23-100.89-16.46-135.7-53.05-3.26-3.43-6.52-7.12-8.48-11.15-19.3-39.69-47.64-74.62-88.31-99.4-68.37-41.64-101.86-100.08-121.68-166.5-5.86-19.64-11.39-39.36-17.07-59.04l1.93-.54c1.42,1.96,2.72,4,3.89,6.11,17.1,35.76,46.08,62.86,85.13,81.8,21.14,10.26,43.48,18.89,65.75,27.33,9.35,3.54,16,7.61,19.54,16.17,5.88,14.21,13.52,27.89,19.58,42.05,20.52,47.89,56.47,83.53,114.31,99.57,27.22,7.55,41.53,17.81,36.08,44.38-2.41,11.74,2.3,25.13,6.52,37.09h0Zm-338.72-367.53c78.7,16.94,118.02,65.3,150.86,123.74-71.03-24.7-126.52-58.85-150.86-123.74h0Zm334.95,291.37c-99.39-17.47-142.98-77.16-165.75-154.1,24.02,7.29,47.68,13.85,70.78,21.59,50.93,17.05,78.29,52.71,96.16,93.79,4.98,11.43-.53,26.18-1.19,38.72Zm1.98-52.9c-2.29-3.66-4.84-7.23-6.85-11.01-22.2-41.47-59.83-67.86-110.16-82.04-15.91-4.49-31.99-8.75-47.32-14.43-6.31-2.56-11.75-6.89-15.67-12.46-16.86-24.1-31.12-49.64-49.6-72.77-24.55-30.72-59.98-49.85-102.3-59.47-3.64-.83-7.18-1.98-10.77-2.98l.6-3.38c25.19,3.66,50.68,6.23,75.48,11.29,30.19,6.14,59.99,13.9,89.54,22.05,6.94,1.91,13.64,7.37,17.94,12.67,10.88,13.39,20.14,27.71,30.38,41.48,23.25,31.23,54.42,53.26,97.84,61.57,5.14,.98,11.11,5.12,13.51,9.17,18.62,31.41,21.09,65.21,17.36,100.3h0Zm283.96-155.19c12.84,8.11,23.35,19.25,33.53,29.99,18.91,19.92,36.83,40.54,55.09,60.78-26.26,6.11-52.8,12.86-79.7,18.38-23.44,4.83-46,3.47-67.87-7.48-39.95-19.98-83.02-31.09-130.07-30.17-9.49,.18-19.32-3.41-28.6-6.22-11.23-3.42-22.21-7.55-32.99-11.93-13.72-5.56-29.22-9.66-40.24-17.96-25.62-19.3-49.01-40.73-72.12-63.05,42.92,11.21,85.01,9.95,126.72,.51,27.26-6.17,54.1-13.9,80.64-22.04,9.64-2.96,16.39-2.39,24.95,2.27,25.7,13.96,53.77,21.97,84.17,26.53,16.49,2.47,32.55,11.6,46.49,20.39h0Zm-119.58-55.93c25.98-11.83,82.37,2.25,116.31,22.39-43.83,6.04-80.47-4.54-116.31-22.39h0Z"/>
  </g>
</svg>