<?xml version="1.0" encoding="UTF-8"?>
<svg id="Layer_1" data-name="Layer 1" xmlns="http://www.w3.org/2000/svg" xmlns:xlink="http://www.w3.org/1999/xlink" viewBox="0 0 3000 2000">
  <defs>
    <style>
      .cls-1 {
        fill: url(#linear-gradient);
      }

      .cls-1, .cls-2 {
        isolation: isolate;
        opacity: .4;
      }

      .cls-2 {
        fill: #914e26;
      }
    </style>
    <linearGradient id="linear-gradient" x1="-1.04" y1="2002.51" x2="-1.04" y2="2000.55" gradientTransform="translate(865.49 1431706.35) rotate(-180) scale(2059.16 714.98)" gradientUnits="userSpaceOnUse">
      <stop offset="0" stop-color="#653317"/>
      <stop offset="1" stop-color="#914e26"/>
    </linearGradient>
  </defs>
  <g id="Group_727" data-name="Group 727">
    <path id="Path_832" data-name="Path 832" class="cls-2" d="M2610.79,993.84c17.85-4.15,36.72-5.09,54.84-8.58,65.79-12.71,98.36-34.66,119.76-105.12,16.7-55.01,34.2-109.47,26.95-167.07-1.42-11.32-1.44-22.77-2.08-33.89-1.57-.15-3.15-.14-4.72,.03-40.96,79.88-119.99,127.4-204.72,170.05-11.98,6.03-23.39,13.33-36.22,17.58-22.38,7.4-31.24,20.81-33.32,40.12-3.48,32.45-8.9,64.76-12.76,97.2-.58,4.95,2.9,10.26,4.51,15.39-3.5,8.45-7.58,16.75-10.38,25.33-12.54,38.3-24.38,76.77-37.27,114.98-2.91,8.68-8.69,16.73-13.67,24.84-4.52,7.36-9.73,14.41-14.63,21.6,61.98-99.53,54.47-209.87,75.12-318.79-56.52,26.28-96,60.87-116.55,109.11-10.96,25.79-17.83,52.81-28.95,78.55-14.33,33.2-31.07,65.69-46.78,98.46,16.99-50.99,37.95-100.4,55.02-150.77,20.88-61.56,61.9-109,127.52-141.5,5.19-2.57,12.07-5.53,13.9-9.63,9.43-21.24,17.48-42.91,28.17-69.96-40.03,28.7-77.12,51.8-109.24,79.06-57.22,48.6-104.11,104.75-112.47,174.25-9.57,79.57-40.07,151.21-93.92,215.82-25.76,30.91-35.83,64.42-39.23,100.74-2.12,22.6-5.83,45.08-8.85,67.62l-4.86-.49c4.9-39.74,9.82-79.5,13.3-107.56-19.62,14.05-47.83,33.47-74.93,53.91-45.61,34.41-96.14,65.2-122.54,114.39,13.63-39.5,46.17-67.03,80.95-93.3,135.94-102.67,233.54-222.11,235.25-385.48-35.48,31.93-78.52,51.71-127.54,62.16-27.1,5.79-54.96,9.59-81.36,17.04-14.31,4.04-29.65,11.67-38.67,21.47-23.5,25.57-43.78,53.24-65.36,80.07l-4.07-2.01c20.8-28.96,41.63-57.92,65.79-91.55-31.09,12.53-57.01,22.98-82.96,33.43l-2.45-4.29c27.41-11.56,54.83-23.12,82.24-34.68,6.16-2.59,14.39-3.86,18.22-8,44.46-47.82,58.05-101.87,45.34-166.62l-107.87,61.12c-.23-3.04-.95-4.64-.29-5.42,2.28-2.69,4.79-5.19,7.48-7.47,37.58-32.18,64.41-70.24,85.72-111.24,3.3-6.34,6.16-13.68,5.75-20.41-3.48-59.38-5.27-118.54,19.56-174.14-35.89,12.08-70.47,27.81-107.43,34.94-33.76,6.5-62.37,18.16-84.08,38.62-23.56,22.21-43.92,47.21-62.35,72.7-19.73,27.27-34.55,57.03-53.39,84.81-23.99,35.41-55.54,63.7-82.57,76.36,42.25-32.12,71.78-71.77,96.45-114.24,32.29-55.61,61.47-112.98,131.56-151.8-65.34-3.71-120.44,7.11-172.68,28.2-79.9,32.29-151.06,74.99-212.03,129.42-19.69,17.58-38.57,36.25-60.79,51.33-21,14.25-45.9,24.45-69.08,36.44l-4.29-5.73c51.95-15.85,85.56-50.28,122.89-81.63,39.45-33.16,82.47-63.32,124.19-94.52,3.09-2.32,8.36-2.55,12.62-3.76-30.58-6.29-55.25-8.69-79.23-13.6-30.91-6.31-61.14-14.92-91.88-21.93-18.72-4.27-35.91-3.47-51.36,9.49-9.93,8.33-23.52,13.61-35.48,20.25,4.47-6.72,11.08-10.7,17.44-14.95,6.88-4.57,13.53-9.38,24.09-16.75l-28.52-1.56q39.66-4.94,64.51-29.17c54.28-52.93,90.87-119.19,168.23-153.94-35.44-13.92-66.28-9.89-99.52,3.22-30.7,12.11-65.54,16.83-98.55,24.81l-.74-2.86c41.84-12.03,83.7-24.07,125.55-36.11-32.74-16.88-64.55-27.31-93.9-41.35-48.18-22.99-96.37-22.16-145.58-5.02-25.1,8.74-48.95,20.07-74.21,28.42-20.96,6.94-43.16,11.24-64.8,16.72l-1.85-5.28c78.93-10.13,139.79-64.42,224.35-61.54-21.73-12.75-44.11-24.34-67.05-34.74-50.88-22.95-104.36-28.98-160.2-15.08-27.55,6.86-54.8,14.61-82.33,21.54-54.17,13.66-93.63,15.65-135.57,6.57,61.57,5.68,119.35-7.67,175.32-26.14,88.52-29.2,169.06-17.71,248.75,23.8,49.9,26,104.87,45.15,157.75,67.08,27.65,11.47,53.13,9.95,80.95-3.84,55.55-27.52,115.5-41.62,181.1-30.35,7.4,.92,14.89-.73,21.21-4.68,76.7-55.64,152.87-111.79,230.03-168.46-27.57-10.07-47.49-4.77-65.09,11.32-7.79,7.16-17.74,12.7-26.91,18.73-62.3,40.88-131.45,60-211.26,49.86-79.51-10.12-159.09-26.36-240.22-6.49,20.66-6.16,41.78-13.53,62.6-13.02,57.22,1.42,114.84,3.22,171.36,10.21,102.66,12.71,182.27-20.23,251.25-79.11-29.41-11.21-57.61-22.08-85.91-32.7-26.23-9.84-52.65-19.28-78.87-29.1-34.94-13.07-69.18-8.97-100.78,6.08-25.55,12.16-48.55,28.05-72.69,42.29-6.73,3.97-13.51,7.89-20.26,11.85l-4.18-5.54c40.42-22.86,80.82-45.74,120.67-68.29-1.89-.2-5.54-.78-9.22-.91-110.53-3.79-216.73,10.75-317.11,51.59-25.19,10.58-51.04,19.54-77.38,26.82-42.75,11.3-99,6.89-127.65-7.41,74.01,12.15,105.01,9.11,171.59-17.17,17.58-6.95,34.59-14.92,52.37-21.44,167.37-61.23,334.55-70.5,501.57,1.27,13.73,5.89,29.22,8.82,43.39,14.09,32.47,12.08,55.7,1.14,77.07-21.03-14.44-2.35-27.65-3.51-40.11-6.68-54.22-13.85-108.03-28.9-162.47-42.13-20.13-4.87-40.73-7.61-61.43-8.17-34.08-.88-68.28,1.21-102.44,1.27-15.51,.03-32.6,1.45-46.31-3.24-52.63-18.01-102.71-41.93-156.46-56.66-65.95-18.06-134.57-35.38-202.42-2.01-.29,.15-1.25-.67-2.96-1.63l29.08-17.5c-15.9,.62-25.9,1.09-35.91,1.4-75.22,2.24-147.64,16.49-219.32,34.76-41.11,10.47-83.15,15.13-125.82,3.58,60.36,6.91,115.73-10.43,172.77-22,60.17-12.22,121.59-22.83,183.12-26.98,93.03-6.25,185.94,.65,270.27,38.22,82.2,36.62,168.6,40.98,256.14,25.98,58.25-9.97,114.55-28.47,171.2-44.42,61.77-17.4,124.12-24.1,188.12-11.34,49.09,9.79,98.16,19.74,146.7,31.2,16.23,3.85,28.23,3.47,43.08-4.29,129.52-67.77,269.67-91.51,420.11-67.93,48.31,7.58,68.95-1.39,77.92-42.19,5.9-28.19,9.18-56.86,9.82-85.65,5.58-169.21,6.94-397.78,10.64-567.03,.47-21.52-5.85-63.87,15.38-69,57.37-13.89,151.65,1.92,209.02,15.84,30.83,7.47,22.81,26.33,22.79,53.16-.14,199.37-1.54,463.55-2.15,662.9-.04,13.79,5.15,22.96,17.5,31.67,48.21,33.99,103.5,55.3,164.75,65.48,69.33,11.53,138.89,22,208.45,32.58,13.47,2.06,27.3,2.8,41,3.53,47.16,2.53,94.91,1.78,141.4,7.86,73.43,9.61,142.82,4.92,206.29-29.1,124.66-66.84,259.38-75.71,399.25-48.08,35,6.91,66.55,5.65,100.38-.96,36.59-7.16,74.07-10.98,111.17-16.24l.33,2.32c-50.17,8.65-100.36,17.3-150.55,25.94,83.22,32.4,159.9,83.1,258.86,49.94-4.31,3.26-9.2,5.68-14.4,7.14-60.21,18.28-117.78,11.18-173.4-13.12-90.52-39.56-187.49-54.33-288.55-52.7-54.26,.88-106.48,10.1-155.12,31.2-3.9,1.86-7.68,3.97-11.3,6.33,29.2,5.92,59.65,9.05,87.23,18.24,69.29,23.09,132.47,60.12,210.76,62.31-47.44,3.19-91.3-6.4-133.5-22.82-31.01-12.06-61.67-25-93.53-35.23-37.13-11.91-77.67-17.71-113.46-1.63-45.71,20.52-89.88,42.7-142.64,48.44,61.82,48.52,121.18,96.27,182.26,142.43,22.98,17.36,49.3,31.8,75.18,46.2,92.09,51.23,187.88,55.68,284.16,10.25,51.35-24.23,100.84-51.67,148.81-80.45,67.99-40.79,139.55-54.65,220.1-31.7,58.23,16.57,116.96,32.14,180.18,28.11-24.4,3.28-49.17,5.9-72.79,2.68-35.88-4.68-71.38-11.88-106.25-21.54-79.98-22.75-150.07-9.79-217.24,31.8-52.41,32.46-108.9,60.27-163.52,90.24-2.1,1.15-3.47,3.24-6.59,6.29,54.49,5.88,94.47,30.08,131.17,59.22,46.72,37.06,92.54,75.15,155.43,93.63-3.07,.52-6.21,.38-9.22-.41-50-12.16-89.45-38.19-127.07-67.11-23.46-18.04-46.83-36.73-73.14-51.53-41.39-23.27-85.78-33.8-136.73-18.34-24.87,7.55-53.42,9.35-80.21,8.96-60.6-.87-113.63-22.78-160.24-52.88-49.77-32.14-94.91-69.31-143.21-103.15-37.44-26.24-74.77-53.17-115.6-75.3-40.19-21.78-87.56-26.47-140.52-26.57l68.01,39.66c-53.19-24.89-104.07-55.24-166.26-27.5,27.94,13.84,60.09,25.48,85.87,43.53,42.25,29.58,81.77,62.21,119.76,95.7,33.73,29.76,63.46,62.7,95.59,93.77,50.47,48.74,114.39,72.57,191.42,71.95,31.86-.26,63.81-.51,95.59,1,41.33,1.98,80.76,10.7,116.43,29.33-14.1-2.63-27.53-8.79-41.53-9.89-58.58-4.57-117.29-9.92-176.04-10.67-74.5-.96-136.38-23.09-186.77-68.24-23.39-20.95-44.81-43.42-67.17-65.19-49.38-48.09-100.28-94.91-165.14-128.9-70.51-36.96-144.29-48.52-225.23-17.22,55.81,26.23,96.1,64.57,132.8,106.09,3.4,3.82,9.54,6.74,15.11,8.3,51.99,14.54,92.02,42.96,127.01,77.07,28.95,28.21,56.57,57.38,85.99,85.24,40.67,38.51,85.45,72.26,148.01,84.07,11.92,2.26,22.55,9.02,34.41,11.82,19.65,4.66,39.91,11.23,59.76,10.88,52.94-.88,103.69,5.16,152.65,22.35,100.38,35.24,183.2,90.18,254.06,158.79,35.25,34.12,72.73,65.94,125.57,80.79-69.91-10.07-109.32-55.95-156.15-97.17l40.73,118.59c-14.43-25.44-21.23-52.96-33.46-78.65-11.32-23.81-23.1-50.22-44.02-67.47-52.37-43.22-114.98-75.56-182.9-99.65-48.68-17.64-100.6-24.51-152.19-20.13,23.17,21.69,51.32,40.69,68.08,65.22,39.13,57.28,72.78,117.2,108.65,176.06-11.51-10.67-23.08-21.85-31.09-34.6-19.97-31.73-36.61-65.01-57.78-96.1-17.98-26.44-37.7-52.8-61.86-75.22-16.45-15.28-40.63-30.87-63.55-33.71-50.92-6.31-95.34-22.31-137.7-44.97-4.66-2.43-9.6-4.28-14.72-5.49-35.29-8.54-70.67-16.88-105.64-25.2,15.11,32.47,31.09,66.93,47.24,101.32,1.33,2.48,3.22,4.62,5.52,6.24,42.5,31.65,67.91,73,89.39,115.78,11.43,22.78,29.24,37.63,54.82,47.57,35.25,13.67,70.83,26.84,105.6,41.35,35.21,14.67,66.45,34.05,90.83,60.72-62.31-50.82-145.77-67.65-222.51-97.25l56.18,74.47-6.16,3.25c-19.81-26.11-39.65-52.21-59.5-78.29-5.38-7.09-9.33-15.72-16.66-20.89-45.55-32.08-74.93-73.39-94.25-119.47-9.37-22.34-25.66-36.64-49.67-45.98-19.68-7.67-39.74-14.81-60.17-20.89-43.92-13.09-88.17-25.38-132.32-37.91-4.55-1.29-9.31-2.13-16.31-3.69,2.2,5.59,3.3,8.63,4.59,11.62,26.93,62.87,69.99,115.84,131.97,158.5,84.02,57.82,152.73,126.43,178.68,217,18.06,63.03,59.22,107.9,122.95,140.8,27.16,14.02,55.78,26.43,80.97,42.59,27.16,17.45,51.07,38.45,76.4,57.91-34.37-19.15-64.62-42.37-98.67-60.56-62-33.12-130.14-59.29-167.22-118.28-1.26,7.3-1.22,14.77,.12,22.06,8.75,57.88,32.76,111.29,66.84,161.81,44.81,66.45,99.11,126.43,167.02,177.57,36.1,27.18,66.26,58.09,79.28,98.77-32.41-66.24-104.87-102.55-157.79-153.32,7.02,48.52,13.88,95.97,20.74,143.45l-5.83,.59c-2.94-22.54-6.75-45-8.65-67.6-3.87-45.84-18.57-87.04-52.41-125.13-66.32-74.58-117.68-156.31-127.01-251.07-6.9-70.23-40.81-130.26-91.06-183.45-33.98-35.97-76.77-66.07-115.64-98.78l-5.97,4.25c46.91,85.26,22.03,182.13,63.51,268.41-9.35-15.33-18.28-30.92-21.6-47.32-8.94-44.38-15.68-89.08-22.9-133.71-7.14-44.11-19.36-87.87-57.82-119.6-51.15-42.21-82.47-92.77-104.28-148.58-5.17-13.25-12.93-22.09-27.98-28.79-55.25-24.58-103.27-57.24-133.23-103.88-20.51-31.91-33.91-67.02-50.96-100.53-3.07-6.08-6.88-14.22-12.95-16.44-20.2-7.42-41.56-12.58-65.36-19.43,6.18,11.13,10.81,19.95,15.88,28.58,49.23,83.81,100.03,167.61,123.36,259.45,10.79,42.45,33.65,71.14,73.53,97.28,83,54.47,145.48,122.99,177.64,208.92,21.42,57.23,29.96,116.17,31.47,175.8,1.52,60.07,26.6,112.66,71.47,157.99,28.74,29.04,61.79,55.12,93.85,81.72,41.27,34.29,76.64,72.03,102.13,116.02,2.24,3.87,3.46,8.15,6.03,14.38-22.65-26.91-40.98-53.04-64.41-75.42-32.29-30.84-68.08-59.11-103-87.97-41.47-34.3-76.29-72.26-96.94-118.54-1.87-3.71-3.93-7.31-6.18-10.8-6.9,52.03-11.57,103.34-11.67,154.67-.13,77.23,31.93,145.68,88.11,206.41,24.32,26.32,48.84,52.53,72.61,79.2,36.22,40.59,63.9,85.02,81.44,133.64,6.83,18.92,11.63,38.34,17.34,57.55-29.24-83.83-117.7-213.09-168.65-240.36,22.71,75.84-16.12,149.8-9.43,224.81-.75-44.15,1.55-88.29,6.88-132.12,6.14-53.44,1.46-103.43-40.34-148.41-33.91-36.47-52.34-79.84-61.28-125.75-1.09-5.56-2.78-11.04-4.2-16.57-4.82,23.32-9.35,46.8-3.79,68.47,8.94,34.89,25.18,68.4,37.08,102.8,8.44,24.41,14.78,49.32,22.07,74.01-17.26-38.16-31.36-76.72-47.69-114.59-16.14-37.37-25.95-75.09-21.48-115.09,5-44.73,10.27-89.47,13.2-134.31,3.19-48.92,6.63-97.99,5-146.89-3.03-91.41-25.06-178.97-88.07-256.2-42.15-51.67-96.37-92.95-154.95-130.52-10.36,39.2-19.64,76.77-30.5,114.01-3.52,12.07-1.63,20.11,8.94,29.46,65.17,57.59,99.19,126.77,107.43,205.77,8.09,77.46-2.49,153.97-12.48,230.64-1.28,9.93-.83,21.18,3.4,30.3,33.71,72.66,48.02,148.45,55.04,225.68,.99,11.06,6.34,22.35,12.17,32.54,23.54,41,48.23,81.56,72.07,122.46,2.94,5.03,3.3,11.11,4.86,16.72-21.48-46.78-49.48-90.29-83.15-129.23-11.88,61.59-23.03,123.31-35.91,184.8-9.15,43.79-10.89,86.97,5.48,129.82,3.48,9.07,6.77,18.19,10.13,27.27-30.6-46.93-40.26-97.22-29.22-149.28,14.74-69.53,31.11-138.8,25.64-209.97-.66-8.77-2.68-18.55-8.09-25.74-46.89-62.54-59.33-131.05-51.71-203.22,2.3-21.67-16.49-59.2-33.34-71.18,0,43.21,3.52,89.54-.8,135.34-6.78,72.15-26.56,143.56-14.25,216.59,1.69,10.02,3.01,20.08,4.51,30.13-16.84-45.78-20.96-92.49-15.55-139.6,5.23-45.51,13.49-90.79,18.04-136.35,6.5-65.1-4.53-126.6-47.53-183.95-21.93-29.23-36.86-63.52-47.38-97.2-25.35-81.2-21.52-163.2,3.03-244.37,16.74-55.31,35.15-111.17,22.16-168.15-12.05-52.98-32.39-104.62-49.32-156.8-1.4-4.3-4.69-8.17-7.97-13.74-4.8,28.22-7.64,54.24-13.86,79.68-18.96,77.51-60.19,147.96-99.54,219.06-12.42,22.76-22.61,46.68-30.41,71.41-44.09,137.22-21.15,267.53,58.05,392.19,25.95,40.87,50.76,82.4,72.75,124.87,43.59,84.14,66.06,198.96,54.57,269.13,7.52-163.53-85.12-298.69-173.71-438.15l-5.97,51.61c11.14-59.84-23.29-112.33-38.98-173.45-28.37,97.41-82.45,183.25-93.4,279.81-1.07-11.24-2-22.58,1.23-33.03,16.53-53.63,32.84-107.35,51.71-160.41,17.79-50.03,41.24-98.86,34.53-152.74-1.88-14.93-3.44-29.9-4.61-44.87-3.71-47.41,16.18-90.96,29.22-135.99,30.54-105.48,52.67-212.36,57.64-321.21,5.19-113.84-16.89-222.65-86.81-322.24-4.47-6.37-10.36-12.03-16.72-19.3-57.58,40.01-107.04,82.64-149.99,131.3-45.08,51.1-57.99,107.22-39.45,166.86,15.03,48.39,35.83,95.81,58.38,142.17,37.38,76.89,59.86,155.19,45.96,239.01,7.69-85.92-21.48-165-61.45-242.25-29.05-56.15-58.29-112.38-64-175.08-3.44,8.06-6.38,16.17-6.1,24.19,1.92,54.83,3.36,109.67,7.17,164.41,5.15,74.3,2.6,148.04-26.03,219.02-17.21,42.64-16.95,84.49-5.46,127.25,17.8,64.71,20.41,132.66,7.64,198.55-19.02,98.41-61.32,188.56-130.55,269.75-29.65,34.77-54.9,71.61-60.7,115.21-2.78,20.8-2.94,41.85-4.16,60.99-12.6-66.43,7.35-127.53,55.31-183.2,17.01-19.89,32.31-41.19,45.73-63.67,16.18-26.97,29.31-55.22,43.74-82.9l-3.69-1.03c-39.38,28.5-78.75,57.01-118.12,85.53l-4.08-3.9c24.9-18.11,49.28-36.73,74.79-54.21,36.55-25.05,60.73-54.91,74.03-94.35,33.77-100.16,9.21-196.64-17.32-291.94-57.51,50.31-117.52,100.42-173.94,153.22-27.8,26.04-50.95,56.07-72.63,86.12-35.66,49.45-49.34,103.77-43,161.68,7.27,66.61,31.86,129.37,63.9,189.63,42.25,79.45,45.06,157.19,2.58,236.87-26.63,49.95-44.34,102.25-43.74,157.89-9.88-61.62,13.2-117.93,40.73-172.94,35-69.88,31.71-137.53-3.21-207.13-25.86-51.58-44.54-105.73-65.87-158.89-4.16-10.38-5.83-21.44-8.05-29.89-21,27.41-39.31,56.36-63.28,81.53-47.61,49.99-104.55,94.05-134.48,155.16-.51-3.27,0-6.62,1.5-9.58,18.93-43.81,51.83-79.98,87.82-114.64,21.43-20.68,43-41.43,61.77-63.79,23.51-28.01,42.19-59.17,41.29-94.17-1.54-59.06,18.74-111.92,55.21-161.41,38.8-52.65,88.57-97.48,141.11-140.4,19.23-15.74,37.41-32.39,56.07-48.63-62.68,11.57-123.8,22.86-184.92,34.14,24.67-6.93,49.07-14.69,74.1-20.53Zm-1083.13-268.19c42.54,9.81,85.54,20.61,129.1,29.46,37.99,7.72,74.52,5.55,109.98-11.98,64.72-32,134.5-49.81,210.72-48.34,15.36,.31,31.3-5.46,46.31-9.97,18.22-5.45,36-12.09,53.46-19.1,22.22-8.9,47.34-15.46,65.19-28.76,41.51-30.9,79.4-65.22,116.82-100.97-69.52,17.96-137.72,15.93-205.3,.82-44.15-9.87-87.62-22.24-130.64-35.3-15.61-4.72-26.54-3.81-40.42,3.63-41.61,22.35-87.09,35.2-136.35,42.51-26.69,3.95-52.72,18.58-75.3,32.65-20.82,12.99-37.83,30.83-54.34,48.03-30.62,31.92-59.67,64.92-89.24,97.34h0Zm1169.05-257.89c-2.32,3.13-4.43,6.41-6.33,9.81-27.69,57.28-74.64,100.65-137.9,130.99-34.28,16.44-70.44,30.25-106.54,43.76-15.13,5.67-25.9,12.21-31.63,25.92-9.53,22.75-21.91,44.65-31.75,67.33-33.22,76.71-91.49,133.77-185.18,159.48-44.09,12.09-67.31,28.52-58.46,71.05,3.91,18.81-3.73,40.28-10.58,59.42-6.78,19.01-19.19,36.59-29.96,56.31,81.63-14.79,163.45-26.36,219.82-84.94,5.29-5.49,10.58-11.41,13.74-17.86,31.26-63.58,77.18-119.52,143.09-159.2,110.76-66.67,165.02-160.26,197.12-266.63,9.51-31.46,18.45-63.03,27.66-94.55l-3.12-.88h0Zm-781.06,21.42c95.9,29.14,188.7,57.72,290.3,38.35,45.2-8.63,86.01-24.1,120.71-51.84,19.85-15.85,45.01-27.86,69.83-38.11,16.69-6.74,31.97-16.54,45.06-28.89,34.08-31.6,70.88-61.12,106.42-91.32-45.88-7.32-96.29-19.1-147.42-21.96-26.63-1.49-54.59,12.63-81.83,20-7.76,2.09-15.11,5.25-24.73,3.74l67.87-27.17c-3.5-1.57-5.62-3.28-7.87-3.43-96.86-6.33-185.76,10.16-259.97,66.1-37.02,27.91-72.25,57.47-109.01,85.6-21.18,16.21-43.88,31.03-69.37,48.93h0Zm769.79-74.42c-40.8,5.88-82.11,10-122.27,18.09-48.93,9.85-97.21,22.25-145.07,35.31-11.24,3.06-22.11,11.8-29.08,20.29-17.61,21.44-32.62,44.38-49.23,66.44-37.64,50.02-88.15,85.29-158.51,98.6-8.34,1.57-18.02,8.2-21.89,14.67-30.15,50.32-34.18,104.45-28.11,160.65,3.72-5.88,7.84-11.6,11.1-17.65,35.95-66.41,96.93-108.67,178.45-131.38,25.78-7.19,51.83-14.01,76.68-23.11,10.19-4.09,18.99-11.01,25.37-19.94,27.31-38.6,50.43-79.52,80.37-116.55,39.78-49.19,97.17-79.83,165.74-95.24,5.89-1.32,11.63-3.17,17.42-4.79l-.98-5.41h.01Zm147.26-50.04c-46.12,11.49-69.52,40.54-81.53,77.6-15.69,48.45-29.9,97.25-46.56,145.47-23.43,67.85-49.98,134.13-110,187.6-26.4,23.53-40.94,54.55-51.71,91.51,121.76-59.03,232.42-119.31,256.37-243.96,2.25-12.83,2.65-25.92,1.19-38.86-7.29-73.7-4.16-146.16,32.14-215.22,.44-1.34,.48-2.77,.12-4.14h0Zm954.73,295.07c-23.02-40.79-34.76-87.69-74.59-124.07-19.78-18.08-38.4-38.35-51.38-60.22-32.53-54.71-88.83-79.6-154.68-94.47-6.71-1.52-13.63-2.44-20.51-3.42-1.3-.18-2.82,.69-8.44,2.21,20.43,64.45,40.59,129.15,61.88,193.58,1.89,5.7,10.01,11.6,16.95,14.22,23.33,8.82,47.24,16.64,71.29,24.05,52.76,16.21,105.74,31.93,159.48,48.13h0Zm-456.23,216.44c-48.37,155.9-11.33,292.66,105.65,416.44,2.45-18.11,5.5-36.24,7.25-54.42,8.14-84.32,11.55-168.35-25.33-249.45-18.82-41.37-47.47-77.32-87.56-112.55h0Zm-928.19-209.5c-38.92,11.65-77.24,22.16-114.68,34.55-82.51,27.3-126.82,84.43-155.76,150.2-8.07,18.34,.86,41.92,1.93,62.02,161.02-27.98,231.65-123.57,268.52-246.77h0ZM2895.16,120.1c-125.46-65.45-278.4-48.01-444.68,32.21,155.49,61.25,301.21,30.6,444.68-32.21h0Zm-766.67,157.71c25-1.36,51.09,.72,74.77-4.69,82.84-18.95,165.47-17.81,249.57-7.44,73.24,9.05,141.55-9.84,208.35-34.04-86.16-.48-163.81-27.55-243.37-48.66-13.46-3.56-33.18-.93-45.65,5.15-61.71,30.16-124.54,55.36-197.45,60.47-16.84,1.19-32.43,14.75-48.59,22.63l2.35,6.59h0Zm-201.82-89.68c74.81,16.24,147.05,32.33,219.65,47.13,8.26,1.68,20.03-1.86,27.68-6.13,49.23-27.49,99.69-52.6,160.31-65.61-140.31-45.15-272.86-25.38-407.65,24.61h0Zm1393.19,168.8c26.5,85.81,76.44,154.37,167.44,200.05,.84-2.21,2.26-3.89,1.87-5.2-16.5-54.94-33.47-109.8-49.55-164.83-3.91-13.32-11.99-19.36-28.31-20.62-29.84-2.3-59.55-6.03-91.45-9.4h0Zm-642.75,89.98c-127.5,27.11-191.19,104.58-244.42,198.16,115.08-39.57,204.99-94.26,244.42-198.16h0Zm465.86,353.96c3-3.84,5.79-7.85,8.34-12.01,37.97-69.55,72.64-139.98,82.59-217.1,9.27-71.8-6.82-138.57-57.62-202.67,26.93,148.41-3.85,289.63-33.3,431.77Zm-361.12-491.54c-55.86,16.46-112.59,20.03-170.48,16.65-8.85-.51-18.41,2.21-27.02,4.88-54.8,16.87-96.76,47.86-136.05,87.95,91.55-17.45,178.73-34.58,266.19-50.56,38.46-7.02,47.2-36.87,67.36-58.91h0Zm-252.2-32.79c159.93,38.42,284.39-9.62,394.76-108.09-10.69,3.5-16.76,5.25-22.57,7.4-61.26,22.84-123.78,42.24-190.72,49.76-5.35,.37-10.59,1.69-15.47,3.9-46.97,24.94-99.04,37.02-153.3,43.84-4.28,.84-8.52,1.9-12.7,3.19h0Zm682.74-190.62c12.35,10.41,24.03,21.42,37.11,31.1,41.36,30.47,82.94,60.72,124.72,90.78,4.86,3.5,12.17,8.43,16.99,7.53,60.85-11.35,121.47-23.64,182.15-35.7l-.45-5.1c-62.23-8.71-124.68-16.55-186.68-26.37-62.72-9.94-119.7-31.49-169.1-66.35l-4.74,4.12h0Zm-45.08,140.71c10.44,12.86,16,23.47,25.31,30.64,60.15,46.29,134.01,63.23,220.62,69.44-20.55-23.63-37.66-43.88-55.74-63.49-2.51-2.7-9.82-3.32-14.81-3.17-57.29,1.72-110.78-9.8-161.42-31.78-1.77-.77-4.16-.54-13.96-1.63h0Zm-792.82,258.85c-86.28,37.05-125.94,109.76-199.47,156.01,67.13,3.15,151.6-63.42,199.47-156.01h0Zm1298.22-44.81c24.07,36.02,44.93,73.96,73.27,107.43,21.17,25,58.6,32.03,98.22,39.51-58.27-52.14-113.07-101.2-167.9-150.26l-3.6,3.32h0Zm-1807.75,50.01c-42.07-18.94-133.43,3.58-188.41,35.84,70.97,9.69,130.37-7.26,188.41-35.84Zm1696.02-138.9c-38.9-39.51-78.56-70.27-134.91-89.18,13.01,24.45,24.17,46.04,36.18,67.3,1.54,2.71,7.25,4.49,11.41,5.33,27.02,5.34,54.15,10.31,87.33,16.55h0Zm-121.14,1005.93c-8.63,65.87,4.14,123.92,43.37,181.31,3.66-44.82-19.62-142.66-43.35-181.31h-.01ZM3179.85,175.28c35.55,17.32,71.47,32.7,111.97,38.96l3.48-4.88-132.34-78.61c-6.44,21.38-4.17,34.27,16.89,44.53Zm-835.31,8.36c-52.36,5.33-98.99,22.44-141.64,47.64,52.82-4.07,98.67-22.84,141.63-47.64h0Zm-282.99,770.4c19.83-10.02,38.05-18.4,55.01-28.29,5.17-3.45,8.47-9.07,8.96-15.26,.16-10.9-2.6-21.81-4.61-35.79-20.63,27.55-39.31,52.54-59.37,79.34h0Zm1756.14-243.49c22.57,32.05,45.14,64.11,67.71,96.17l10.14-5.02-66.99-96.43-10.87,5.28h0Z"/>
    <path id="Path_833" data-name="Path 833" class="cls-1" d="M1008.67,445.03c42.57,9.33,82.64,7.27,137.61-6.75,27.95-7.13,55.62-15.1,83.61-22.12,56.69-14.28,110.98-8.09,162.62,15.47,23.31,10.7,46.04,22.61,68.09,35.68-85.86-2.94-147.66,52.8-227.79,63.22l1.87,5.4c21.99-5.62,44.51-10.04,65.78-17.15,25.66-8.59,49.88-20.21,75.36-29.19,49.95-17.62,98.88-18.48,147.77,5.15,29.82,14.4,62.09,25.12,95.33,42.48-42.48,12.36-84.97,24.72-127.46,37.07l.75,2.94c33.52-8.19,68.88-13.02,100.07-25.46,33.73-13.47,65.05-17.61,101.02-3.32-78.53,35.68-115.66,103.74-170.77,158.09q-25.24,24.9-65.49,29.96c9.32,.52,16.22,.91,28.96,1.61-10.72,7.57-17.49,12.5-24.46,17.2-6.47,4.35-13.18,8.46-17.7,15.36,12.12-6.83,25.92-12.23,36-20.79,15.69-13.31,33.16-14.15,52.16-9.75,31.19,7.2,61.88,16.04,93.26,22.52,24.33,5.02,49.38,7.48,80.45,13.96-4.32,1.23-9.69,1.48-12.83,3.84-42.36,32.06-86.02,63.04-126.08,97.07-37.88,32.21-72.02,67.57-124.76,83.83l4.36,5.91c23.55-12.32,48.81-22.81,70.13-37.44,22.56-15.49,41.73-34.64,61.74-52.72,61.88-55.9,134.14-99.76,215.26-132.9,53.01-21.67,108.97-32.78,175.29-28.98-71.15,39.86-100.78,98.8-133.56,155.9-25.05,43.61-55.03,84.34-97.9,117.35,27.41-13,59.45-42.06,83.81-78.42,19.12-28.53,34.18-59.09,54.2-87.12,18.71-26.16,39.4-51.86,63.3-74.65,22.04-21.03,51.1-33.01,85.36-39.69,37.52-7.3,72.65-23.48,109.07-35.87-25.2,57.1-23.37,117.85-19.84,178.82,.4,6.92-2.51,14.45-5.84,20.98-21.63,42.09-48.89,81.18-87.04,114.22-2.74,2.35-5.28,4.91-7.61,7.67-.68,.81,.06,2.45,.3,5.59,35.72-20.47,70.72-40.53,109.52-62.78,12.93,66.49-.89,122.01-46.01,171.13-3.91,4.25-12.24,5.54-18.51,8.22l-83.49,35.6,2.49,4.41c26.33-10.72,52.66-21.47,84.22-34.32-24.53,34.53-45.65,64.27-66.79,94.02l4.14,2.05c21.89-27.56,42.48-55.95,66.34-82.22,9.18-10.06,24.75-17.91,39.26-22.04,26.82-7.67,55.1-11.58,82.6-17.52,49.76-10.74,93.45-31.05,129.48-63.84-1.3,127.14-58.58,228.36-146.28,315.81h34.6c6.4-21.54,17.07-41.57,31.38-58.89,54.69-66.38,85.64-139.94,95.35-221.65,8.49-71.38,56.11-129.04,114.2-178.96,32.59-28.01,70.27-51.74,110.9-81.21-10.87,27.78-19.03,50.05-28.6,71.85-1.86,4.23-8.87,7.25-14.13,9.9-66.61,33.37-108.26,82.1-129.44,145.33-17.35,51.71-38.63,102.48-55.88,154.84,15.95-33.68,32.94-67.03,47.51-101.12,11.29-26.43,18.24-54.19,29.39-80.69,20.84-49.53,60.93-85.06,118.31-112.04-20.97,111.84-13.35,225.16-76.27,327.4,4.97-7.38,10.26-14.63,14.84-22.19,5.05-8.34,10.91-16.6,13.89-25.51,13.07-39.26,25.09-78.74,37.82-118.08,2.86-8.83,7.01-17.35,10.56-26.01-1.64-5.29-5.18-10.72-4.6-15.83,3.91-33.31,9.41-66.49,12.97-99.82,2.09-19.82,11.09-33.58,33.83-41.18,13.03-4.36,24.61-11.88,36.77-18.07,86.02-43.8,166.23-92.59,207.84-174.64,1.59-.16,3.19-.17,4.78-.02,.67,11.41,.67,23.18,2.11,34.81,7.38,59.14-10.39,115.08-27.36,171.57-21.71,72.37-54.79,94.91-121.56,107.96-18.39,3.59-37.58,4.55-55.7,8.83-25.42,5.99-50.19,13.96-75.24,21.08,62.06-11.6,124.11-23.18,187.74-35.08-18.95,16.67-37.38,33.79-56.92,49.94-53.31,44.1-103.84,90.13-143.25,144.22-36.5,50.11-56.91,103.63-55.98,163.27h18.06c1.07-47.08,15.52-91.63,44.88-132.82,21.98-30.86,45.49-61.71,73.74-88.45,57.26-54.24,118.19-105.68,176.57-157.37,26.94,97.9,51.89,196.98,17.61,299.84-10.5,31.45-58.32,56.91-82.83,78.8h46.19c7.35-.05,3.81,0,8.8,0h1.65c17.96-41.13,45.8-83.85,54.3-128.32,12.96-67.67,10.3-137.4-7.76-203.89-11.68-43.93-11.94-86.89,5.53-130.7,29.09-72.91,31.66-148.63,26.43-224.94-3.85-56.21-5.33-112.55-7.28-168.84-.28-8.24,2.7-16.58,6.2-24.84,5.82,64.4,35.51,122.15,64.99,179.8,40.58,79.35,70.17,160.55,62.37,248.79,14.11-86.08-8.71-166.49-46.66-245.45-22.88-47.63-44-96.33-59.27-146.03-18.81-61.24-5.71-118.89,40.05-171.35,43.6-50,93.81-93.77,152.29-134.87,6.44,7.47,12.43,13.29,16.97,19.82,70.96,102.29,93.37,214.03,88.11,330.96-5.03,111.77-27.49,221.54-58.5,329.86-13.24,46.25-33.45,91-29.68,139.67,1.22,15.39,2.79,30.76,4.68,46.1,6.83,55.32-16.98,105.47-35.06,156.85-14.82,42.18-42.92,84.21-55.95,126.82h2.9c21.44-71.81,72.38-140.01,94.12-215.54,15.93,62.79,50.89,116.69,39.57,178.15,1.91-16.67,3.81-33.33,6.06-53.02,19.11,30.41,38.52,60.04,56.97,90.37h17.96c-9.08-15.25-18.36-29.93-27.83-45-80.41-128.04-103.7-261.89-58.94-402.82,7.92-25.38,18.26-49.93,30.89-73.32,39.94-73.02,81.8-145.39,101.05-224.99,6.31-26.12,9.2-52.83,14.07-81.82,3.33,5.71,6.67,9.69,8.09,14.12,17.19,53.57,37.84,106.62,50.09,161.01,13.17,58.52-5.51,115.9-22.5,172.71-24.95,83.34-28.82,167.58-3.08,250.97,10.66,34.57,25.82,69.78,48.08,99.81,30.6,41.27,31.51,84.04,35.28,129.29h7.83c-.39-16.94,13.34-33.08,13.34-49.32,12,8.63,12.9,29.53,18.76,49.32h31.06c-4-9.25,2.33-19.82,3.61-29.77,10.15-78.74,20.86-157.34,12.65-236.89-8.37-81.14-42.91-152.17-109.07-211.31-10.74-9.62-12.65-17.87-9.06-30.26,11.03-38.25,20.45-76.83,30.97-117.11,59.45,38.6,114.51,81,157.31,134.06,63.95,79.3,86.33,169.22,89.41,263.11,1.64,50.21-1.85,100.63-5.09,150.86-1.68,26-24.26,51.31-26.99,77.27h27.77c.36-51.19,22.67-101.73,29.48-153.64,2.29,3.6,4.39,7.31,6.3,11.12,20.94,47.51,56.31,86.52,98.41,121.74,8.57,7.17,19.62,13.11,28.24,20.26l19.63,.08c-27.75-23.11-58.26-45.12-82.99-70.41-45.54-46.57-71-100.56-72.57-162.27-1.54-61.24-10.18-121.76-31.93-180.55-32.65-88.23-96.1-158.62-180.36-214.55-40.46-26.87-63.67-56.32-74.63-99.91-23.7-94.34-75.26-180.4-125.25-266.46-5.15-8.88-9.85-17.92-16.1-29.37,24.16,7.05,45.85,12.33,66.34,19.95,6.16,2.28,10.03,10.66,13.17,16.89,17.29,34.42,30.91,70.49,51.71,103.25,30.44,47.9,79.17,81.46,135.28,106.7,15.28,6.88,23.14,15.96,28.4,29.57,22.14,57.31,53.94,109.22,105.87,152.59,39.02,32.57,51.45,77.52,58.7,122.83,7.3,45.83,14.17,91.74,23.23,137.32,3.36,16.83,12.44,32.86,21.95,48.59-42.14-88.6-16.86-188.1-64.48-275.64l6.06-4.38c39.43,33.62,82.88,64.51,117.38,101.47,51.01,54.63,85.46,116.27,92.46,188.39,9.46,97.34,122,252.5,131.98,275.77h22.67c-27.55-30.05-46.36-60.66-68.74-94.23-34.6-51.89-58.96-106.74-67.84-166.18-1.38-7.49-1.42-15.17-.14-22.67,37.64,60.59,106.84,87.46,169.76,121.49,34.56,18.68,65.27,42.51,100.19,62.18-25.74-19.97-50.01-41.56-77.59-59.46-25.56-16.62-54.64-29.35-82.19-43.74-64.72-33.79-106.48-79.89-124.82-144.62-26.35-93.01-96.12-163.47-181.43-222.86-62.9-43.8-106.64-98.19-133.98-162.76-1.3-3.07-2.43-6.19-4.66-11.93,7.12,1.61,11.94,2.45,16.56,3.78,44.82,12.89,89.77,25.51,134.33,38.94,20.76,6.25,41.13,13.59,61.11,21.46,24.37,9.6,40.89,24.29,50.41,47.23,19.64,47.33,49.44,89.73,95.69,122.7,7.46,5.3,11.45,14.15,16.92,21.43,20.15,26.81,40.28,53.62,60.4,80.42l6.26-3.36-57.02-76.48c77.88,30.41,162.64,47.68,225.88,99.87-24.75-27.37-56.47-47.28-92.21-62.37-35.31-14.89-71.41-28.41-107.21-42.48-25.98-10.21-44.03-25.46-55.64-48.84-21.83-43.95-47.62-86.4-90.75-118.93-2.35-1.66-4.27-3.86-5.61-6.41-16.42-35.31-32.63-70.68-47.96-104.04,35.51,8.52,71.41,17.09,107.23,25.88,5.2,1.24,10.23,3.13,14.96,5.62,42.99,23.29,88.09,39.71,139.78,46.2,23.29,2.9,47.84,18.93,64.54,34.61,24.52,23.02,44.56,50.11,62.81,77.25,21.49,31.96,38.39,66.11,58.64,98.7,8.13,13.11,19.89,24.57,31.56,35.55-36.42-60.44-70.58-121.99-110.31-180.83-17-25.17-45.6-44.71-69.1-66.98,52.53-4.73,104.54,2.77,154.49,20.69,68.98,24.74,132.51,57.95,185.7,102.34,21.24,17.72,33.18,44.84,44.67,69.28,12.42,26.4,19.34,54.65,33.99,80.79-13.41-39.48-26.81-78.95-41.35-121.79,47.54,42.33,87.53,89.45,158.53,99.78-53.67-15.26-91.7-47.92-127.48-82.96-71.94-70.45-156.02-126.9-257.95-163.1-49.7-17.66-101.21-23.86-154.98-22.94-20.15,.33-40.7-6.41-60.65-11.18-12.04-2.88-22.86-9.83-34.96-12.13-63.51-12.13-108.97-46.81-150.26-86.36-29.87-28.6-57.91-58.57-87.3-87.52-35.53-35.03-76.17-64.21-128.92-79.16-5.66-1.6-11.9-4.58-15.33-8.53-37.27-42.65-78.18-82.02-134.83-108.96,82.14-32.14,157.05-20.27,228.64,17.69,65.84,34.92,117.54,82.99,167.67,132.4,22.68,22.36,44.45,45.43,68.17,66.95,51.16,46.37,113.98,69.09,189.64,70.07,59.63,.79,119.23,6.28,178.72,10.98,14.21,1.13,27.83,7.44,42.16,10.14-36.24-19.13-76.27-28.1-118.21-30.11-32.27-1.56-64.72-1.31-97.07-1.04-78.2,.66-143.1-23.82-194.33-73.9-32.63-31.91-62.8-65.74-97.05-96.28-38.57-34.41-78.69-67.91-121.58-98.3-26.15-18.55-58.8-30.47-87.16-44.71,63.12-28.46,114.77,2.69,168.77,28.25-21.46-12.65-42.91-25.3-69.02-40.71,53.75,.08,101.85,4.9,142.64,27.27,41.47,22.73,79.34,50.4,117.38,77.35,49.02,34.73,94.86,72.9,145.39,105.93,47.31,30.91,101.16,53.42,162.66,54.31,27.21,.38,56.21-1.44,81.43-9.2,51.73-15.89,96.81-5.09,138.84,18.83,26.68,15.19,50.41,34.37,74.25,52.92,38.17,29.69,78.22,56.44,128.98,68.91,3.06,.81,6.25,.96,9.38,.44-63.86-19-110.41-58.1-157.81-96.17-37.28-29.92-77.85-54.78-133.19-60.84,3.2-3.14,4.58-5.29,6.69-6.46,55.44-30.78,112.8-59.34,166.03-92.67,68.2-42.7,139.35-56.02,220.55-32.66,35.38,9.92,71.42,17.31,107.85,22.12,24,3.33,49.12,.62,73.9-2.73-64.19,4.15-123.81-11.85-182.91-28.88-81.77-23.55-154.44-9.33-223.47,32.58-48.95,30.04-99.38,57.61-151.09,82.59-97.72,46.65-194.98,42.09-288.46-10.51-26.29-14.79-53.01-29.62-76.34-47.46-62-47.39-122.27-96.45-185.04-146.28,53.59-5.87,98.41-28.65,144.81-49.74,36.34-16.51,77.49-10.54,115.21,1.7,32.35,10.49,63.46,23.78,94.94,36.17,42.85,16.87,87.4,26.74,135.56,23.45-79.5-2.25-143.62-40.29-213.99-63.98-28.01-9.43-58.89-12.67-88.56-18.73,3.68-2.41,7.51-4.59,11.47-6.51,49.39-21.67,102.4-31.13,157.49-32.04,102.6-1.68,201.07,13.49,292.96,54.13,56.45,24.97,114.91,32.27,176.04,13.49,5.28-1.52,10.24-4.01,14.61-7.35-100.46,34.05-178.29-17.99-262.78-51.27,50.93-8.88,101.88-17.77,152.85-26.67l-.36-2.38c-37.66,5.42-75.71,9.35-112.84,16.68-34.34,6.8-66.38,8.09-101.92,.99-141.97-28.38-278.75-19.25-405.31,49.39-64.44,34.95-134.89,39.76-209.45,29.87-47.19-6.24-95.67-5.45-143.53-8.07-13.94-.75-27.95-1.51-41.65-3.61-70.6-10.86-141.24-21.63-211.63-33.46-61.38-10.32-116.83-31.84-165.32-65.96,0,0-17.74-21.81-25.58-46.65-7.84-24.84-5.51-56.01-5.51-56.01l-258.69,22.06s1.6,54.59-17.6,73.09c-7.5,7.23-42.56,.31-46.01,0-107.65-9.78-91.57-6.52-91.57-6.52,0,0-39.88-3.29-121.92,10.48-82.04,13.77-161.8,37.32-227.96,72.33-15.08,7.99-27.26,8.36-43.72,4.43-49.31-11.78-99.12-21.98-148.96-32.04-64.96-13.12-128.26-6.23-190.98,11.63-57.51,16.4-114.66,35.38-173.79,45.63-88.9,15.39-176.59,10.93-260.06-26.69-85.62-38.6-179.93-45.69-274.37-39.26-62.48,4.25-124.81,15.16-185.9,27.7-57.91,11.9-114.14,29.7-175.41,22.61,43.32,11.85,85.98,7.08,127.72-3.69,72.77-18.75,146.31-33.38,222.66-35.7,10.16-.3,20.31-.79,36.45-1.44-12.71,7.75-20.94,12.77-29.51,17.99,1.72,.99,2.68,1.81,2.98,1.68,68.9-34.27,138.56-16.5,205.51,2.05,54.57,15.12,105.44,39.71,158.85,58.19,13.93,4.82,31.26,3.37,47.03,3.34,34.66-.08,69.38-2.21,104-1.31,21.03,.58,41.94,3.39,62.37,8.39,55.25,13.6,109.88,29.05,164.95,43.25,12.65,3.27,26.03,4.47,40.72,6.88-21.69,22.77-45.28,34-78.26,21.58-14.38-5.4-30.1-8.41-44.03-14.47-169.56-73.69-339.3-64.19-509.21-1.29-18.06,6.68-35.35,14.89-53.19,22.02-67.58,26.99-99.06,30.11-174.18,17.64,29.07,14.68,86.19,19.22,129.58,7.62,26.75-7.48,52.99-16.69,78.56-27.56,101.9-41.94,209.73-56.87,321.96-52.97,3.73,.12,7.42,.74,9.34,.92-40.44,23.18-81.48,46.66-122.49,70.15l4.22,5.67c6.87-4.03,13.74-8.09,20.59-12.17,24.49-14.62,47.86-30.93,73.78-43.42,32.08-15.46,66.85-19.69,102.32-6.26,26.63,10.09,53.47,19.81,80.07,29.91,28.76,10.89,57.36,22.06,87.22,33.57-70.01,60.47-150.85,94.3-255.07,81.26-57.38-7.17-115.88-9.03-173.97-10.49-21.14-.54-42.55,7.03-63.56,13.38,82.38-20.43,163.15-3.73,243.88,6.65,81.04,10.42,151.23-9.21,214.47-51.19,9.33-6.19,19.4-11.9,27.34-19.23,17.84-16.53,38.07-21.97,66.08-11.63-78.36,58.2-155.69,115.84-233.54,173-6.4,4.07-14.03,5.77-21.55,4.82-66.59-11.58-127.47,2.9-183.85,31.17-28.24,14.15-54.12,15.71-82.19,3.93-53.67-22.52-109.48-42.19-160.15-68.89-80.89-42.63-162.66-54.41-252.52-24.42-56.82,18.94-115.5,32.68-177.98,26.81Zm2830.16,269.12c3.67-1.81,7.36-3.61,11.05-5.42,22.67,33.02,45.34,66.04,67.99,99.05l-10.3,5.15-68.75-98.78Zm-386.64,597.86c-118.78-127.13-156.36-267.57-107.25-427.68,40.7,36.17,69.79,73.11,88.9,115.6,37.44,83.29,33.99,169.59,25.72,256.17-1.8,18.7-4.87,37.31-7.36,55.9h0Zm138.58-1143.12c-61.6,12.38-123.14,25.02-184.92,36.67-4.9,.92-12.32-4.13-17.25-7.72-42.53-30.77-84.73-61.84-126.61-93.23-13.26-9.95-25.15-21.26-37.66-31.94l4.82-4.24c50.13,35.81,107.99,57.95,171.66,68.15,62.94,10.09,126.34,18.13,189.54,27.07l.43,5.24h0Zm-149.53,85.24c57.22,19.42,97.46,51.02,136.96,91.58-33.67-6.39-61.23-11.5-88.66-17-4.22-.83-10.03-2.66-11.59-5.46-12.2-21.82-23.53-44.01-36.71-69.11h0Zm324.78,293.23c-28.78-34.37-49.95-73.34-74.39-110.33l3.65-3.42c55.66,50.38,111.32,100.76,170.47,154.32-40.25-7.69-78.24-14.89-99.73-40.56Zm-209.41,25.93c-21.59-66.17-42.08-132.6-62.81-198.79,5.7-1.56,7.24-2.46,8.57-2.27,6.97,.99,14,1.93,20.8,3.49,66.85,15.29,124.01,40.84,157.03,97.02,13.2,22.46,32.07,43.28,52.18,61.86,40.44,37.38,52.36,85.54,75.73,127.42-54.57-16.62-108.36-32.76-161.93-49.43-24.41-7.59-48.69-15.62-72.37-24.69-7.03-2.7-15.28-8.74-17.21-14.62h0Zm-53.19-16.85c-92.39-46.93-143.08-117.33-170-205.47,32.4,3.46,62.55,7.28,92.87,9.67,16.54,1.28,24.77,7.48,28.72,21.18,16.32,56.52,33.57,112.85,50.33,169.29,.4,1.34-1.06,3.07-1.91,5.34h0Zm-75.2-236.47c-87.91-6.38-162.91-23.8-223.96-71.32-9.45-7.37-15.12-18.24-25.72-31.47,9.97,1.14,12.38,.91,14.17,1.7,51.42,22.56,105.73,34.39,163.88,32.64,5.09-.15,12.5,.47,15.04,3.26,18.35,20.14,35.74,40.92,56.59,65.2h0Zm-274.37,486.93c29.9-145.99,61.13-291.03,33.79-443.45,51.59,65.82,67.91,134.42,58.52,208.16-10.11,79.2-45.32,151.52-83.85,222.96-2.6,4.26-5.43,8.38-8.47,12.34h0Zm37.44-642.49c-21.38-10.56-23.67-23.8-17.13-45.73,46.31,27.83,90.32,54.28,134.35,80.74l-3.55,4.98c-41.1-6.41-77.57-22.2-113.67-39.99h0Zm-1075.06,718.3c2.03,14.35,4.84,25.56,4.7,36.76-.5,6.34-3.84,12.11-9.1,15.69-17.25,10.15-35.74,18.76-55.88,29.03,20.37-27.52,39.33-53.17,60.28-81.48h0Zm-27.32-534.09c75.34-57.45,165.62-74.37,263.92-67.88,2.3,.15,4.45,1.9,8,3.51-24.33,9.87-46.62,18.88-68.9,27.91,9.79,1.54,17.25-1.7,25.11-3.84,27.68-7.57,56.04-22.09,83.1-20.56,51.89,2.94,103.09,15.05,149.65,22.56-36.06,31.02-73.44,61.34-108.04,93.8-13.25,12.67-28.78,22.74-45.75,29.67-25.18,10.51-50.74,22.86-70.88,39.12-35.25,28.5-76.68,44.39-122.55,53.24-103.16,19.9-197.36-9.45-294.72-39.37,25.88-18.38,48.89-33.6,70.4-50.23,37.34-28.88,73.09-59.26,110.67-87.91h0Zm284.75,134.38c-48.59,95.09-134.37,163.48-202.53,160.23,74.65-47.5,114.91-122.18,202.53-160.23Zm213.05-158.84c8.74-2.72,18.44-5.54,27.44-5,58.77,3.49,116.35-.19,173.08-17.09-20.47,22.64-29.38,53.28-68.39,60.5-88.82,16.41-177.32,33.98-270.26,51.93,39.89-41.19,82.48-73.03,138.14-90.34Zm-253.82-171.85c-61.56,13.36-112.8,39.14-162.78,67.37-7.76,4.4-19.72,8.04-28.11,6.31-73.7-15.22-147.03-31.74-222.97-48.4,136.82-51.36,271.42-71.66,413.86-25.27Zm-133.43,69.6c43.3-25.9,90.63-43.45,143.81-48.92-43.62,25.46-90.16,44.74-143.81,48.92h0Zm218.18-49.61c80.77,21.67,159.6,49.48,247.07,49.98-67.82,24.84-137.15,44.24-211.51,34.96-85.41-10.67-169.29-11.83-253.39,7.64-24.03,5.56-50.52,3.42-75.88,4.82l-2.39-6.78c16.4-8.07,32.23-22.02,49.3-23.23,74.02-5.27,137.83-31.13,200.46-62.1,12.65-6.26,32.69-8.96,46.34-5.29h0Zm33.16-31.5c168.83-82.39,324.11-100.29,451.46-33.08-145.66,64.51-293.59,95.98-451.45,33.08h0Zm481.16,16.58c-112.05,101.12-238.43,150.46-400.76,111.03,4.23-1.33,8.53-2.42,12.89-3.27,55.07-7.03,107.94-19.43,155.63-45.05,4.95-2.27,10.28-3.62,15.71-3.99,67.96-7.74,131.41-27.65,193.6-51.11,5.92-2.24,12.06-4.03,22.94-7.61h0Zm-387.35,717.3c10.95-37.96,25.7-69.82,52.5-93.96,60.93-54.91,87.91-123,111.69-192.68,16.89-49.51,31.32-99.62,47.27-149.38,12.18-38.05,35.94-67.91,82.76-79.7,.37,1.4,.34,2.88-.1,4.26-36.85,70.92-40.03,145.34-32.63,221.01,1.48,13.3,1.07,26.74-1.22,39.93-24.32,128-136.64,189.93-260.28,250.54h0Zm-420.82,173.17c6.95-19.66,14.68-41.69,10.72-61-8.96-43.7,14.59-60.57,59.35-72.99,95.13-26.38,154.27-85,188.02-163.77,9.97-23.3,22.54-45.78,32.21-69.16,5.82-14.08,16.76-20.78,32.13-26.6,36.63-13.88,73.36-28.06,108.14-44.94,64.23-31.16,111.89-75.73,140.02-134.55,1.92-3.48,4.06-6.84,6.4-10.05l3.18,.89c-9.34,32.38-18.44,64.8-28.07,97.11-32.61,109.24-87.69,205.36-200.14,273.85-66.89,40.75-113.51,98.2-145.25,163.48-3.23,6.62-8.59,12.7-13.95,18.34-57.26,60.18-140.31,72.07-223.19,87.25,10.92-20.28,23.52-38.33,30.43-57.85h0Zm557.11-604.5c-40.04,106.73-131.31,162.9-248.13,203.53,54.02-96.12,118.7-175.67,248.14-203.53h0Zm-552.87,415.55c29.39-67.57,74.39-126.22,158.16-154.27,37.99-12.73,76.9-23.52,116.41-35.5-37.44,126.54-109.15,224.72-272.61,253.46-1.08-20.63-10.14-44.88-1.95-63.68Zm-1.3-23.32c-6.14-57.72-2.07-113.3,28.55-164.97,3.95-6.66,13.78-13.48,22.23-15.09,71.42-13.66,122.7-49.89,160.93-101.27,16.85-22.64,32.07-46.2,49.97-68.22,7.08-8.73,18.1-17.71,29.51-20.84,48.61-13.41,97.62-26.16,147.28-36.27,40.8-8.31,82.72-12.54,124.15-18.56l.99,5.56c-5.9,1.64-11.73,3.53-17.71,4.9-69.61,15.83-127.88,47.29-168.26,97.81-30.4,38.05-53.84,80.05-81.58,119.7-6.45,9.16-15.4,16.27-25.78,20.49-25.21,9.33-51.66,16.35-77.83,23.73-82.78,23.33-144.67,66.73-181.19,134.93-3.31,6.21-7.5,12.08-11.27,18.11h0Zm-467.05-255.25c22.91-14.45,49.34-29.47,76.46-33.54,49.99-7.5,96.16-20.68,138.44-43.64,14.07-7.65,25.18-8.6,41.03-3.73,43.66,13.39,87.79,26.11,132.64,36.25,68.61,15.52,137.83,17.6,208.43-.84-38.01,36.7-76.49,71.96-118.62,103.7-18.12,13.64-43.62,20.39-66.18,29.54-17.72,7.2-35.78,14-54.26,19.62-15.26,4.63-31.43,10.54-47.03,10.24-77.39-1.51-148.23,16.77-213.93,49.63-35.98,18.01-73.09,20.24-111.64,12.3-44.25-9.09-87.91-20.18-131.1-30.24,30.04-33.3,59.51-67.2,90.61-99.98,16.74-17.66,34.03-35.98,55.15-49.32h0Zm196.69-91.99c-58.94,29.35-119.22,46.76-191.3,36.82,55.82-33.13,148.56-56.27,191.3-36.82h0Z"/>
  </g>
</svg>