<?xml version="1.0" encoding="UTF-8"?>
<svg id="Layer_1" data-name="Layer 1" xmlns="http://www.w3.org/2000/svg" xmlns:xlink="http://www.w3.org/1999/xlink" viewBox="0 0 3000 2000">
  <defs>
    <style>
      .cls-1 {
        fill: url(#linear-gradient);
      }

      .cls-1, .cls-2 {
        isolation: isolate;
        opacity: .4;
      }

      .cls-2 {
        fill: #914e26;
      }
    </style>
    <linearGradient id="linear-gradient" x1=".44" y1="2002.51" x2=".44" y2="2000.55" gradientTransform="translate(-954.16 1431706.35) scale(2059.16 -714.98)" gradientUnits="userSpaceOnUse">
      <stop offset="0" stop-color="#653317"/>
      <stop offset="1" stop-color="#914e26"/>
    </linearGradient>
  </defs>
  <g id="Group_727" data-name="Group 727">
    <path id="Path_832" data-name="Path 832" class="cls-2" d="M418.65,1014.37c-61.12-11.28-122.25-22.57-184.92-34.14,18.66,16.24,36.84,32.89,56.07,48.63,52.53,42.93,102.3,87.75,141.11,140.4,36.48,49.48,56.75,102.35,55.21,161.41-.9,35,17.79,66.16,41.29,94.17,18.76,22.35,40.34,43.11,61.77,63.79,35.99,34.66,68.88,70.82,87.82,114.64,1.49,2.96,2.01,6.31,1.5,9.58-29.92-61.12-86.86-105.17-134.48-155.16-23.97-25.16-42.28-54.12-63.28-81.53-2.22,8.45-3.89,19.51-8.05,29.89-21.33,53.16-40.01,107.31-65.87,158.89-34.92,69.6-38.2,137.25-3.21,207.13,27.53,55.01,50.61,111.32,40.73,172.94,.6-55.64-17.11-107.93-43.74-157.89-42.48-79.68-39.66-157.42,2.58-236.87,32.04-60.25,56.63-123.02,63.9-189.63,6.34-57.91-7.35-112.23-43-161.68-21.68-30.05-44.83-60.08-72.63-86.12-56.42-52.8-116.43-102.9-173.94-153.22-26.53,95.3-51.09,191.78-17.32,291.94,13.3,39.45,37.48,69.3,74.03,94.35,25.51,17.47,49.89,36.1,74.79,54.21l-4.08,3.9c-39.37-28.52-78.75-57.03-118.12-85.53l-3.69,1.03c14.44,27.68,27.57,55.94,43.74,82.9,13.42,22.48,28.71,43.77,45.73,63.67,47.96,55.67,67.91,116.78,55.31,183.2-1.23-19.14-1.38-40.18-4.16-60.99-5.79-43.6-31.05-80.43-60.7-115.21-69.23-81.18-111.53-171.34-130.55-269.75-12.77-65.89-10.16-133.84,7.64-198.55,11.49-42.77,11.74-84.62-5.46-127.25-28.64-70.99-31.18-144.72-26.03-219.02,3.81-54.75,5.25-109.59,7.17-164.41,.27-8.02-2.66-16.13-6.1-24.19-5.72,62.7-34.96,118.93-64,175.08C5.72,722.23-23.44,801.3-15.75,887.23c-13.9-83.81,8.57-162.12,45.96-239.01,22.55-46.36,43.35-93.78,58.38-142.17,18.55-59.65,5.64-115.76-39.45-166.86C6.2,290.52-43.26,247.89-100.85,207.88c-6.36,7.27-12.25,12.93-16.72,19.3-69.91,99.58-92,208.4-86.81,322.24,4.98,108.85,27.1,215.72,57.64,321.21,13.04,45.04,32.93,88.59,29.22,135.99-1.17,14.97-2.73,29.94-4.61,44.87-6.71,53.88,16.74,102.71,34.53,152.74,18.88,53.06,35.19,106.78,51.71,160.41,3.23,10.44,2.3,21.78,1.23,33.03-10.95-96.56-65.03-182.4-93.4-279.81-15.69,61.12-50.12,113.6-38.98,173.45l-5.97-51.61c-88.59,139.46-181.23,274.62-173.71,438.15-11.49-70.17,10.98-184.98,54.57-269.13,21.99-42.47,46.8-84,72.75-124.87,79.2-124.67,102.15-254.98,58.05-392.19-7.8-24.73-17.98-48.65-30.41-71.41-39.35-71.1-80.58-141.55-99.54-219.06-6.22-25.44-9.06-51.46-13.86-79.68-3.28,5.57-6.57,9.45-7.97,13.74-16.93,52.18-37.27,103.82-49.32,156.8-12.99,56.98,5.42,112.84,22.16,168.15,24.56,81.17,28.38,163.17,3.03,244.37-10.52,33.68-25.45,67.96-47.38,97.2-43,57.35-54.03,118.85-47.53,183.95,4.55,45.56,12.81,90.84,18.04,136.35,5.41,47.11,1.28,93.83-15.55,139.6,1.5-10.05,2.82-20.12,4.51-30.13,12.31-73.03-7.47-144.44-14.25-216.59-4.31-45.8-.8-92.13-.8-135.34-16.86,11.98-35.64,49.51-33.34,71.18,7.62,72.18-4.82,140.68-51.71,203.22-5.41,7.19-7.43,16.97-8.09,25.74-5.46,71.17,10.91,140.44,25.64,209.97,11.04,52.06,1.38,102.35-29.22,149.28,3.36-9.09,6.65-18.2,10.13-27.27,16.37-42.85,14.63-86.02,5.48-129.82-12.87-61.49-24.03-123.21-35.91-184.8-33.67,38.94-61.67,82.44-83.15,129.23,1.56-5.6,1.92-11.68,4.86-16.72,23.83-40.9,48.53-81.46,72.07-122.46,5.83-10.18,11.18-21.47,12.17-32.54,7.02-77.23,21.33-153.02,55.04-225.68,4.24-9.12,4.68-20.36,3.4-30.3-10-76.67-20.57-153.18-12.48-230.64,8.24-79,42.27-148.18,107.43-205.77,10.58-9.35,12.46-17.39,8.94-29.46-10.87-37.24-20.14-74.81-30.5-114.01-58.57,37.57-112.8,78.85-154.95,130.52-63.01,77.23-85.04,164.79-88.07,256.2-1.63,48.89,1.81,97.97,5,146.89,2.93,44.84,8.2,89.58,13.2,134.31,4.47,40-5.35,77.72-21.48,115.09-16.33,37.86-30.43,76.43-47.69,114.59,7.29-24.69,13.63-49.6,22.07-74.01,11.9-34.4,28.13-67.91,37.08-102.8,5.56-21.67,1.03-45.15-3.79-68.47-1.42,5.52-3.11,11.01-4.2,16.57-8.94,45.9-27.37,89.27-61.28,125.75-41.8,44.99-46.48,94.98-40.34,148.41,5.34,43.83,7.64,87.97,6.88,132.12,6.69-75.01-32.14-148.97-9.43-224.81-50.96,27.27-139.41,156.53-168.65,240.36,5.72-19.2,10.52-38.62,17.34-57.55,17.54-48.62,45.22-93.05,81.44-133.64,23.78-26.67,48.29-52.88,72.61-79.2,56.18-60.72,88.24-129.18,88.11-206.41-.1-51.33-4.76-102.64-11.67-154.67-2.25,3.49-4.31,7.1-6.18,10.8-20.65,46.28-55.47,84.24-96.94,118.54-34.92,28.86-70.71,57.13-103,87.97-23.43,22.37-41.76,48.5-64.41,75.42,2.57-6.23,3.79-10.51,6.03-14.38,25.49-43.99,60.85-81.73,102.13-116.02,32.06-26.6,65.11-52.68,93.85-81.72,44.87-45.33,69.95-97.92,71.47-157.99,1.52-59.63,10.05-118.57,31.47-175.8,32.16-85.92,94.64-154.44,177.64-208.92,39.87-26.14,62.74-54.83,73.53-97.28,23.33-91.84,74.13-175.64,123.36-259.45,5.07-8.63,9.7-17.45,15.88-28.58-23.8,6.85-45.16,12.01-65.36,19.43-6.07,2.22-9.88,10.36-12.95,16.44-17.05,33.52-30.45,68.62-50.96,100.53-29.96,46.64-77.98,79.3-133.23,103.88-15.05,6.7-22.81,15.54-27.98,28.79-21.81,55.81-53.13,106.37-104.28,148.58-38.46,31.73-50.68,75.49-57.82,119.6-7.22,44.63-13.96,89.32-22.9,133.71-3.32,16.41-12.25,31.99-21.6,47.32,41.49-86.28,16.6-183.15,63.51-268.41l-5.97-4.25c-38.87,32.71-81.65,62.81-115.64,98.78-50.26,53.19-84.16,113.21-91.06,183.45-9.33,94.76-60.7,176.49-127.01,251.07-33.85,38.09-48.55,79.29-52.41,125.13-1.9,22.6-5.72,45.06-8.65,67.6l-5.83-.59c6.86-47.47,13.72-94.93,20.74-143.45-52.92,50.77-125.38,87.08-157.79,153.32,13.02-40.67,43.18-71.59,79.28-98.77,67.91-51.13,122.21-111.12,167.02-177.57,34.08-50.52,58.09-103.93,66.84-161.81,1.34-7.29,1.38-14.76,.12-22.06-37.07,58.99-105.22,85.16-167.22,118.28-34.04,18.19-64.29,41.41-98.67,60.56,25.33-19.46,49.24-40.46,76.4-57.91,25.2-16.16,53.82-28.57,80.97-42.59,63.73-32.9,104.89-77.77,122.95-140.8,25.95-90.56,94.66-159.18,178.68-217,61.98-42.65,105.04-95.63,131.97-158.5,1.28-2.99,2.39-6.03,4.59-11.62-7,1.56-11.76,2.4-16.31,3.69-44.15,12.54-88.4,24.82-132.32,37.91-20.43,6.08-40.5,13.22-60.17,20.89-24.01,9.35-40.3,23.64-49.67,45.98-19.33,46.08-48.7,87.39-94.25,119.47-7.33,5.16-11.28,13.79-16.66,20.89-19.85,26.08-39.68,52.18-59.5,78.29l-6.16-3.25,56.18-74.47c-76.73,29.59-160.2,46.43-222.51,97.25,24.38-26.67,55.62-46.05,90.83-60.72,34.78-14.51,70.36-27.68,105.6-41.35,25.59-9.93,43.39-24.79,54.82-47.57,21.48-42.78,46.89-84.12,89.39-115.78,2.3-1.62,4.19-3.76,5.52-6.24,16.16-34.38,32.14-68.85,47.24-101.32-34.98,8.32-70.36,16.65-105.64,25.2-5.11,1.21-10.06,3.06-14.72,5.49-42.36,22.66-86.79,38.66-137.7,44.97-22.92,2.84-47.11,18.43-63.55,33.71-24.17,22.42-43.88,48.78-61.86,75.22-21.17,31.1-37.81,64.37-57.78,96.1-8.01,12.75-19.58,23.92-31.09,34.6,35.87-58.86,69.52-118.78,108.65-176.06,16.76-24.53,44.91-43.53,68.08-65.22-51.59-4.37-103.51,2.5-152.19,20.13-67.93,24.09-130.53,56.43-182.9,99.65-20.92,17.26-32.7,43.66-44.02,67.47-12.23,25.69-19.03,53.21-33.46,78.65l40.73-118.59c-46.83,41.21-86.24,87.1-156.15,97.17,52.84-14.85,90.32-46.67,125.57-80.79,70.86-68.6,153.68-123.54,254.06-158.79,48.96-17.19,99.72-23.24,152.65-22.35,19.85,.34,40.11-6.23,59.76-10.88,11.86-2.8,22.49-9.56,34.41-11.82,62.56-11.82,107.34-45.56,148.01-84.07,29.41-27.86,57.04-57.03,85.99-85.24,34.99-34.1,75.02-62.52,127.01-77.07,5.56-1.56,11.7-4.49,15.11-8.3,36.71-41.52,76.99-79.86,132.8-106.09-80.93-31.29-154.71-19.74-225.23,17.22-64.86,33.99-115.75,80.81-165.14,128.9-22.36,21.77-43.78,44.24-67.17,65.19-50.39,45.15-112.27,67.28-186.77,68.24-58.75,.75-117.47,6.1-176.04,10.67-14,1.1-27.43,7.26-41.53,9.89,35.67-18.63,75.1-27.36,116.43-29.33,31.79-1.5,63.73-1.26,95.59-1,77.03,.62,140.95-23.21,191.42-71.95,32.14-31.06,61.86-64.01,95.59-93.77,37.99-33.48,77.51-66.12,119.76-95.7,25.78-18.06,57.94-29.69,85.87-43.53-62.19-27.73-113.07,2.61-166.26,27.5l68.01-39.66c-52.96,.1-100.34,4.79-140.52,26.57-40.83,22.13-78.15,49.06-115.6,75.3-48.29,33.84-93.44,71-143.21,103.15-46.6,30.1-99.64,52.01-160.24,52.88-26.79,.39-55.35-1.4-80.21-8.96-50.96-15.46-95.34-4.94-136.73,18.34-26.3,14.79-49.67,33.48-73.14,51.53-37.62,28.92-77.07,54.95-127.07,67.11-3.01,.79-6.15,.93-9.22,.41,62.89-18.48,108.72-56.57,155.43-93.63,36.71-29.14,76.68-53.34,131.17-59.22-3.12-3.06-4.49-5.15-6.59-6.29-54.62-29.97-111.11-57.78-163.52-90.24-67.17-41.59-137.26-54.55-217.24-31.8-34.87,9.66-70.37,16.86-106.25,21.54-23.62,3.22-48.39,.6-72.79-2.68,63.22,4.04,121.95-11.54,180.18-28.11,80.55-22.94,152.11-9.09,220.1,31.7,47.96,28.78,97.46,56.21,148.81,80.45,96.27,45.43,192.06,40.98,284.16-10.25,25.88-14.4,52.2-28.84,75.18-46.2,61.09-46.16,120.44-93.91,182.26-142.43-52.76-5.74-96.93-27.91-142.64-48.44-35.79-16.08-76.33-10.28-113.46,1.63-31.86,10.23-62.52,23.17-93.53,35.23-42.21,16.42-86.07,26.02-133.5,22.82,78.29-2.19,141.47-39.22,210.76-62.31,27.59-9.18,58.03-12.32,87.23-18.24-3.62-2.36-7.39-4.47-11.3-6.33-48.64-21.1-100.86-30.31-155.12-31.2-101.06-1.63-198.03,13.14-288.55,52.7-55.62,24.3-113.19,31.41-173.4,13.12-5.21-1.46-10.09-3.88-14.4-7.14,98.96,33.16,175.63-17.53,258.86-49.94-50.2-8.64-100.38-17.29-150.55-25.94l.33-2.32c37.09,5.27,74.58,9.09,111.17,16.24,33.83,6.62,65.38,7.88,100.38,.96,139.86-27.63,274.59-18.76,399.25,48.08,63.48,34.02,132.86,38.71,206.29,29.1,46.48-6.08,94.23-5.33,141.4-7.86,13.71-.74,27.53-1.47,41-3.53,69.56-10.57,139.12-21.05,208.45-32.58,61.25-10.18,116.53-31.49,164.75-65.48,12.34-8.71,17.54-17.88,17.5-31.67-.6-199.35-2.01-463.54-2.15-662.9-.02-26.83-8.05-45.69,22.79-53.16,57.37-13.92,151.65-29.73,209.02-15.84,21.23,5.13,14.91,47.48,15.38,69C-3.72-456.37-2.36-227.81,3.22-58.59,3.86-29.8,7.14-1.13,13.04,27.05c8.97,40.8,29.61,49.78,77.92,42.19,150.44-23.58,290.59,.16,420.11,67.93,14.85,7.76,26.85,8.14,43.08,4.29,48.54-11.46,97.62-21.41,146.7-31.2,64-12.76,126.35-6.06,188.12,11.34,56.65,15.95,112.95,34.45,171.2,44.42,87.55,15,173.94,10.64,256.14-25.98,84.34-37.57,177.25-44.48,270.27-38.22,61.53,4.15,122.95,14.76,183.12,26.98,57.04,11.57,112.41,28.91,172.77,22-42.67,11.55-84.7,6.9-125.82-3.58-71.68-18.27-144.1-32.52-219.32-34.76-10.01-.31-20.01-.78-35.91-1.4l29.08,17.5c-1.71,.96-2.66,1.78-2.96,1.63-67.85-33.37-136.48-16.05-202.42,2.01-53.75,14.72-103.84,38.65-156.46,56.66-13.71,4.68-30.8,3.27-46.31,3.24-34.16-.06-68.36-2.16-102.44-1.27-20.71,.56-41.3,3.3-61.43,8.17-54.44,13.24-108.25,28.28-162.47,42.13-12.46,3.17-25.66,4.33-40.11,6.68,21.37,22.18,44.6,33.11,77.07,21.03,14.17-5.27,29.67-8.19,43.39-14.09,167.02-71.77,334.2-62.51,501.57-1.27,17.79,6.52,34.8,14.49,52.37,21.44,66.59,26.28,97.58,29.32,171.59,17.17-28.66,14.3-84.9,18.71-127.65,7.41-26.34-7.28-52.18-16.24-77.38-26.82-100.38-40.84-206.58-55.38-317.11-51.59-3.67,.13-7.33,.72-9.22,.91,39.86,22.55,80.25,45.43,120.67,68.29l-4.18,5.54c-6.75-3.96-13.53-7.88-20.26-11.85-24.15-14.24-47.15-30.13-72.69-42.29-31.6-15.05-65.85-19.15-100.78-6.08-26.23,9.82-52.65,19.27-78.87,29.1-28.31,10.62-56.5,21.49-85.91,32.7,68.98,58.88,148.59,91.82,251.25,79.11,56.52-7,114.14-8.79,171.36-10.21,20.82-.51,41.94,6.86,62.6,13.02-81.13-19.87-160.7-3.63-240.22,6.49-79.81,10.14-148.96-8.97-211.26-49.86-9.17-6.03-19.12-11.57-26.91-18.73-17.6-16.1-37.52-21.39-65.09-11.32,77.16,56.67,153.33,112.82,230.03,168.46,6.32,3.95,13.81,5.61,21.21,4.68,65.6-11.27,125.55,2.83,181.1,30.35,27.82,13.79,53.31,15.31,80.95,3.84,52.88-21.93,107.84-41.08,157.75-67.08,79.69-41.51,160.24-53,248.75-23.8,55.97,18.47,113.75,31.82,175.32,26.14-41.94,9.08-81.4,7.09-135.57-6.57-27.53-6.93-54.78-14.67-82.33-21.54-55.84-13.89-109.32-7.86-160.2,15.08-22.94,10.4-45.33,21.99-67.05,34.74,84.57-2.88,145.42,51.41,224.35,61.54l-1.85,5.28c-21.64-5.48-43.84-9.77-64.8-16.72-25.26-8.35-49.11-19.67-74.21-28.42-49.21-17.14-97.4-17.98-145.58,5.02-29.36,14.04-61.16,24.48-93.9,41.35,41.86,12.04,83.71,24.08,125.55,36.11l-.74,2.86c-33.01-7.97-67.85-12.7-98.55-24.81-33.25-13.11-64.08-17.14-99.52-3.22,77.36,34.74,113.95,101.01,168.23,153.94q24.87,24.23,64.51,29.17l-28.52,1.56c10.55,7.37,17.21,12.17,24.09,16.75,6.36,4.25,12.97,8.24,17.44,14.95-11.96-6.63-25.55-11.91-35.48-20.25-15.46-12.96-32.64-13.76-51.36-9.49-30.74,7.01-60.97,15.62-91.88,21.93-23.97,4.9-48.64,7.31-79.23,13.6,4.26,1.21,9.53,1.44,12.62,3.76,41.72,31.2,84.74,61.36,124.19,94.52,37.33,31.34,70.94,65.77,122.89,81.63l-4.29,5.73c-23.17-11.99-48.08-22.19-69.08-36.44-22.22-15.08-41.1-33.75-60.79-51.33-60.97-54.43-132.12-97.13-212.03-129.42-52.24-21.1-107.34-31.91-172.68-28.2,70.09,38.82,99.27,96.19,131.56,151.8,24.67,42.47,54.2,82.12,96.45,114.24-27.02-12.66-58.58-40.95-82.57-76.36-18.84-27.78-33.65-57.55-53.39-84.81-18.43-25.49-38.79-50.49-62.35-72.7-21.72-20.46-50.33-32.13-84.08-38.62-36.96-7.12-71.54-22.86-107.43-34.94,24.83,55.59,23.04,114.75,19.56,174.14-.41,6.73,2.45,14.07,5.75,20.41,21.31,41,48.14,79.06,85.72,111.24,2.7,2.28,5.2,4.77,7.48,7.47,.66,.78-.06,2.39-.29,5.42l-107.87-61.12c-12.71,64.75,.88,118.8,45.34,166.62,3.83,4.13,12.05,5.41,18.22,8,27.41,11.55,54.82,23.11,82.24,34.68l-2.45,4.29c-25.94-10.46-51.87-20.9-82.96-33.43,24.16,33.63,44.99,62.59,65.79,91.55l-4.07,2.01c-21.58-26.83-41.86-54.5-65.36-80.07-9.02-9.8-24.36-17.44-38.67-21.47-26.4-7.45-54.26-11.26-81.36-17.04-49.01-10.46-92.05-30.24-127.54-62.16,1.71,163.37,99.31,282.81,235.25,385.48,34.78,26.26,67.33,53.8,80.95,93.3-26.4-49.19-76.93-79.98-122.54-114.39-27.1-20.44-55.31-39.86-74.93-53.91,3.48,28.06,8.4,67.82,13.3,107.56l-4.86,.49c-3.01-22.54-6.73-45.02-8.85-67.62-3.4-36.33-13.47-69.83-39.23-100.74-53.85-64.61-84.35-136.25-93.92-215.82-8.36-69.5-55.25-125.65-112.47-174.25-32.12-27.26-69.21-50.36-109.24-79.06,10.69,27.05,18.74,48.71,28.17,69.96,1.83,4.1,8.71,7.06,13.9,9.63,65.61,32.5,106.64,79.94,127.52,141.5,17.07,50.36,38.03,99.78,55.02,150.77-15.71-32.77-32.45-65.25-46.78-98.46-11.12-25.74-17.98-52.77-28.95-78.55-20.55-48.24-60.03-82.83-116.55-109.11,20.65,108.91,13.14,219.26,75.12,318.79-4.9-7.19-10.11-14.24-14.63-21.6-4.98-8.11-10.75-16.16-13.67-24.84-12.89-38.21-24.73-76.68-37.27-114.98-2.8-8.58-6.88-16.88-10.38-25.33,1.61-5.13,5.09-10.44,4.51-15.39-3.85-32.44-9.28-64.75-12.76-97.2-2.08-19.31-10.95-32.72-33.32-40.12-12.83-4.25-24.24-11.55-36.22-17.58-84.73-42.65-163.76-90.17-204.72-170.05-1.57-.17-3.15-.18-4.72-.03-.64,11.12-.66,22.57-2.08,33.89-7.25,57.6,10.24,112.07,26.95,167.07,21.4,70.46,53.97,92.41,119.76,105.12,18.12,3.5,37,4.43,54.84,8.58,25.03,5.84,49.43,13.6,74.1,20.53Zm1009.03-288.72c-29.57-32.42-58.62-65.41-89.24-97.34-16.51-17.19-33.52-35.04-54.34-48.03-22.57-14.07-48.61-28.7-75.3-32.65-49.26-7.31-94.74-20.15-136.35-42.51-13.88-7.44-24.81-8.35-40.42-3.63-43.02,13.06-86.49,25.43-130.64,35.3-67.58,15.12-135.78,17.14-205.3-.82,37.43,35.75,75.32,70.07,116.82,100.97,17.85,13.3,42.97,19.86,65.19,28.76,17.46,7.01,35.25,13.65,53.46,19.1,15.01,4.51,30.95,10.28,46.31,9.97,76.23-1.47,146,16.34,210.72,48.34,35.46,17.53,71.99,19.7,109.98,11.98,43.56-8.85,86.57-19.65,129.1-29.46h0ZM258.64,467.77l-3.12,.88c9.22,31.52,18.16,63.09,27.66,94.55,32.1,106.37,86.36,199.95,197.12,266.63,65.91,39.68,111.83,95.61,143.09,159.2,3.17,6.45,8.46,12.37,13.74,17.86,56.37,58.58,138.19,70.15,219.82,84.94-10.77-19.72-23.17-37.31-29.96-56.31-6.84-19.14-14.48-40.61-10.58-59.42,8.85-42.54-14.37-58.96-58.46-71.05-93.69-25.71-151.96-82.77-185.18-159.48-9.84-22.68-22.22-44.58-31.75-67.33-5.73-13.71-16.51-20.25-31.63-25.92-36.1-13.51-72.26-27.32-106.54-43.76-63.26-30.35-110.21-73.72-137.9-130.99-1.9-3.4-4.02-6.68-6.33-9.81h0Zm781.05,21.43c-25.49-17.89-48.18-32.71-69.37-48.93-36.76-28.12-71.99-57.69-109.01-85.6-74.21-55.94-163.11-72.43-259.97-66.1-2.25,.15-4.38,1.86-7.87,3.43l67.87,27.17c-9.62,1.5-16.97-1.65-24.73-3.74-27.24-7.37-55.19-21.49-81.83-20-51.13,2.86-101.54,14.64-147.42,21.96,35.54,30.2,72.34,59.71,106.42,91.32,13.09,12.35,28.37,22.15,45.06,28.89,24.83,10.25,49.98,22.26,69.83,38.11,34.7,27.73,75.51,43.21,120.71,51.84,101.6,19.37,194.4-9.21,290.3-38.35h0Zm-769.78-74.41l-.98,5.41c5.79,1.62,11.53,3.46,17.42,4.79,68.57,15.41,125.96,46.05,165.74,95.24,29.94,37.03,53.06,77.95,80.37,116.55,6.38,8.93,15.18,15.85,25.37,19.94,24.85,9.1,50.9,15.92,76.68,23.11,81.52,22.71,142.5,64.97,178.45,131.38,3.27,6.05,7.39,11.77,11.1,17.65,6.07-56.2,2.04-110.34-28.11-160.65-3.87-6.47-13.55-13.11-21.89-14.67-70.36-13.32-120.87-48.58-158.51-98.6-16.6-22.06-31.61-45-49.23-66.44-6.98-8.48-17.85-17.22-29.08-20.29-47.86-13.06-96.14-25.46-145.07-35.31-40.16-8.1-81.47-12.21-122.27-18.09h.01Zm-147.28-50.03c-.36,1.36-.32,2.8,.12,4.14,36.3,69.05,39.43,141.52,32.14,215.22-1.46,12.94-1.06,26.03,1.19,38.86,23.95,124.65,134.61,184.94,256.37,243.96-10.77-36.97-25.31-67.98-51.71-91.51-60.01-53.47-86.57-119.75-110-187.6-16.66-48.22-30.87-97.02-46.56-145.47-12.01-37.05-35.42-66.11-81.53-77.6h0Zm-954.73,295.08c53.74-16.19,106.71-31.91,159.48-48.13,24.05-7.41,47.96-15.23,71.29-24.05,6.94-2.61,15.07-8.51,16.95-14.22,21.29-64.43,41.45-129.13,61.88-193.58-5.62-1.52-7.14-2.39-8.44-2.21-6.88,.98-13.8,1.9-20.51,3.42-65.85,14.87-122.15,39.76-154.68,94.47-12.99,21.86-31.6,42.13-51.38,60.22-39.83,36.39-51.57,83.29-74.59,124.07h0Zm456.23,216.45c-40.09,35.23-68.75,71.18-87.56,112.55-36.88,81.1-33.48,165.13-25.33,249.45,1.76,18.19,4.8,36.31,7.25,54.42,116.98-123.78,154.02-260.54,105.65-416.44h0Zm928.19-209.49c36.88,123.2,107.51,218.79,268.52,246.77,1.07-20.09,9.99-43.68,1.93-62.02-28.95-65.77-73.26-122.9-155.76-150.2-37.44-12.39-75.76-22.9-114.68-34.55h0ZM60.17,120.1c143.48,62.81,289.19,93.46,444.68,32.21C338.57,72.09,185.63,54.65,60.17,120.1h0Zm766.67,157.71l2.35-6.59c-16.16-7.88-31.75-21.44-48.59-22.63-72.9-5.11-135.74-30.31-197.45-60.47-12.46-6.08-32.19-8.71-45.65-5.15-79.55,21.11-157.2,48.18-243.37,48.66,66.8,24.2,135.12,43.09,208.35,34.04,84.1-10.38,166.73-11.51,249.57,7.44,23.68,5.41,49.77,3.34,74.77,4.69h0Zm201.82-89.68c-134.79-49.99-267.34-69.76-407.65-24.61,60.62,13.01,111.09,38.12,160.31,65.61,7.66,4.26,19.42,7.8,27.68,6.13,72.6-14.8,144.84-30.89,219.65-47.13h0ZM-364.53,356.94c-31.9,3.37-61.61,7.09-91.45,9.4-16.31,1.26-24.4,7.31-28.31,20.62-16.08,55.04-33.05,109.9-49.55,164.83-.39,1.31,1.03,2.99,1.87,5.2,90.99-45.68,140.94-114.24,167.44-200.05h0Zm642.75,89.98c39.43,103.9,129.34,158.59,244.42,198.16-53.23-93.58-116.92-171.05-244.42-198.16h0Zm-499.16-77.81c-50.8,64.09-66.9,130.86-57.62,202.67,9.95,77.12,44.62,147.55,82.59,217.1,2.55,4.16,5.34,8.17,8.34,12.01-29.46-142.15-60.23-283.37-33.3-431.77Zm394.43-59.76c20.16,22.04,28.91,51.89,67.36,58.91,87.47,15.98,174.64,33.11,266.19,50.56-39.29-40.09-81.25-71.08-136.05-87.95-8.61-2.66-18.18-5.39-27.02-4.88-57.89,3.38-114.63-.19-170.48-16.65h0Zm252.19-32.77c-4.17-1.28-8.41-2.35-12.7-3.19-54.26-6.83-106.33-18.91-153.3-43.84-4.89-2.21-10.13-3.53-15.47-3.9-66.94-7.52-129.46-26.92-190.72-49.76-5.81-2.16-11.88-3.9-22.57-7.4,110.37,98.46,234.83,146.5,394.76,108.09h0ZM-257.05,85.95l-4.74-4.12c-49.4,34.86-106.38,56.41-169.1,66.35-62,9.82-124.45,17.67-186.68,26.37l-.45,5.1c60.68,12.06,121.3,24.35,182.15,35.7,4.82,.9,12.13-4.04,16.99-7.53,41.78-30.05,83.35-60.31,124.72-90.78,13.08-9.67,24.77-20.69,37.11-31.1h0Zm45.08,140.73c-9.8,1.1-12.19,.87-13.96,1.63-50.65,21.98-104.13,33.5-161.42,31.78-5-.15-12.31,.47-14.81,3.17-18.08,19.61-35.19,39.86-55.74,63.49,86.61-6.21,160.47-23.16,220.62-69.44,9.31-7.18,14.87-17.78,25.31-30.64h0ZM580.86,485.52c47.86,92.59,132.34,159.17,199.47,156.01-73.53-46.25-113.19-118.96-199.47-156.01h0Zm-1298.22-44.81l-3.6-3.32c-54.83,49.06-109.63,98.12-167.9,150.26,39.62-7.48,77.05-14.51,98.22-39.51,28.34-33.47,49.2-71.41,73.27-107.43h0Zm1996.15,85.84c-54.98-32.26-146.34-54.78-188.41-35.84,58.04,28.58,117.43,45.53,188.41,35.84ZM-605.65,351.82c33.18-6.24,60.31-11.21,87.33-16.55,4.16-.83,9.88-2.61,11.41-5.33,12.01-21.26,23.17-42.85,36.18-67.3-56.35,18.91-96.01,49.66-134.91,89.18h0Zm121.14,1005.93c-23.74,38.65-47.01,136.48-43.35,181.31,39.22-57.39,52-115.44,43.37-181.31h-.01ZM-207.63,130.75l-132.34,78.61,3.48,4.88c40.5-6.26,76.42-21.64,111.97-38.96,21.06-10.26,23.32-23.16,16.89-44.53Zm818.42,52.9c42.97,24.79,88.81,43.57,141.63,47.64-42.65-25.2-89.27-42.31-141.64-47.64h0Zm282.99,770.4c-20.06-26.8-38.75-51.79-59.37-79.34-2,13.97-4.76,24.89-4.61,35.79,.49,6.19,3.79,11.82,8.96,15.26,16.97,9.89,35.18,18.27,55.01,28.29h0Zm-1756.14-243.49l-10.87-5.28-66.99,96.43,10.14,5.02c22.57-32.06,45.14-64.12,67.71-96.17h0Z"/>
    <path id="Path_833" data-name="Path 833" class="cls-1" d="M1768.68,418.22c-89.87-29.99-171.64-18.21-252.52,24.42-50.67,26.7-106.48,46.37-160.15,68.89-28.07,11.78-53.94,10.22-82.19-3.93-56.39-28.26-117.26-42.75-183.85-31.17-7.53,.95-15.15-.75-21.55-4.82-77.85-57.15-155.18-114.8-233.54-173,28.01-10.34,48.24-4.9,66.08,11.63,7.93,7.33,18,13.04,27.34,19.23,63.24,41.97,133.43,61.61,214.47,51.19,80.73-10.37,161.49-27.07,243.88-6.65-21-6.34-42.42-13.91-63.56-13.38-58.09,1.46-116.59,3.32-173.97,10.49-104.21,13.04-185.06-20.79-255.07-81.26,29.86-11.51,58.46-22.67,87.22-33.57,26.61-10.1,53.45-19.82,80.07-29.91,35.47-13.43,70.25-9.2,102.32,6.26,25.91,12.48,49.28,28.8,73.78,43.42,6.85,4.08,13.71,8.13,20.59,12.17l4.22-5.67c-41.01-23.5-82.05-46.98-122.49-70.15,1.91-.19,5.61-.81,9.34-.92,112.23-3.9,220.05,11.03,321.96,52.97,25.56,10.87,51.8,20.08,78.56,27.56,43.38,11.6,100.5,7.07,129.58-7.62-75.12,12.47-106.6,9.35-174.18-17.64-17.84-7.13-35.13-15.34-53.19-22.02-169.9-62.9-339.64-72.4-509.21,1.29-13.93,6.06-29.65,9.06-44.03,14.47-32.98,12.42-56.57,1.19-78.26-21.58,14.68-2.42,28.07-3.61,40.72-6.88,55.07-14.2,109.7-29.65,164.95-43.25,20.43-5,41.34-7.81,62.37-8.39,34.62-.91,69.34,1.23,104,1.31,15.77,.03,33.1,1.48,47.03-3.34,53.41-18.48,104.27-43.07,158.85-58.19,66.95-18.55,136.6-36.32,205.51-2.05,.3,.13,1.26-.69,2.98-1.68-8.57-5.22-16.8-10.24-29.51-17.99,16.14,.66,26.29,1.14,36.45,1.44,76.35,2.32,149.89,16.95,222.66,35.7,41.74,10.78,84.4,15.54,127.72,3.69-61.26,7.1-117.5-10.71-175.41-22.61-61.09-12.54-123.42-23.45-185.9-27.7-94.44-6.44-188.75,.66-274.37,39.26-83.47,37.61-171.16,42.07-260.06,26.69-59.13-10.25-116.27-29.24-173.79-45.63-62.73-17.86-126.02-24.75-190.98-11.63-49.84,10.05-99.65,20.26-148.96,32.04-16.46,3.93-28.64,3.56-43.72-4.43-66.16-35.01-145.92-58.55-227.96-72.33-82.04-13.77-121.92-10.48-121.92-10.48,0,0,16.08-3.27-91.57,6.52-3.45,.31-38.51,7.23-46.01,0C4.2,30.5,5.79-24.09,5.79-24.09L-252.89-46.15s2.33,31.17-5.51,56.01c-7.84,24.84-25.58,46.65-25.58,46.65-48.5,34.12-103.94,55.64-165.32,65.96-70.38,11.83-141.02,22.61-211.63,33.46-13.7,2.1-27.71,2.85-41.65,3.61-47.86,2.62-96.34,1.83-143.53,8.07-74.57,9.88-145.01,5.07-209.45-29.87-126.56-68.64-263.34-77.77-405.31-49.39-35.55,7.1-67.58,5.81-101.92-.99-37.13-7.33-75.18-11.26-112.84-16.68l-.36,2.38c50.96,8.9,101.91,17.78,152.85,26.67-84.5,33.28-162.32,85.32-262.78,51.27,4.37,3.34,9.32,5.83,14.61,7.35,61.13,18.78,119.59,11.48,176.04-13.49,91.9-40.63,190.37-55.8,292.96-54.13,55.09,.91,108.1,10.37,157.49,32.04,3.96,1.92,7.79,4.1,11.47,6.51-29.67,6.06-60.55,9.3-88.56,18.73-70.36,23.7-134.49,61.73-213.99,63.98,48.16,3.29,92.71-6.58,135.56-23.45,31.48-12.38,62.59-25.68,94.94-36.17,37.72-12.23,78.87-18.21,115.21-1.7,46.4,21.1,91.23,43.87,144.81,49.74-62.77,49.83-123.04,98.89-185.04,146.28-23.33,17.84-50.05,32.68-76.34,47.46-93.48,52.6-190.74,57.15-288.46,10.51-51.72-24.98-102.14-52.55-151.09-82.59-69.02-41.91-141.69-56.12-223.47-32.58-59.09,17.04-118.72,33.03-182.91,28.88,24.77,3.36,49.9,6.06,73.9,2.73,36.43-4.81,72.47-12.2,107.85-22.12,81.2-23.36,152.35-10.04,220.55,32.66,53.23,33.33,110.59,61.9,166.03,92.67,2.11,1.17,3.49,3.32,6.69,6.46-55.34,6.06-95.91,30.91-133.19,60.84-47.4,38.06-93.95,77.17-157.81,96.17,3.12,.52,6.32,.37,9.38-.44,50.76-12.47,90.81-39.22,128.98-68.91,23.84-18.55,47.57-37.73,74.25-52.92,42.02-23.92,87.1-34.72,138.84-18.83,25.22,7.75,54.23,9.58,81.43,9.2,61.5-.89,115.35-23.4,162.66-54.31,50.52-33.03,96.36-71.2,145.39-105.93,38.04-26.95,75.91-54.62,117.38-77.35,40.8-22.37,88.9-27.19,142.64-27.27-26.11,15.41-47.57,28.06-69.02,40.71,54-25.55,105.65-56.71,168.77-28.25-28.36,14.24-61.01,26.16-87.16,44.71-42.89,30.39-83.02,63.89-121.58,98.3-34.24,30.54-64.42,64.37-97.05,96.28-51.24,50.08-116.13,74.55-194.33,73.9-32.35-.27-64.8-.52-97.07,1.04-41.94,2.01-81.97,10.98-118.21,30.11,14.33-2.7,27.95-9.01,42.16-10.14,59.5-4.7,119.09-10.19,178.72-10.98,75.65-.98,138.48-23.7,189.64-70.07,23.72-21.52,45.49-44.59,68.17-66.95,50.13-49.41,101.83-97.48,167.67-132.4,71.59-37.96,146.5-49.83,228.64-17.69-56.65,26.94-97.56,66.31-134.83,108.96-3.43,3.94-9.67,6.93-15.33,8.53-52.76,14.95-93.4,44.14-128.92,79.16-29.39,28.95-57.44,58.93-87.3,87.52-41.29,39.56-86.74,74.23-150.26,86.36-12.09,2.3-22.91,9.25-34.96,12.13-19.95,4.77-40.5,11.51-60.65,11.18-53.76-.92-105.28,5.29-154.98,22.94-101.92,36.2-186.01,92.64-257.95,163.1-35.78,35.04-73.82,67.7-127.48,82.96,71-10.32,110.99-57.45,158.53-99.78-14.55,42.85-27.95,82.32-41.35,121.79,14.65-26.14,21.57-54.39,33.99-80.79,11.49-24.44,23.43-51.56,44.67-69.28,53.19-44.39,116.73-77.6,185.7-102.34,49.96-17.92,101.97-25.43,154.49-20.69-23.51,22.27-52.11,41.81-69.1,66.98-39.73,58.84-73.9,120.38-110.31,180.83,11.67-10.98,23.43-22.43,31.56-35.55,20.25-32.59,37.15-66.75,58.64-98.7,18.26-27.14,38.29-54.23,62.81-77.25,16.7-15.68,41.25-31.7,64.54-34.61,51.69-6.5,96.79-22.91,139.78-46.2,4.73-2.49,9.76-4.38,14.96-5.62,35.82-8.79,71.73-17.36,107.23-25.88-15.33,33.36-31.54,68.73-47.96,104.04-1.33,2.55-3.26,4.75-5.61,6.41-43.13,32.53-68.92,74.97-90.75,118.93-11.61,23.38-29.67,38.63-55.64,48.84-35.8,14.06-71.9,27.59-107.21,42.48-35.74,15.09-67.46,34.99-92.21,62.37,63.24-52.19,147.99-69.46,225.88-99.87l-57.02,76.48,6.26,3.36c20.11-26.8,40.24-53.61,60.4-80.42,5.46-7.28,9.46-16.13,16.92-21.43,46.24-32.97,76.05-75.37,95.69-122.7,9.51-22.94,26.03-37.63,50.41-47.23,19.97-7.87,40.34-15.21,61.11-21.46,44.57-13.43,89.51-26.05,134.33-38.94,4.62-1.33,9.44-2.17,16.56-3.78-2.23,5.74-3.36,8.86-4.66,11.93-27.34,64.57-71.07,118.96-133.98,162.76-85.31,59.39-155.08,129.85-181.43,222.86-18.34,64.73-60.1,110.83-124.82,144.62-27.55,14.38-56.63,27.11-82.19,43.74-27.57,17.91-51.85,39.49-77.59,59.46,34.92-19.67,65.63-43.5,100.19-62.18,62.93-34.04,132.12-60.91,169.76-121.49,1.28,7.51,1.24,15.18-.14,22.67-8.88,59.44-33.24,114.29-67.84,166.18-22.38,33.57-41.18,64.18-68.74,94.23h22.67c9.99-23.27,122.53-178.43,131.98-275.77,7.01-72.12,41.45-133.76,92.46-188.39,34.5-36.96,77.95-67.85,117.38-101.47l6.06,4.38c-47.63,87.54-22.34,187.04-64.48,275.64,9.51-15.73,18.59-31.75,21.95-48.59,9.06-45.58,15.93-91.49,23.23-137.32,7.24-45.31,19.68-90.26,58.7-122.83,51.93-43.37,83.73-95.28,105.87-152.59,5.27-13.61,13.12-22.69,28.4-29.57,56.11-25.24,104.85-58.81,135.28-106.7,20.8-32.76,34.42-68.83,51.71-103.25,3.14-6.23,7-14.6,13.17-16.89,20.48-7.62,42.18-12.91,66.34-19.95-6.26,11.45-10.95,20.49-16.1,29.37-49.99,86.06-101.55,172.13-125.25,266.46-10.95,43.59-34.17,73.04-74.63,99.91-84.26,55.94-147.72,126.33-180.36,214.55-21.75,58.79-30.4,119.31-31.93,180.55-1.56,61.71-27.02,115.7-72.57,162.27-24.73,25.29-55.24,47.3-82.99,70.41l19.63-.08c8.62-7.15,19.68-13.09,28.24-20.26,42.1-35.23,77.47-74.23,98.41-121.74,1.91-3.81,4.01-7.52,6.3-11.12,6.81,51.91,29.12,102.45,29.48,153.64h27.77c-2.73-25.96-25.31-51.28-26.99-77.27-3.24-50.23-6.73-100.65-5.09-150.86,3.08-93.88,25.46-183.81,89.41-263.11,42.79-53.06,97.86-95.46,157.31-134.06,10.52,40.28,19.94,78.86,30.97,117.11,3.59,12.39,1.68,20.64-9.06,30.26-66.16,59.14-100.7,130.17-109.07,211.31-8.21,79.55,2.51,158.15,12.65,236.89,1.28,9.95,7.61,20.52,3.61,29.77h31.06c5.86-19.79,6.76-40.7,18.76-49.32,0,16.25,13.73,32.38,13.34,49.32h7.83c3.77-45.26,4.68-88.02,35.28-129.29,22.26-30.02,37.42-65.23,48.08-99.81,25.74-83.39,21.87-167.63-3.08-250.97-16.99-56.81-35.67-114.19-22.5-172.71,12.26-54.39,32.9-107.45,50.09-161.01,1.42-4.43,4.76-8.41,8.09-14.12,4.88,28.98,7.76,55.7,14.07,81.82,19.25,79.6,61.11,151.97,101.05,224.99,12.63,23.39,22.97,47.95,30.89,73.32,44.76,140.93,21.48,274.77-58.94,402.82-9.47,15.07-18.75,29.75-27.83,45h17.96c18.45-30.33,37.87-59.95,56.97-90.37,2.25,19.69,4.15,36.35,6.06,53.02-11.31-61.46,23.64-115.37,39.57-178.15,21.73,75.52,72.68,143.72,94.12,215.54h2.9c-13.03-42.61-41.12-84.65-55.95-126.82-18.08-51.39-41.88-101.54-35.06-156.85,1.9-15.35,3.46-30.71,4.68-46.1,3.77-48.67-16.44-93.41-29.68-139.67-31.02-108.32-53.47-218.09-58.5-329.86-5.27-116.93,17.15-228.67,88.11-330.96,4.54-6.53,10.53-12.35,16.97-19.82C-51.94,239-1.73,282.77,41.87,332.76c45.75,52.46,58.86,110.11,40.05,171.35-15.28,49.69-36.4,98.4-59.27,146.03-37.95,78.96-60.77,159.37-46.66,245.45-7.8-88.24,21.79-169.44,62.37-248.79,29.49-57.65,59.17-115.4,64.99-179.8,3.49,8.26,6.47,16.6,6.2,24.84-1.95,56.29-3.44,112.63-7.28,168.84-5.23,76.31-2.66,152.04,26.43,224.94,17.47,43.8,17.21,86.77,5.53,130.7-18.06,66.49-20.72,136.22-7.76,203.89,8.51,44.48,36.34,87.2,54.3,128.32h1.65c4.99,0,1.45-.05,8.8,0h46.19c-24.51-21.88-72.33-47.34-82.83-78.8-34.29-102.86-9.34-201.95,17.61-299.84,58.38,51.69,119.31,103.13,176.57,157.37,28.24,26.73,51.75,57.58,73.74,88.45,29.37,41.19,43.82,85.74,44.88,132.82h18.06c.93-59.65-19.48-113.17-55.98-163.27-39.42-54.09-89.94-100.11-143.25-144.22-19.54-16.15-37.98-33.26-56.92-49.94,63.63,11.9,125.69,23.48,187.74,35.08-25.05-7.12-49.82-15.09-75.24-21.08-18.12-4.28-37.3-5.24-55.7-8.83-66.77-13.06-99.85-35.6-121.56-107.96-16.97-56.49-34.74-112.43-27.36-171.57,1.44-11.63,1.44-23.39,2.11-34.81,1.59-.15,3.19-.15,4.78,.02,41.61,82.05,121.82,130.84,207.84,174.64,12.16,6.19,23.74,13.71,36.77,18.07,22.74,7.61,31.74,21.36,33.83,41.18,3.55,33.33,9.06,66.52,12.97,99.82,.59,5.1-2.96,10.53-4.6,15.83,3.55,8.66,7.7,17.19,10.56,26.01,12.73,39.34,24.75,78.83,37.82,118.08,2.98,8.91,8.84,17.17,13.89,25.51,4.58,7.55,9.87,14.8,14.84,22.19-62.92-102.24-55.3-215.56-76.27-327.4,57.38,26.99,97.47,62.52,118.31,112.04,11.15,26.5,18.1,54.26,29.39,80.69,14.57,34.09,31.56,67.43,47.51,101.12-17.25-52.36-38.53-103.13-55.88-154.84-21.18-63.22-62.82-111.96-129.44-145.33-5.27-2.65-12.28-5.67-14.13-9.9-9.57-21.8-17.72-44.07-28.6-71.85,40.64,29.47,78.32,53.2,110.9,81.21,58.09,49.91,105.71,107.58,114.2,178.96,9.71,81.72,40.66,155.27,95.35,221.65,14.31,17.32,24.98,37.35,31.38,58.89h34.6c-87.69-87.46-144.97-188.67-146.28-315.81,36.02,32.79,79.72,53.1,129.48,63.84,27.5,5.94,55.78,9.85,82.6,17.52,14.51,4.13,30.08,11.98,39.26,22.04,23.86,26.27,44.45,54.66,66.34,82.22l4.14-2.05c-21.14-29.76-42.26-59.5-66.79-94.02,31.56,12.86,57.89,23.6,84.22,34.32l2.49-4.41-83.49-35.6c-6.28-2.68-14.61-3.98-18.51-8.22-45.12-49.12-58.94-104.64-46.01-171.13,38.8,22.25,73.8,42.31,109.52,62.78,.24-3.14,.98-4.78,.3-5.59-2.32-2.76-4.87-5.32-7.61-7.67-38.15-33.04-65.41-72.13-87.04-114.22-3.34-6.53-6.24-14.06-5.84-20.98,3.53-60.97,5.37-121.72-19.84-178.82,36.42,12.39,71.55,28.56,109.07,35.87,34.26,6.68,63.32,18.66,85.36,39.69,23.9,22.79,44.59,48.49,63.3,74.65,20.01,28.03,35.07,58.59,54.2,87.12,24.36,36.35,56.39,65.42,83.81,78.42-42.87-33.01-72.85-73.74-97.9-117.35-32.78-57.09-62.41-116.04-133.56-155.9,66.32-3.79,122.27,7.32,175.29,28.98,81.12,33.15,153.38,77,215.26,132.9,20.01,18.07,39.18,37.22,61.74,52.72,21.32,14.63,46.58,25.12,70.13,37.44l4.36-5.91c-52.74-16.26-86.89-51.62-124.76-83.83-40.07-34.04-83.72-65.02-126.08-97.07-3.14-2.37-8.51-2.62-12.83-3.84,31.07-6.48,56.12-8.94,80.45-13.96,31.38-6.48,62.07-15.32,93.26-22.52,19.01-4.4,36.48-3.56,52.16,9.75,10.08,8.56,23.88,13.96,36,20.79-4.52-6.9-11.23-11.01-17.7-15.36-6.97-4.7-13.74-9.63-24.46-17.2,12.73-.7,19.64-1.09,28.96-1.61q-40.24-5.05-65.49-29.96c-55.11-54.36-92.23-122.41-170.77-158.09,35.96-14.3,67.28-10.15,101.02,3.32,31.19,12.44,66.55,17.27,100.07,25.46l.75-2.94c-42.49-12.35-84.98-24.71-127.46-37.07,33.24-17.36,65.51-28.08,95.33-42.48,48.89-23.63,97.82-22.77,147.77-5.15,25.48,8.97,49.7,20.59,75.36,29.19,21.28,7.12,43.8,11.53,65.78,17.15l1.87-5.4c-80.13-10.42-141.93-66.16-227.79-63.22,22.06-13.08,44.79-24.99,68.09-35.68,51.63-23.56,105.92-29.76,162.62-15.47,27.99,7.02,55.66,14.99,83.61,22.12,54.97,14.01,95.04,16.08,137.61,6.75-62.48,5.87-121.16-7.87-177.98-26.81ZM-952.25,812.94l-10.3-5.15c22.66-33.01,45.32-66.03,67.99-99.05,3.69,1.81,7.38,3.61,11.05,5.42l-68.75,98.78Zm455.38,499.08c-2.49-18.6-5.57-37.21-7.36-55.9-8.27-86.58-11.73-172.88,25.72-256.17,19.11-42.49,48.2-79.43,88.9-115.6,49.11,160.11,11.53,300.55-107.25,427.68h0ZM-635.44,168.9l.43-5.24c63.2-8.95,126.6-16.98,189.54-27.07,63.67-10.2,121.53-32.34,171.66-68.15l4.82,4.24c-12.51,10.67-24.4,21.99-37.66,31.94-41.88,31.38-84.09,62.46-126.61,93.23-4.93,3.59-12.36,8.64-17.25,7.72-61.78-11.65-123.32-24.29-184.92-36.67h0Zm149.53,85.24c-13.19,25.11-24.51,47.29-36.71,69.11-1.56,2.8-7.36,4.63-11.59,5.46-27.43,5.5-54.99,10.61-88.66,17,39.49-40.56,79.74-72.16,136.96-91.58h0Zm-424.52,333.79c59.15-53.55,114.81-103.94,170.47-154.32l3.65,3.42c-24.44,36.99-45.61,75.96-74.39,110.33-21.49,25.68-59.49,32.88-99.73,40.56Zm309.15-14.63c-1.93,5.87-10.18,11.91-17.21,14.62-23.69,9.06-47.96,17.1-72.37,24.69-53.57,16.66-107.35,32.81-161.93,49.43,23.37-41.87,35.29-90.04,75.73-127.42,20.11-18.58,38.98-39.4,52.18-61.86,33.02-56.18,90.18-81.73,157.03-97.02,6.81-1.56,13.83-2.5,20.8-3.49,1.32-.2,2.86,.71,8.57,2.27-20.73,66.19-41.22,132.61-62.81,198.79h0Zm53.19-16.85c-.85-2.27-2.31-3.99-1.91-5.34,16.76-56.44,34.01-112.76,50.33-169.29,3.95-13.7,12.18-19.9,28.72-21.18,30.32-2.38,60.47-6.21,92.87-9.67-26.92,88.14-77.6,158.55-170,205.47h0Zm75.2-236.47c20.84-24.28,38.23-45.06,56.59-65.2,2.54-2.79,9.95-3.41,15.04-3.26,58.15,1.75,112.46-10.09,163.88-32.64,1.8-.78,4.2-.55,14.17-1.7-10.6,13.23-16.26,24.1-25.72,31.47-61.05,47.52-136.05,64.94-223.96,71.32h0ZM-198.52,806.92c-3.04-3.96-5.86-8.08-8.47-12.34-38.53-71.45-73.74-143.77-83.85-222.96-9.39-73.74,6.93-142.34,58.52-208.16-27.33,152.42,3.89,297.46,33.79,443.45h0ZM-235.96,164.44c-36.1,17.79-72.57,33.58-113.67,39.99l-3.55-4.98c44.03-26.47,88.05-52.92,134.35-80.74,6.53,21.93,4.24,35.17-17.13,45.73h0ZM839.1,882.75c20.94,28.31,39.91,53.96,60.28,81.48-20.13-10.27-38.62-18.88-55.88-29.03-5.26-3.58-8.6-9.35-9.1-15.69-.14-11.2,2.67-22.41,4.7-36.76h0Zm27.31-534.08c37.58,28.65,73.32,59.03,110.67,87.91,21.51,16.63,44.53,31.85,70.4,50.23-97.36,29.92-191.56,59.28-294.72,39.37-45.87-8.84-87.3-24.74-122.55-53.24-20.13-16.26-45.69-28.61-70.88-39.12-16.98-6.93-32.5-17-45.75-29.67-34.6-32.46-71.98-62.78-108.04-93.8,46.56-7.5,97.76-19.62,149.65-22.56,27.06-1.53,55.42,12.99,83.1,20.56,7.86,2.15,15.32,5.39,25.11,3.84-22.28-9.03-44.57-18.04-68.9-27.91,3.55-1.61,5.7-3.36,8-3.51,98.31-6.49,188.59,10.44,263.92,67.88h0Zm-82.22,294.61c-68.15,3.26-153.93-65.14-202.53-160.23,87.61,38.05,127.88,112.73,202.53,160.23Zm-277.43-228.73c-92.94-17.95-181.45-35.51-270.26-51.93-39.01-7.22-47.92-37.86-68.39-60.5,56.73,16.9,114.31,20.58,173.08,17.09,9-.54,18.69,2.28,27.44,5,55.66,17.31,98.25,49.15,138.14,90.34Zm529.54-236.92c-75.95,16.66-149.27,33.18-222.97,48.4-8.39,1.73-20.35-1.91-28.11-6.31-49.97-28.23-101.21-54.01-162.78-67.37,142.44-46.39,277.04-26.08,413.86,25.27Zm-280.43,44.32c-53.64-4.18-100.19-23.46-143.81-48.92,53.17,5.47,100.5,23.03,143.81,48.92h0Zm-218.18-49.61c13.65-3.68,33.69-.98,46.34,5.29,62.63,30.97,126.44,56.83,200.46,62.1,17.07,1.21,32.9,15.15,49.3,23.23l-2.39,6.78c-25.36-1.39-51.85,.74-75.88-4.82-84.1-19.47-167.99-18.31-253.39-7.64-74.35,9.28-143.69-10.12-211.51-34.96,87.47-.5,166.3-28.31,247.07-49.98h0Zm-33.16-31.5c-157.86,62.9-305.79,31.44-451.45-33.08,127.35-67.22,282.62-49.31,451.46,33.08h0ZM23.37,157.42c10.87,3.58,17.01,5.37,22.94,7.61,62.19,23.46,125.65,43.37,193.6,51.11,5.44,.37,10.76,1.73,15.71,3.99,47.68,25.61,100.56,38.01,155.63,45.05,4.35,.85,8.65,1.94,12.89,3.27-162.34,39.43-288.72-9.91-400.76-111.03h0ZM410.72,874.72c-123.64-60.6-235.96-122.53-260.28-250.54-2.29-13.18-2.7-26.63-1.22-39.93,7.4-75.67,4.22-150.09-32.63-221.01-.44-1.38-.47-2.86-.1-4.26,46.82,11.8,70.58,41.65,82.76,79.7,15.95,49.76,30.38,99.87,47.27,149.38,23.78,69.68,50.76,137.77,111.69,192.68,26.8,24.15,41.55,56,52.5,93.96h0Zm420.82,173.17c6.91,19.52,19.51,37.58,30.43,57.85-82.88-15.19-165.93-27.07-223.19-87.25-5.37-5.64-10.72-11.71-13.95-18.34-31.74-65.29-78.36-122.73-145.25-163.48-112.44-68.49-167.53-164.61-200.14-273.85-9.63-32.31-18.73-64.73-28.07-97.11l3.18-.89c2.34,3.22,4.47,6.57,6.4,10.05,28.12,58.82,75.79,103.39,140.02,134.55,34.78,16.88,71.51,31.06,108.14,44.94,15.38,5.82,26.31,12.52,32.13,26.6,9.67,23.38,22.24,45.87,32.21,69.16,33.75,78.76,92.88,137.38,188.02,163.77,44.77,12.42,68.31,29.29,59.35,72.99-3.96,19.31,3.78,41.33,10.72,61h0ZM274.43,443.38c129.44,27.86,194.12,107.41,248.14,203.53-116.82-40.63-208.1-96.79-248.13-203.53h0Zm550.92,479.24c-163.47-28.73-235.17-126.91-272.61-253.46,39.51,11.98,78.42,22.77,116.41,35.5,83.77,28.04,128.77,86.7,158.16,154.27,8.19,18.81-.88,43.06-1.95,63.68Zm3.26-87c-3.77-6.03-7.95-11.9-11.27-18.11-36.51-68.21-98.41-111.61-181.19-134.93-26.17-7.38-52.62-14.4-77.83-23.73-10.38-4.22-19.33-11.33-25.78-20.49-27.73-39.64-51.18-81.65-81.58-119.7-40.38-50.52-98.65-81.99-168.26-97.81-5.98-1.37-11.8-3.26-17.71-4.9l.99-5.56c41.43,6.03,83.35,10.25,124.15,18.56,49.66,10.1,98.67,22.86,147.28,36.27,11.41,3.14,22.43,12.12,29.51,20.84,17.9,22.02,33.12,45.58,49.97,68.22,38.23,51.37,89.51,87.61,160.93,101.27,8.45,1.61,18.28,8.42,22.23,15.09,30.62,51.67,34.69,107.26,28.55,164.97h0Zm467.05-255.25c21.12,13.34,38.41,31.67,55.15,49.32,31.11,32.77,60.57,66.68,90.61,99.98-43.18,10.05-86.84,21.15-131.1,30.24-38.55,7.94-75.65,5.71-111.64-12.3-65.7-32.86-136.55-51.14-213.93-49.63-15.61,.3-31.78-5.61-47.03-10.24-18.47-5.62-36.54-12.42-54.26-19.62-22.56-9.15-48.06-15.89-66.18-29.54-42.13-31.74-80.61-67-118.62-103.7,70.6,18.44,139.82,16.36,208.43,.84,44.84-10.14,88.98-22.86,132.64-36.25,15.85-4.88,26.96-3.93,41.03,3.73,42.28,22.96,88.44,36.13,138.44,43.64,27.12,4.07,53.54,19.09,76.46,33.54h0Zm-196.69-91.98c42.73-19.45,135.48,3.69,191.3,36.82-72.09,9.93-132.36-7.47-191.3-36.82h0Z"/>
  </g>
</svg>