<?xml version="1.0" encoding="UTF-8"?>
<svg id="Layer_1" data-name="Layer 1" xmlns="http://www.w3.org/2000/svg" viewBox="0 0 27 44">
  <defs>
    <style>
      .cls-1 {
        fill: #743b1b;
      }

      .cls-2 {
        fill: #c1a676;
      }
    </style>
  </defs>
  <path id="Path_911-2" data-name="Path 911-2" class="cls-2" d="M13.45,34.91C6.02,34.91,0,28.88,0,21.45S6.02,8,13.45,8s13.45,6.02,13.45,13.45-6.02,13.45-13.45,13.45Z"/>
  <path class="cls-1" d="M10.02,26.16v-.77c0-.17,.1-.3,.31-.41l6.57-3.32c.26-.13,.54-.24,.84-.31-.16-.04-.31-.08-.44-.13-.14-.05-.27-.1-.4-.17l-6.57-3.33c-.11-.06-.19-.12-.24-.18-.05-.07-.07-.14-.07-.23v-.77l8.89,4.58v.49s-8.89,4.56-8.89,4.56Z"/>
</svg>