<?xml version="1.0" encoding="UTF-8"?>
<svg id="Layer_1" data-name="Layer 1" xmlns="http://www.w3.org/2000/svg" xmlns:xlink="http://www.w3.org/1999/xlink" viewBox="0 0 3000 8000">
  <defs>
    <style>
      .cls-1 {
        fill: none;
      }

      .cls-2 {
        clip-path: url(#clippath);
      }

      .cls-3 {
        opacity: .05;
      }

      .cls-4 {
        fill: #9a552c;
      }

      .cls-5 {
        fill: #a96a3d;
      }

      .cls-6 {
        fill: #2d1a10;
      }
    </style>
    <clipPath id="clippath">
      <rect class="cls-1" x="-740.47" width="4614.58" height="8000"/>
    </clipPath>
  </defs>
  <g id="Group_740" data-name="Group 740" class="cls-3">
    <rect id="Rectangle_805" data-name="Rectangle 805" class="cls-5" x="-618.7" y="0" width="4326.72" height="7997.58"/>
    <g id="Group_736" data-name="Group 736">
      <g class="cls-2">
        <g id="Group_735" data-name="Group 735">
          <path id="Path_897" data-name="Path 897" class="cls-6" d="M343.6,7994.31s47.08-296.61,0-793.9c-47.08-497.29-389.64-777.05-336-1072.32s-67.09-1647.33-67.09-1647.33c0,0,84.03-155.39,67.09-574.99-16.94-419.6,236.18-745.96,144.91-1305.43-91.27-559.47,44.23-1289.87,0-1476.38C108.27,937.45-22.52,533.4,7.59,315.84,37.71,98.27,7.59,0,7.59,0H207.75s0,540.45,55.63,733.28c55.63,192.83,0,743.76,0,872.32s104.94,954.96,101.13,1083.52c-3.81,128.56-45.53,808.06-87.23,964.14s-55.63,707.04-55.63,973.33-138.2,1248.81-69.11,1441.64c69.09,192.83,96.94,229.57,110.85,404.04,13.91,174.46,194.63,42.21,222.45,360.84,27.82,318.63,27.81,449.46,0,805.33l-27.82,355.87h-114.42Z"/>
          <path id="Path_899" data-name="Path 899" class="cls-6" d="M1564.85,7994.31s-19.4-354.17,0-442.73c19.4-88.56,30.39-265.63-8.62-509.13-39.01-243.5-72.52-1029.35-72.52-1162.15s33.52-819.05,0-896.52c-33.52-77.47,0-434.79,0-986.62s16.83-352.63,41.93-806.42c25.1-453.79,86.84-487.02,39.21-918.65-47.63-431.64,30.87-564.48,0-774.78-30.87-210.3,169.36-332.06-39.21-830.12C1317.06,169.14,1468.8,0,1468.8,0"/>
          <path id="Path_900" data-name="Path 900" class="cls-6" d="M506.71,0s-23.01,766.82,0,1032.45c23.01,265.63-211.63,841.18-111.05,1162.15,100.58,320.97,57.72,719.42,112.66,1029.35,54.94,309.92-54.94,221.36,0,730.49,54.94,509.13-76.37,475.93-61.02,973.99,15.35,498.06,199.71,608.75,199.71,896.52s117.33,498.08,100.58,807.98c-16.76,309.9-241.44,254.56-187.77,564.48,53.67,309.91-80.38,597.65,70.43,796.9"/>
          <path id="Path_901" data-name="Path 901" class="cls-6" d="M2049.91,5.69s-47.08,296.61,0,793.9c47.08,497.29,389.65,777.05,336,1072.32-53.64,295.27,67.09,1647.33,67.09,1647.33,0,0-84.03,155.39-67.09,574.98,16.94,419.59-236.18,745.96-144.91,1305.43,91.27,559.47-44.23,1289.88,0,1476.38,44.23,186.51,175.02,590.56,144.91,808.12-30.11,217.56,0,315.83,0,315.83h-200.16s0-540.45-55.63-733.28c-55.63-192.83,0-743.76,0-872.32s-104.94-954.96-101.13-1083.52,45.53-808.05,87.22-964.15c41.69-156.09,55.63-707.04,55.63-973.33s138.21-1248.8,69.12-1441.64c-69.09-192.83-96.94-229.57-110.84-404.04-13.91-174.46-194.63-42.2-222.45-360.83-27.82-318.63-27.82-449.46,0-805.33L1935.5,5.69h114.42Z"/>
          <path id="Path_902" data-name="Path 902" class="cls-6" d="M1886.84,8000s23.01-766.82,0-1032.45c-23.01-265.63,211.63-841.2,111.05-1162.15-100.58-320.96-57.72-719.42-112.66-1029.35-54.94-309.92,54.94-221.36,0-730.49-54.94-509.13,76.37-475.93,61.02-973.99-15.35-498.06-199.71-608.75-199.71-896.52s-117.34-498.07-100.58-807.98c16.76-309.91,241.43-254.56,187.76-564.48-53.67-309.92,80.39-597.65-70.43-796.89"/>
          <path id="Path_903" data-name="Path 903" class="cls-6" d="M1149.8,7994.31s-234.63-398.44-234.63-542.33,67.03-629.59,67.03-641.3,0-321.62,50.32-476.59c50.32-154.96-33.52-88.54,0-420.59,33.52-332.05,33.52-188.16,0-520.19-33.52-332.03-83.82-1394.6-117.34-1472.07-33.52-77.47,83.82-763.69,117.34-985.06,33.52-221.36-39.49-675.18-2.99-896.54,36.5-221.36-8.93-99.6-120.29-509.13-111.36-409.52-208.64-542.33-159.98-752.63,48.66-210.29,115.65-464.86,115.65-564.49S943.09,0,943.09,0l106.18,213.4s-145.28,154.96-106.18,365.26c39.1,210.29,173.2,608.75,206.72,996.12,33.51,387.37,351.92,619.82,234.62,1195.37-117.29,575.55-184.37,719.42-184.37,1106.81s50.27,320.97,0,785.83c-50.27,464.86,100.54,719.45-33.52,985.08-134.06,265.63-16.76,531.27-16.76,531.27,0,0,67.03,387.39,0,719.45-67.03,332.06-152.98,420.57-76.47,619.8,76.51,199.23,76.48,475.92,76.48,475.92"/>
          <path id="Path_904" data-name="Path 904" class="cls-6" d="M1488.03,5235.43c159.92,7.37,275.33,106.52,344.28,165.78,122.79,105.52,149.27,211.48,154.76,236.24,9.99,44.9,60.71,273.48-159.81,371.74-143.27,63.86-315.5,34.58-339.23,30.29-130.83-23.62-203.21-82.37-294.62-156.55-109.06-88.47-190.61-154.67-204.42-245.49-28.67-188.29,244.39-413.74,499.04-402.01"/>
          <path id="Path_905" data-name="Path 905" class="cls-4" d="M1488.03,5294.46c31.01,4.81,44.03,15.08,127.95,80.17,274.98,213.29,294.83,226.92,297.85,262.84,6.14,73.27-66.92,129.81-182.13,218.91-99.37,76.86-157.92,122.14-243.67,124.1-139.86,3.2-247.99-111.97-319.8-183.9-51.4-51.53-97.25-97.45-106-159.11-25.07-176.32,259.57-368.82,425.8-343"/>
          <path id="Path_906" data-name="Path 906" class="cls-6" d="M1487.96,5322.8c4.84,.75,9.62,1.8,14.32,3.15,20.57,6.33,40,21.48,103.02,70.37,214.89,166.68,259.87,200.39,270.17,227.1,1.52,4.51,2.51,9.19,2.95,13.93,3.95,29.1-1.37,89.08-167.01,200.77-111.26,75-166.85,112.51-223.44,113.8-120.29,2.74-213.35-89.47-293.25-168.66-60.78-60.24-95.63-94.77-97.21-145.91-1.89-60.26,50.82-105.59,156.27-196.28,48.25-41.52,154.32-131.1,234.19-118.27"/>
          <path id="Path_907" data-name="Path 907" class="cls-4" d="M1488.52,5365.55c4.3,.49,8.53,1.42,12.64,2.79,18.17,5.58,35.33,18.96,91,62.13,189.75,147.21,229.48,176.98,238.62,200.59,1.62,3.9,2.5,8.06,2.6,12.28,2.75,55.58-114.66,73.27-207.34,143.24-91.89,69.37-73.18,124.98-137.53,134.57-49.96,7.44-98.14-20.57-149.58-51.27-75.65-45.18-209.43-125.05-195.28-226.54,9.13-65.56,67.27-48.58,220.8-205.62,22.94-23.45,74.41-77.81,124.07-72.19"/>
          <path id="Path_908" data-name="Path 908" class="cls-6" d="M2600.09,5.69s-23.01,766.82,0,1032.45c23.01,265.63-211.63,841.2-111.05,1162.15,100.58,320.96,57.72,719.43,112.66,1029.35,54.94,309.92-54.94,221.36,0,730.49,54.94,509.13-76.37,475.93-61.02,973.99,15.35,498.06,199.71,608.75,199.71,896.54s117.34,498.05,100.58,807.96c-16.76,309.91-241.43,254.56-187.76,564.48,53.67,309.92-80.38,597.64,70.43,796.89"/>
          <path id="Path_909" data-name="Path 909" class="cls-6" d="M3066.65,8899.88s-234.63-398.44-234.63-542.33,67.06-629.59,67.06-641.3,0-321.62,50.27-476.59c50.27-154.96-33.52-88.54,0-420.59,33.52-332.05,33.52-188.16,0-520.19-33.52-332.03-83.82-1394.6-117.34-1472.07-33.52-77.47,83.82-763.69,117.34-985.06,33.52-221.36-39.49-675.18-2.99-896.54,36.5-221.36-8.93-99.6-120.29-509.13-111.36-409.52-208.64-542.33-159.99-752.62,48.65-210.3,115.65-464.86,115.65-564.49s78.19-213.4,78.19-213.4l106.18,213.4s-145.28,154.96-106.18,365.26c39.1,210.29,173.2,608.75,206.72,996.12,33.51,387.37,351.95,619.82,234.65,1195.37-117.3,575.55-184.36,719.42-184.36,1106.82s50.27,320.97,0,785.83c-50.27,464.86,100.54,719.45-33.51,985.08-134.06,265.63-16.76,531.27-16.76,531.27,0,0,67.03,387.39,0,719.45-67.03,332.06-152.98,420.56-76.47,619.79,76.51,199.23,76.47,475.93,76.47,475.93"/>
          <path id="Path_910" data-name="Path 910" class="cls-6" d="M847.67,7994.31s23.01-766.82,0-1032.45c-23.01-265.63,211.63-841.2,111.05-1162.15-100.58-320.95-57.73-719.43-112.66-1029.35-54.94-309.92,54.94-221.36,0-730.49-54.94-509.13,76.37-475.93,61.02-973.99-15.35-498.06-199.71-608.75-199.71-896.52s-117.34-498.07-100.58-807.98c16.76-309.91,241.44-254.56,187.76-564.48C740.88,486.98,874.94,199.26,724.12,0"/>
        </g>
      </g>
    </g>
  </g>
</svg>